<?xml version="1.0" encoding="utf-8" standalone="no"?>
<!DOCTYPE svg PUBLIC "-//W3C//DTD SVG 1.1//EN"
  "http://www.w3.org/Graphics/SVG/1.1/DTD/svg11.dtd">
<svg xmlns:xlink="http://www.w3.org/1999/xlink" width="864pt" height="360pt" viewBox="0 0 864 360" xmlns="http://www.w3.org/2000/svg" version="1.1">
 <metadata>
  <rdf:RDF xmlns:dc="http://purl.org/dc/elements/1.1/" xmlns:cc="http://creativecommons.org/ns#" xmlns:rdf="http://www.w3.org/1999/02/22-rdf-syntax-ns#">
   <cc:Work>
    <dc:type rdf:resource="http://purl.org/dc/dcmitype/StillImage"/>
    <dc:date>2023-01-04T08:56:22.487358</dc:date>
    <dc:format>image/svg+xml</dc:format>
    <dc:creator>
     <cc:Agent>
      <dc:title>Matplotlib v3.6.2, https://matplotlib.org/</dc:title>
     </cc:Agent>
    </dc:creator>
   </cc:Work>
  </rdf:RDF>
 </metadata>
 <defs>
  <style type="text/css">*{stroke-linejoin: round; stroke-linecap: butt}</style>
 </defs>
 <g id="figure_1">
  <g id="patch_1">
   <path d="M 0 360 
L 864 360 
L 864 0 
L 0 0 
L 0 360 
z
" style="fill: none; opacity: 0"/>
  </g>
  <g id="axes_1">
   <g id="patch_2">
    <path d="M 108 320.4 
L 777.6 320.4 
L 777.6 43.2 
L 108 43.2 
L 108 320.4 
z
" style="fill: none; opacity: 0"/>
   </g>
   <g id="matplotlib.axis_1">
    <g id="xtick_1">
     <g id="line2d_1">
      <path d="M 111.96996 320.4 
L 111.96996 43.2 
" clip-path="url(#pe2cd663c2f)" style="fill: none; stroke-dasharray: 5.12,1.28,0.8,1.28; stroke-dashoffset: 0; stroke: #b0b0b0; stroke-width: 0.8"/>
     </g>
     <g id="line2d_2">
      <defs>
       <path id="m71d3426dd8" d="M 0 0 
L 0 3.5 
" style="stroke: #a9a9a9; stroke-width: 0.8"/>
      </defs>
      <g>
       <use xlink:href="#m71d3426dd8" x="111.96996" y="320.4" style="fill: #a9a9a9; stroke: #a9a9a9; stroke-width: 0.8"/>
      </g>
     </g>
     <g id="text_1">
      <!-- 2021-07 -->
      <g style="fill: #a9a9a9" transform="translate(91.078554 334.998438) scale(0.1 -0.1)">
       <defs>
        <path id="DejaVuSans-32" d="M 1228 531 
L 3431 531 
L 3431 0 
L 469 0 
L 469 531 
Q 828 903 1448 1529 
Q 2069 2156 2228 2338 
Q 2531 2678 2651 2914 
Q 2772 3150 2772 3378 
Q 2772 3750 2511 3984 
Q 2250 4219 1831 4219 
Q 1534 4219 1204 4116 
Q 875 4013 500 3803 
L 500 4441 
Q 881 4594 1212 4672 
Q 1544 4750 1819 4750 
Q 2544 4750 2975 4387 
Q 3406 4025 3406 3419 
Q 3406 3131 3298 2873 
Q 3191 2616 2906 2266 
Q 2828 2175 2409 1742 
Q 1991 1309 1228 531 
z
" transform="scale(0.015625)"/>
        <path id="DejaVuSans-30" d="M 2034 4250 
Q 1547 4250 1301 3770 
Q 1056 3291 1056 2328 
Q 1056 1369 1301 889 
Q 1547 409 2034 409 
Q 2525 409 2770 889 
Q 3016 1369 3016 2328 
Q 3016 3291 2770 3770 
Q 2525 4250 2034 4250 
z
M 2034 4750 
Q 2819 4750 3233 4129 
Q 3647 3509 3647 2328 
Q 3647 1150 3233 529 
Q 2819 -91 2034 -91 
Q 1250 -91 836 529 
Q 422 1150 422 2328 
Q 422 3509 836 4129 
Q 1250 4750 2034 4750 
z
" transform="scale(0.015625)"/>
        <path id="DejaVuSans-31" d="M 794 531 
L 1825 531 
L 1825 4091 
L 703 3866 
L 703 4441 
L 1819 4666 
L 2450 4666 
L 2450 531 
L 3481 531 
L 3481 0 
L 794 0 
L 794 531 
z
" transform="scale(0.015625)"/>
        <path id="DejaVuSans-2d" d="M 313 2009 
L 1997 2009 
L 1997 1497 
L 313 1497 
L 313 2009 
z
" transform="scale(0.015625)"/>
        <path id="DejaVuSans-37" d="M 525 4666 
L 3525 4666 
L 3525 4397 
L 1831 0 
L 1172 0 
L 2766 4134 
L 525 4134 
L 525 4666 
z
" transform="scale(0.015625)"/>
       </defs>
       <use xlink:href="#DejaVuSans-32"/>
       <use xlink:href="#DejaVuSans-30" x="63.623047"/>
       <use xlink:href="#DejaVuSans-32" x="127.246094"/>
       <use xlink:href="#DejaVuSans-31" x="190.869141"/>
       <use xlink:href="#DejaVuSans-2d" x="254.492188"/>
       <use xlink:href="#DejaVuSans-30" x="290.576172"/>
       <use xlink:href="#DejaVuSans-37" x="354.199219"/>
      </g>
     </g>
    </g>
    <g id="xtick_2">
     <g id="line2d_3">
      <path d="M 183.314178 320.4 
L 183.314178 43.2 
" clip-path="url(#pe2cd663c2f)" style="fill: none; stroke-dasharray: 5.12,1.28,0.8,1.28; stroke-dashoffset: 0; stroke: #b0b0b0; stroke-width: 0.8"/>
     </g>
     <g id="line2d_4">
      <g>
       <use xlink:href="#m71d3426dd8" x="183.314178" y="320.4" style="fill: #a9a9a9; stroke: #a9a9a9; stroke-width: 0.8"/>
      </g>
     </g>
     <g id="text_2">
      <!-- 2021-09 -->
      <g style="fill: #a9a9a9" transform="translate(162.422771 334.998438) scale(0.1 -0.1)">
       <defs>
        <path id="DejaVuSans-39" d="M 703 97 
L 703 672 
Q 941 559 1184 500 
Q 1428 441 1663 441 
Q 2288 441 2617 861 
Q 2947 1281 2994 2138 
Q 2813 1869 2534 1725 
Q 2256 1581 1919 1581 
Q 1219 1581 811 2004 
Q 403 2428 403 3163 
Q 403 3881 828 4315 
Q 1253 4750 1959 4750 
Q 2769 4750 3195 4129 
Q 3622 3509 3622 2328 
Q 3622 1225 3098 567 
Q 2575 -91 1691 -91 
Q 1453 -91 1209 -44 
Q 966 3 703 97 
z
M 1959 2075 
Q 2384 2075 2632 2365 
Q 2881 2656 2881 3163 
Q 2881 3666 2632 3958 
Q 2384 4250 1959 4250 
Q 1534 4250 1286 3958 
Q 1038 3666 1038 3163 
Q 1038 2656 1286 2365 
Q 1534 2075 1959 2075 
z
" transform="scale(0.015625)"/>
       </defs>
       <use xlink:href="#DejaVuSans-32"/>
       <use xlink:href="#DejaVuSans-30" x="63.623047"/>
       <use xlink:href="#DejaVuSans-32" x="127.246094"/>
       <use xlink:href="#DejaVuSans-31" x="190.869141"/>
       <use xlink:href="#DejaVuSans-2d" x="254.492188"/>
       <use xlink:href="#DejaVuSans-30" x="290.576172"/>
       <use xlink:href="#DejaVuSans-39" x="354.199219"/>
      </g>
     </g>
    </g>
    <g id="xtick_3">
     <g id="line2d_5">
      <path d="M 253.507682 320.4 
L 253.507682 43.2 
" clip-path="url(#pe2cd663c2f)" style="fill: none; stroke-dasharray: 5.12,1.28,0.8,1.28; stroke-dashoffset: 0; stroke: #b0b0b0; stroke-width: 0.8"/>
     </g>
     <g id="line2d_6">
      <g>
       <use xlink:href="#m71d3426dd8" x="253.507682" y="320.4" style="fill: #a9a9a9; stroke: #a9a9a9; stroke-width: 0.8"/>
      </g>
     </g>
     <g id="text_3">
      <!-- 2021-11 -->
      <g style="fill: #a9a9a9" transform="translate(232.616275 334.998438) scale(0.1 -0.1)">
       <use xlink:href="#DejaVuSans-32"/>
       <use xlink:href="#DejaVuSans-30" x="63.623047"/>
       <use xlink:href="#DejaVuSans-32" x="127.246094"/>
       <use xlink:href="#DejaVuSans-31" x="190.869141"/>
       <use xlink:href="#DejaVuSans-2d" x="254.492188"/>
       <use xlink:href="#DejaVuSans-31" x="290.576172"/>
       <use xlink:href="#DejaVuSans-31" x="354.199219"/>
      </g>
     </g>
    </g>
    <g id="xtick_4">
     <g id="line2d_7">
      <path d="M 323.701186 320.4 
L 323.701186 43.2 
" clip-path="url(#pe2cd663c2f)" style="fill: none; stroke-dasharray: 5.12,1.28,0.8,1.28; stroke-dashoffset: 0; stroke: #b0b0b0; stroke-width: 0.8"/>
     </g>
     <g id="line2d_8">
      <g>
       <use xlink:href="#m71d3426dd8" x="323.701186" y="320.4" style="fill: #a9a9a9; stroke: #a9a9a9; stroke-width: 0.8"/>
      </g>
     </g>
     <g id="text_4">
      <!-- 2022-01 -->
      <g style="fill: #a9a9a9" transform="translate(302.80978 334.998438) scale(0.1 -0.1)">
       <use xlink:href="#DejaVuSans-32"/>
       <use xlink:href="#DejaVuSans-30" x="63.623047"/>
       <use xlink:href="#DejaVuSans-32" x="127.246094"/>
       <use xlink:href="#DejaVuSans-32" x="190.869141"/>
       <use xlink:href="#DejaVuSans-2d" x="254.492188"/>
       <use xlink:href="#DejaVuSans-30" x="290.576172"/>
       <use xlink:href="#DejaVuSans-31" x="354.199219"/>
      </g>
     </g>
    </g>
    <g id="xtick_5">
     <g id="line2d_9">
      <path d="M 391.593263 320.4 
L 391.593263 43.2 
" clip-path="url(#pe2cd663c2f)" style="fill: none; stroke-dasharray: 5.12,1.28,0.8,1.28; stroke-dashoffset: 0; stroke: #b0b0b0; stroke-width: 0.8"/>
     </g>
     <g id="line2d_10">
      <g>
       <use xlink:href="#m71d3426dd8" x="391.593263" y="320.4" style="fill: #a9a9a9; stroke: #a9a9a9; stroke-width: 0.8"/>
      </g>
     </g>
     <g id="text_5">
      <!-- 2022-03 -->
      <g style="fill: #a9a9a9" transform="translate(370.701857 334.998438) scale(0.1 -0.1)">
       <defs>
        <path id="DejaVuSans-33" d="M 2597 2516 
Q 3050 2419 3304 2112 
Q 3559 1806 3559 1356 
Q 3559 666 3084 287 
Q 2609 -91 1734 -91 
Q 1441 -91 1130 -33 
Q 819 25 488 141 
L 488 750 
Q 750 597 1062 519 
Q 1375 441 1716 441 
Q 2309 441 2620 675 
Q 2931 909 2931 1356 
Q 2931 1769 2642 2001 
Q 2353 2234 1838 2234 
L 1294 2234 
L 1294 2753 
L 1863 2753 
Q 2328 2753 2575 2939 
Q 2822 3125 2822 3475 
Q 2822 3834 2567 4026 
Q 2313 4219 1838 4219 
Q 1578 4219 1281 4162 
Q 984 4106 628 3988 
L 628 4550 
Q 988 4650 1302 4700 
Q 1616 4750 1894 4750 
Q 2613 4750 3031 4423 
Q 3450 4097 3450 3541 
Q 3450 3153 3228 2886 
Q 3006 2619 2597 2516 
z
" transform="scale(0.015625)"/>
       </defs>
       <use xlink:href="#DejaVuSans-32"/>
       <use xlink:href="#DejaVuSans-30" x="63.623047"/>
       <use xlink:href="#DejaVuSans-32" x="127.246094"/>
       <use xlink:href="#DejaVuSans-32" x="190.869141"/>
       <use xlink:href="#DejaVuSans-2d" x="254.492188"/>
       <use xlink:href="#DejaVuSans-30" x="290.576172"/>
       <use xlink:href="#DejaVuSans-33" x="354.199219"/>
      </g>
     </g>
    </g>
    <g id="xtick_6">
     <g id="line2d_11">
      <path d="M 461.786767 320.4 
L 461.786767 43.2 
" clip-path="url(#pe2cd663c2f)" style="fill: none; stroke-dasharray: 5.12,1.28,0.8,1.28; stroke-dashoffset: 0; stroke: #b0b0b0; stroke-width: 0.8"/>
     </g>
     <g id="line2d_12">
      <g>
       <use xlink:href="#m71d3426dd8" x="461.786767" y="320.4" style="fill: #a9a9a9; stroke: #a9a9a9; stroke-width: 0.8"/>
      </g>
     </g>
     <g id="text_6">
      <!-- 2022-05 -->
      <g style="fill: #a9a9a9" transform="translate(440.895361 334.998438) scale(0.1 -0.1)">
       <defs>
        <path id="DejaVuSans-35" d="M 691 4666 
L 3169 4666 
L 3169 4134 
L 1269 4134 
L 1269 2991 
Q 1406 3038 1543 3061 
Q 1681 3084 1819 3084 
Q 2600 3084 3056 2656 
Q 3513 2228 3513 1497 
Q 3513 744 3044 326 
Q 2575 -91 1722 -91 
Q 1428 -91 1123 -41 
Q 819 9 494 109 
L 494 744 
Q 775 591 1075 516 
Q 1375 441 1709 441 
Q 2250 441 2565 725 
Q 2881 1009 2881 1497 
Q 2881 1984 2565 2268 
Q 2250 2553 1709 2553 
Q 1456 2553 1204 2497 
Q 953 2441 691 2322 
L 691 4666 
z
" transform="scale(0.015625)"/>
       </defs>
       <use xlink:href="#DejaVuSans-32"/>
       <use xlink:href="#DejaVuSans-30" x="63.623047"/>
       <use xlink:href="#DejaVuSans-32" x="127.246094"/>
       <use xlink:href="#DejaVuSans-32" x="190.869141"/>
       <use xlink:href="#DejaVuSans-2d" x="254.492188"/>
       <use xlink:href="#DejaVuSans-30" x="290.576172"/>
       <use xlink:href="#DejaVuSans-35" x="354.199219"/>
      </g>
     </g>
    </g>
    <g id="xtick_7">
     <g id="line2d_13">
      <path d="M 531.980272 320.4 
L 531.980272 43.2 
" clip-path="url(#pe2cd663c2f)" style="fill: none; stroke-dasharray: 5.12,1.28,0.8,1.28; stroke-dashoffset: 0; stroke: #b0b0b0; stroke-width: 0.8"/>
     </g>
     <g id="line2d_14">
      <g>
       <use xlink:href="#m71d3426dd8" x="531.980272" y="320.4" style="fill: #a9a9a9; stroke: #a9a9a9; stroke-width: 0.8"/>
      </g>
     </g>
     <g id="text_7">
      <!-- 2022-07 -->
      <g style="fill: #a9a9a9" transform="translate(511.088865 334.998438) scale(0.1 -0.1)">
       <use xlink:href="#DejaVuSans-32"/>
       <use xlink:href="#DejaVuSans-30" x="63.623047"/>
       <use xlink:href="#DejaVuSans-32" x="127.246094"/>
       <use xlink:href="#DejaVuSans-32" x="190.869141"/>
       <use xlink:href="#DejaVuSans-2d" x="254.492188"/>
       <use xlink:href="#DejaVuSans-30" x="290.576172"/>
       <use xlink:href="#DejaVuSans-37" x="354.199219"/>
      </g>
     </g>
    </g>
    <g id="xtick_8">
     <g id="line2d_15">
      <path d="M 603.324489 320.4 
L 603.324489 43.2 
" clip-path="url(#pe2cd663c2f)" style="fill: none; stroke-dasharray: 5.12,1.28,0.8,1.28; stroke-dashoffset: 0; stroke: #b0b0b0; stroke-width: 0.8"/>
     </g>
     <g id="line2d_16">
      <g>
       <use xlink:href="#m71d3426dd8" x="603.324489" y="320.4" style="fill: #a9a9a9; stroke: #a9a9a9; stroke-width: 0.8"/>
      </g>
     </g>
     <g id="text_8">
      <!-- 2022-09 -->
      <g style="fill: #a9a9a9" transform="translate(582.433082 334.998438) scale(0.1 -0.1)">
       <use xlink:href="#DejaVuSans-32"/>
       <use xlink:href="#DejaVuSans-30" x="63.623047"/>
       <use xlink:href="#DejaVuSans-32" x="127.246094"/>
       <use xlink:href="#DejaVuSans-32" x="190.869141"/>
       <use xlink:href="#DejaVuSans-2d" x="254.492188"/>
       <use xlink:href="#DejaVuSans-30" x="290.576172"/>
       <use xlink:href="#DejaVuSans-39" x="354.199219"/>
      </g>
     </g>
    </g>
    <g id="xtick_9">
     <g id="line2d_17">
      <path d="M 673.517993 320.4 
L 673.517993 43.2 
" clip-path="url(#pe2cd663c2f)" style="fill: none; stroke-dasharray: 5.12,1.28,0.8,1.28; stroke-dashoffset: 0; stroke: #b0b0b0; stroke-width: 0.8"/>
     </g>
     <g id="line2d_18">
      <g>
       <use xlink:href="#m71d3426dd8" x="673.517993" y="320.4" style="fill: #a9a9a9; stroke: #a9a9a9; stroke-width: 0.8"/>
      </g>
     </g>
     <g id="text_9">
      <!-- 2022-11 -->
      <g style="fill: #a9a9a9" transform="translate(652.626587 334.998438) scale(0.1 -0.1)">
       <use xlink:href="#DejaVuSans-32"/>
       <use xlink:href="#DejaVuSans-30" x="63.623047"/>
       <use xlink:href="#DejaVuSans-32" x="127.246094"/>
       <use xlink:href="#DejaVuSans-32" x="190.869141"/>
       <use xlink:href="#DejaVuSans-2d" x="254.492188"/>
       <use xlink:href="#DejaVuSans-31" x="290.576172"/>
       <use xlink:href="#DejaVuSans-31" x="354.199219"/>
      </g>
     </g>
    </g>
    <g id="xtick_10">
     <g id="line2d_19">
      <path d="M 743.711497 320.4 
L 743.711497 43.2 
" clip-path="url(#pe2cd663c2f)" style="fill: none; stroke-dasharray: 5.12,1.28,0.8,1.28; stroke-dashoffset: 0; stroke: #b0b0b0; stroke-width: 0.8"/>
     </g>
     <g id="line2d_20">
      <g>
       <use xlink:href="#m71d3426dd8" x="743.711497" y="320.4" style="fill: #a9a9a9; stroke: #a9a9a9; stroke-width: 0.8"/>
      </g>
     </g>
     <g id="text_10">
      <!-- 2023-01 -->
      <g style="fill: #a9a9a9" transform="translate(722.820091 334.998438) scale(0.1 -0.1)">
       <use xlink:href="#DejaVuSans-32"/>
       <use xlink:href="#DejaVuSans-30" x="63.623047"/>
       <use xlink:href="#DejaVuSans-32" x="127.246094"/>
       <use xlink:href="#DejaVuSans-33" x="190.869141"/>
       <use xlink:href="#DejaVuSans-2d" x="254.492188"/>
       <use xlink:href="#DejaVuSans-30" x="290.576172"/>
       <use xlink:href="#DejaVuSans-31" x="354.199219"/>
      </g>
     </g>
    </g>
   </g>
   <g id="matplotlib.axis_2">
    <g id="ytick_1">
     <g id="line2d_21">
      <path d="M 108 307.871959 
L 777.6 307.871959 
" clip-path="url(#pe2cd663c2f)" style="fill: none; stroke-dasharray: 5.12,1.28,0.8,1.28; stroke-dashoffset: 0; stroke: #b0b0b0; stroke-width: 0.8"/>
     </g>
     <g id="line2d_22">
      <defs>
       <path id="md2ae37b917" d="M 0 0 
L -3.5 0 
" style="stroke: #a9a9a9; stroke-width: 0.8"/>
      </defs>
      <g>
       <use xlink:href="#md2ae37b917" x="108" y="307.871959" style="fill: #a9a9a9; stroke: #a9a9a9; stroke-width: 0.8"/>
      </g>
     </g>
     <g id="text_11">
      <!-- 0 -->
      <g style="fill: #a9a9a9" transform="translate(94.6375 311.671178) scale(0.1 -0.1)">
       <use xlink:href="#DejaVuSans-30"/>
      </g>
     </g>
    </g>
    <g id="ytick_2">
     <g id="line2d_23">
      <path d="M 108 279.088407 
L 777.6 279.088407 
" clip-path="url(#pe2cd663c2f)" style="fill: none; stroke-dasharray: 5.12,1.28,0.8,1.28; stroke-dashoffset: 0; stroke: #b0b0b0; stroke-width: 0.8"/>
     </g>
     <g id="line2d_24">
      <g>
       <use xlink:href="#md2ae37b917" x="108" y="279.088407" style="fill: #a9a9a9; stroke: #a9a9a9; stroke-width: 0.8"/>
      </g>
     </g>
     <g id="text_12">
      <!-- 400 -->
      <g style="fill: #a9a9a9" transform="translate(81.9125 282.887625) scale(0.1 -0.1)">
       <defs>
        <path id="DejaVuSans-34" d="M 2419 4116 
L 825 1625 
L 2419 1625 
L 2419 4116 
z
M 2253 4666 
L 3047 4666 
L 3047 1625 
L 3713 1625 
L 3713 1100 
L 3047 1100 
L 3047 0 
L 2419 0 
L 2419 1100 
L 313 1100 
L 313 1709 
L 2253 4666 
z
" transform="scale(0.015625)"/>
       </defs>
       <use xlink:href="#DejaVuSans-34"/>
       <use xlink:href="#DejaVuSans-30" x="63.623047"/>
       <use xlink:href="#DejaVuSans-30" x="127.246094"/>
      </g>
     </g>
    </g>
    <g id="ytick_3">
     <g id="line2d_25">
      <path d="M 108 250.304854 
L 777.6 250.304854 
" clip-path="url(#pe2cd663c2f)" style="fill: none; stroke-dasharray: 5.12,1.28,0.8,1.28; stroke-dashoffset: 0; stroke: #b0b0b0; stroke-width: 0.8"/>
     </g>
     <g id="line2d_26">
      <g>
       <use xlink:href="#md2ae37b917" x="108" y="250.304854" style="fill: #a9a9a9; stroke: #a9a9a9; stroke-width: 0.8"/>
      </g>
     </g>
     <g id="text_13">
      <!-- 800 -->
      <g style="fill: #a9a9a9" transform="translate(81.9125 254.104073) scale(0.1 -0.1)">
       <defs>
        <path id="DejaVuSans-38" d="M 2034 2216 
Q 1584 2216 1326 1975 
Q 1069 1734 1069 1313 
Q 1069 891 1326 650 
Q 1584 409 2034 409 
Q 2484 409 2743 651 
Q 3003 894 3003 1313 
Q 3003 1734 2745 1975 
Q 2488 2216 2034 2216 
z
M 1403 2484 
Q 997 2584 770 2862 
Q 544 3141 544 3541 
Q 544 4100 942 4425 
Q 1341 4750 2034 4750 
Q 2731 4750 3128 4425 
Q 3525 4100 3525 3541 
Q 3525 3141 3298 2862 
Q 3072 2584 2669 2484 
Q 3125 2378 3379 2068 
Q 3634 1759 3634 1313 
Q 3634 634 3220 271 
Q 2806 -91 2034 -91 
Q 1263 -91 848 271 
Q 434 634 434 1313 
Q 434 1759 690 2068 
Q 947 2378 1403 2484 
z
M 1172 3481 
Q 1172 3119 1398 2916 
Q 1625 2713 2034 2713 
Q 2441 2713 2670 2916 
Q 2900 3119 2900 3481 
Q 2900 3844 2670 4047 
Q 2441 4250 2034 4250 
Q 1625 4250 1398 4047 
Q 1172 3844 1172 3481 
z
" transform="scale(0.015625)"/>
       </defs>
       <use xlink:href="#DejaVuSans-38"/>
       <use xlink:href="#DejaVuSans-30" x="63.623047"/>
       <use xlink:href="#DejaVuSans-30" x="127.246094"/>
      </g>
     </g>
    </g>
    <g id="ytick_4">
     <g id="line2d_27">
      <path d="M 108 221.521302 
L 777.6 221.521302 
" clip-path="url(#pe2cd663c2f)" style="fill: none; stroke-dasharray: 5.12,1.28,0.8,1.28; stroke-dashoffset: 0; stroke: #b0b0b0; stroke-width: 0.8"/>
     </g>
     <g id="line2d_28">
      <g>
       <use xlink:href="#md2ae37b917" x="108" y="221.521302" style="fill: #a9a9a9; stroke: #a9a9a9; stroke-width: 0.8"/>
      </g>
     </g>
     <g id="text_14">
      <!-- 1200 -->
      <g style="fill: #a9a9a9" transform="translate(75.55 225.320521) scale(0.1 -0.1)">
       <use xlink:href="#DejaVuSans-31"/>
       <use xlink:href="#DejaVuSans-32" x="63.623047"/>
       <use xlink:href="#DejaVuSans-30" x="127.246094"/>
       <use xlink:href="#DejaVuSans-30" x="190.869141"/>
      </g>
     </g>
    </g>
    <g id="ytick_5">
     <g id="line2d_29">
      <path d="M 108 192.73775 
L 777.6 192.73775 
" clip-path="url(#pe2cd663c2f)" style="fill: none; stroke-dasharray: 5.12,1.28,0.8,1.28; stroke-dashoffset: 0; stroke: #b0b0b0; stroke-width: 0.8"/>
     </g>
     <g id="line2d_30">
      <g>
       <use xlink:href="#md2ae37b917" x="108" y="192.73775" style="fill: #a9a9a9; stroke: #a9a9a9; stroke-width: 0.8"/>
      </g>
     </g>
     <g id="text_15">
      <!-- 1600 -->
      <g style="fill: #a9a9a9" transform="translate(75.55 196.536969) scale(0.1 -0.1)">
       <defs>
        <path id="DejaVuSans-36" d="M 2113 2584 
Q 1688 2584 1439 2293 
Q 1191 2003 1191 1497 
Q 1191 994 1439 701 
Q 1688 409 2113 409 
Q 2538 409 2786 701 
Q 3034 994 3034 1497 
Q 3034 2003 2786 2293 
Q 2538 2584 2113 2584 
z
M 3366 4563 
L 3366 3988 
Q 3128 4100 2886 4159 
Q 2644 4219 2406 4219 
Q 1781 4219 1451 3797 
Q 1122 3375 1075 2522 
Q 1259 2794 1537 2939 
Q 1816 3084 2150 3084 
Q 2853 3084 3261 2657 
Q 3669 2231 3669 1497 
Q 3669 778 3244 343 
Q 2819 -91 2113 -91 
Q 1303 -91 875 529 
Q 447 1150 447 2328 
Q 447 3434 972 4092 
Q 1497 4750 2381 4750 
Q 2619 4750 2861 4703 
Q 3103 4656 3366 4563 
z
" transform="scale(0.015625)"/>
       </defs>
       <use xlink:href="#DejaVuSans-31"/>
       <use xlink:href="#DejaVuSans-36" x="63.623047"/>
       <use xlink:href="#DejaVuSans-30" x="127.246094"/>
       <use xlink:href="#DejaVuSans-30" x="190.869141"/>
      </g>
     </g>
    </g>
    <g id="ytick_6">
     <g id="line2d_31">
      <path d="M 108 163.954198 
L 777.6 163.954198 
" clip-path="url(#pe2cd663c2f)" style="fill: none; stroke-dasharray: 5.12,1.28,0.8,1.28; stroke-dashoffset: 0; stroke: #b0b0b0; stroke-width: 0.8"/>
     </g>
     <g id="line2d_32">
      <g>
       <use xlink:href="#md2ae37b917" x="108" y="163.954198" style="fill: #a9a9a9; stroke: #a9a9a9; stroke-width: 0.8"/>
      </g>
     </g>
     <g id="text_16">
      <!-- 2000 -->
      <g style="fill: #a9a9a9" transform="translate(75.55 167.753416) scale(0.1 -0.1)">
       <use xlink:href="#DejaVuSans-32"/>
       <use xlink:href="#DejaVuSans-30" x="63.623047"/>
       <use xlink:href="#DejaVuSans-30" x="127.246094"/>
       <use xlink:href="#DejaVuSans-30" x="190.869141"/>
      </g>
     </g>
    </g>
    <g id="ytick_7">
     <g id="line2d_33">
      <path d="M 108 135.170645 
L 777.6 135.170645 
" clip-path="url(#pe2cd663c2f)" style="fill: none; stroke-dasharray: 5.12,1.28,0.8,1.28; stroke-dashoffset: 0; stroke: #b0b0b0; stroke-width: 0.8"/>
     </g>
     <g id="line2d_34">
      <g>
       <use xlink:href="#md2ae37b917" x="108" y="135.170645" style="fill: #a9a9a9; stroke: #a9a9a9; stroke-width: 0.8"/>
      </g>
     </g>
     <g id="text_17">
      <!-- 2400 -->
      <g style="fill: #a9a9a9" transform="translate(75.55 138.969864) scale(0.1 -0.1)">
       <use xlink:href="#DejaVuSans-32"/>
       <use xlink:href="#DejaVuSans-34" x="63.623047"/>
       <use xlink:href="#DejaVuSans-30" x="127.246094"/>
       <use xlink:href="#DejaVuSans-30" x="190.869141"/>
      </g>
     </g>
    </g>
    <g id="ytick_8">
     <g id="line2d_35">
      <path d="M 108 106.387093 
L 777.6 106.387093 
" clip-path="url(#pe2cd663c2f)" style="fill: none; stroke-dasharray: 5.12,1.28,0.8,1.28; stroke-dashoffset: 0; stroke: #b0b0b0; stroke-width: 0.8"/>
     </g>
     <g id="line2d_36">
      <g>
       <use xlink:href="#md2ae37b917" x="108" y="106.387093" style="fill: #a9a9a9; stroke: #a9a9a9; stroke-width: 0.8"/>
      </g>
     </g>
     <g id="text_18">
      <!-- 2800 -->
      <g style="fill: #a9a9a9" transform="translate(75.55 110.186312) scale(0.1 -0.1)">
       <use xlink:href="#DejaVuSans-32"/>
       <use xlink:href="#DejaVuSans-38" x="63.623047"/>
       <use xlink:href="#DejaVuSans-30" x="127.246094"/>
       <use xlink:href="#DejaVuSans-30" x="190.869141"/>
      </g>
     </g>
    </g>
    <g id="ytick_9">
     <g id="line2d_37">
      <path d="M 108 77.603541 
L 777.6 77.603541 
" clip-path="url(#pe2cd663c2f)" style="fill: none; stroke-dasharray: 5.12,1.28,0.8,1.28; stroke-dashoffset: 0; stroke: #b0b0b0; stroke-width: 0.8"/>
     </g>
     <g id="line2d_38">
      <g>
       <use xlink:href="#md2ae37b917" x="108" y="77.603541" style="fill: #a9a9a9; stroke: #a9a9a9; stroke-width: 0.8"/>
      </g>
     </g>
     <g id="text_19">
      <!-- 3200 -->
      <g style="fill: #a9a9a9" transform="translate(75.55 81.40276) scale(0.1 -0.1)">
       <use xlink:href="#DejaVuSans-33"/>
       <use xlink:href="#DejaVuSans-32" x="63.623047"/>
       <use xlink:href="#DejaVuSans-30" x="127.246094"/>
       <use xlink:href="#DejaVuSans-30" x="190.869141"/>
      </g>
     </g>
    </g>
    <g id="ytick_10">
     <g id="line2d_39">
      <path d="M 108 48.819989 
L 777.6 48.819989 
" clip-path="url(#pe2cd663c2f)" style="fill: none; stroke-dasharray: 5.12,1.28,0.8,1.28; stroke-dashoffset: 0; stroke: #b0b0b0; stroke-width: 0.8"/>
     </g>
     <g id="line2d_40">
      <g>
       <use xlink:href="#md2ae37b917" x="108" y="48.819989" style="fill: #a9a9a9; stroke: #a9a9a9; stroke-width: 0.8"/>
      </g>
     </g>
     <g id="text_20">
      <!-- 3600 -->
      <g style="fill: #a9a9a9" transform="translate(75.55 52.619207) scale(0.1 -0.1)">
       <use xlink:href="#DejaVuSans-33"/>
       <use xlink:href="#DejaVuSans-36" x="63.623047"/>
       <use xlink:href="#DejaVuSans-30" x="127.246094"/>
       <use xlink:href="#DejaVuSans-30" x="190.869141"/>
      </g>
     </g>
    </g>
   </g>
   <g id="line2d_41">
    <path d="M 138.436364 307.584123 
L 143.039216 307.224329 
L 144.18993 307.080411 
L 145.340643 307.080411 
L 146.491356 306.648658 
L 148.792782 306.50474 
L 156.847775 304.993604 
L 159.149201 304.849686 
L 160.299914 304.633809 
L 163.752054 304.417933 
L 164.902767 303.842262 
L 166.05348 303.554426 
L 167.204193 302.259166 
L 168.354906 301.539577 
L 169.50562 299.021017 
L 170.656333 298.877099 
L 171.807046 298.085551 
L 172.957759 297.653798 
L 174.108472 297.078127 
L 177.560612 294.415648 
L 178.711325 293.839977 
L 181.012751 292.976471 
L 182.163465 292.184923 
L 183.314178 291.75317 
L 185.615604 290.385951 
L 186.766317 290.026156 
L 187.91703 288.299143 
L 189.067744 287.435637 
L 190.218457 286.788007 
L 191.36917 286.284295 
L 195.972023 285.636665 
L 199.424162 285.060994 
L 201.725589 284.917076 
L 202.876302 284.701199 
L 204.027015 284.125528 
L 208.629868 283.765734 
L 212.082007 283.405939 
L 213.23272 283.046145 
L 218.986286 281.966762 
L 221.287713 281.750885 
L 222.438426 281.46305 
L 225.890565 281.031296 
L 227.041279 280.455625 
L 228.191992 280.311708 
L 230.493418 279.52016 
L 232.794844 279.304283 
L 233.945558 278.944489 
L 238.54841 278.296859 
L 239.699124 277.937065 
L 242.00055 277.57727 
L 243.151263 277.57727 
L 248.904829 276.857681 
L 251.206255 276.210051 
L 252.356969 275.922216 
L 254.658395 275.706339 
L 255.809108 275.63438 
L 259.261248 274.98675 
L 260.411961 274.554997 
L 261.562674 273.11582 
L 262.713387 272.684066 
L 263.8641 272.108395 
L 265.014814 271.964477 
L 266.165527 271.676642 
L 267.31624 271.532724 
L 269.617666 270.597259 
L 270.768379 270.5253 
L 276.521945 269.086122 
L 277.672659 269.086122 
L 279.974085 268.798287 
L 282.275511 268.150657 
L 285.727651 267.28715 
L 286.878364 267.215191 
L 289.17979 266.279726 
L 290.330504 266.135808 
L 291.481217 265.632096 
L 293.782643 265.416219 
L 294.933356 265.34426 
L 298.385496 264.768589 
L 300.686922 264.408795 
L 304.139062 263.761165 
L 305.289775 263.401371 
L 306.440488 263.257453 
L 308.741914 262.465905 
L 309.892628 261.818275 
L 311.043341 261.53044 
L 312.194054 261.386522 
L 314.49548 260.666933 
L 316.796907 259.443632 
L 317.94762 258.724043 
L 319.098333 258.580126 
L 320.249046 258.220331 
L 321.399759 258.076413 
L 322.550473 257.788578 
L 323.701186 257.64466 
L 324.851899 257.140948 
L 327.153325 256.781154 
L 328.304038 256.205483 
L 329.454752 255.773729 
L 330.605465 255.485894 
L 331.756178 255.341976 
L 332.906891 254.910223 
L 337.509744 254.046716 
L 339.81117 253.111251 
L 340.961883 252.895374 
L 342.112597 252.463621 
L 343.26331 252.319703 
L 344.414023 251.815991 
L 345.564736 251.528155 
L 347.866163 251.384238 
L 350.167589 250.664649 
L 351.318302 250.520731 
L 352.469015 250.520731 
L 353.619728 250.017019 
L 355.921155 249.657224 
L 357.071868 249.225471 
L 359.373294 249.153512 
L 360.524008 249.009595 
L 361.674721 249.009595 
L 363.976147 248.6498 
L 366.277573 247.570417 
L 368.579 246.562993 
L 369.729713 246.275157 
L 370.880426 245.555568 
L 372.031139 245.195774 
L 374.332566 244.18835 
L 375.483279 243.972473 
L 376.633992 243.468761 
L 377.784705 243.108966 
L 378.935418 242.389377 
L 380.086132 241.813706 
L 381.236845 240.662364 
L 382.387558 238.863392 
L 383.538271 237.424215 
L 384.688984 237.06442 
L 385.839698 237.06442 
L 386.990411 236.344832 
L 388.141124 235.481325 
L 389.291837 235.193489 
L 390.44255 234.617818 
L 391.593263 234.401942 
L 392.743977 233.394517 
L 393.89469 233.106682 
L 397.346829 231.595545 
L 398.497543 230.300286 
L 399.648256 228.645231 
L 400.798969 227.997601 
L 401.949682 226.198629 
L 403.100395 225.119246 
L 404.251108 224.615534 
L 405.401822 224.327698 
L 406.552535 223.60811 
L 408.853961 222.528726 
L 410.004674 221.737179 
L 411.155388 220.801713 
L 412.306101 220.010166 
L 413.456814 219.362536 
L 414.607527 217.851399 
L 415.75824 215.332838 
L 416.908953 213.749743 
L 418.059667 212.886236 
L 419.21038 212.382524 
L 423.813233 208.712621 
L 426.114659 206.913649 
L 427.265372 205.978184 
L 428.416085 204.395089 
L 429.566798 203.387664 
L 431.868225 201.876528 
L 434.169651 200.365391 
L 435.320364 199.573844 
L 436.471078 198.638378 
L 437.621791 198.350543 
L 438.772504 197.84683 
L 442.224643 195.975899 
L 444.52607 194.896516 
L 446.827496 192.953626 
L 447.978209 191.586408 
L 449.128922 190.79486 
L 450.279636 190.14723 
L 451.430349 189.859395 
L 452.581062 189.283724 
L 453.731775 188.492176 
L 456.033202 187.340834 
L 457.183915 187.124957 
L 458.334628 186.405368 
L 460.636054 185.254026 
L 461.786767 184.174643 
L 462.937481 183.383095 
L 464.088194 183.023301 
L 465.238907 182.303712 
L 466.38962 181.8 
L 467.540333 181.080411 
L 468.691047 180.648658 
L 469.84176 179.929069 
L 470.992473 178.993604 
L 473.293899 178.202056 
L 474.444612 177.698344 
L 475.595326 177.482467 
L 476.746039 176.762878 
L 477.896752 176.547002 
L 480.198178 175.755454 
L 481.348892 175.39566 
L 483.650318 174.460194 
L 484.801031 174.028441 
L 485.951744 173.740605 
L 487.102457 173.308852 
L 489.403884 172.949058 
L 491.70531 171.078127 
L 492.856023 170.646374 
L 495.15745 169.423073 
L 497.458876 168.199772 
L 499.760302 167.552142 
L 500.911016 166.688635 
L 502.061729 166.4008 
L 504.363155 164.961622 
L 505.513868 164.385951 
L 508.966008 163.666362 
L 511.267434 163.018732 
L 514.719574 161.147801 
L 515.870287 161.003883 
L 517.021 160.57213 
L 518.171713 160.428212 
L 519.322427 159.996459 
L 520.47314 159.27687 
L 521.623853 158.413364 
L 522.774566 157.693775 
L 523.925279 157.477898 
L 525.075992 156.974186 
L 526.226706 156.830268 
L 527.377419 156.398515 
L 528.528132 155.606967 
L 529.678845 155.247173 
L 530.829558 154.743461 
L 535.432411 153.52016 
L 536.583124 153.448201 
L 537.733837 153.088407 
L 540.035264 152.080982 
L 541.185977 151.721188 
L 542.33669 151.505311 
L 543.487403 151.001599 
L 544.638117 150.641805 
L 545.78883 150.138093 
L 548.090256 149.490463 
L 549.240969 149.418504 
L 551.542396 148.914792 
L 552.693109 148.411079 
L 553.843822 148.195203 
L 556.145248 147.259737 
L 559.597388 145.676642 
L 561.898814 144.237464 
L 563.049527 143.949629 
L 564.200241 143.301999 
L 565.350954 142.870246 
L 566.501667 142.222616 
L 568.803093 141.646945 
L 569.953806 140.999315 
L 572.255233 140.063849 
L 574.556659 139.704055 
L 575.707372 138.912507 
L 576.858086 138.336836 
L 578.008799 138.120959 
L 579.159512 137.689206 
L 580.310225 137.113535 
L 581.460938 136.897658 
L 582.611651 136.321987 
L 587.214504 135.674358 
L 589.515931 134.666933 
L 590.666644 133.803427 
L 591.817357 131.860537 
L 592.96807 131.572701 
L 594.118783 131.428784 
L 595.269496 131.140948 
L 597.570923 129.917647 
L 598.721636 129.485894 
L 599.872349 128.910223 
L 601.023062 128.622387 
L 603.324489 127.543004 
L 605.625915 126.463621 
L 607.927341 125.528155 
L 609.078055 124.808567 
L 610.228768 124.376813 
L 613.680907 123.585266 
L 615.982334 122.505882 
L 617.133047 122.00217 
L 618.28376 121.786294 
L 621.7359 120.491034 
L 624.037326 119.123815 
L 625.188039 118.404226 
L 626.338752 117.828555 
L 627.489466 117.612678 
L 628.640179 117.180925 
L 629.790892 117.108966 
L 634.393745 115.669789 
L 635.544458 115.59783 
L 636.695171 114.806282 
L 637.845884 114.518447 
L 638.996597 114.014734 
L 642.448737 113.00731 
L 643.59945 112.35968 
L 644.750163 111.999886 
L 645.900876 111.280297 
L 647.05159 110.776585 
L 648.202303 110.128955 
L 653.955869 107.89823 
L 655.106582 107.2506 
L 656.257295 106.459052 
L 657.408008 105.235751 
L 658.558721 104.516162 
L 659.709435 104.300286 
L 662.010861 102.573272 
L 663.161574 102.213478 
L 664.312287 100.558424 
L 665.463001 100.12667 
L 666.613714 99.335123 
L 667.764427 99.119246 
L 668.91514 98.399657 
L 670.065853 97.895945 
L 671.216566 97.680069 
L 672.36728 97.248315 
L 673.517993 96.31285 
L 674.668706 95.953055 
L 676.970132 94.441919 
L 678.120846 93.72233 
L 679.271559 93.218618 
L 681.572985 91.995317 
L 682.723698 91.491605 
L 683.874411 91.347687 
L 685.025125 90.915934 
L 686.175838 90.340263 
L 687.326551 89.620674 
L 688.477264 87.893661 
L 689.627977 86.814278 
L 690.77869 86.166648 
L 691.929404 85.878812 
L 694.23083 84.583552 
L 695.381543 84.367676 
L 696.532256 83.792005 
L 699.984396 82.424786 
L 701.135109 81.849115 
L 703.436535 80.266019 
L 705.737962 77.963335 
L 706.888675 77.099829 
L 709.190101 75.73261 
L 710.340815 74.653227 
L 713.792954 72.062707 
L 714.943667 71.487036 
L 716.09438 70.263735 
L 717.245094 69.472187 
L 718.395807 69.112393 
L 719.54652 68.608681 
L 720.697233 67.529298 
L 722.99866 66.377955 
L 724.149373 66.09012 
L 725.300086 65.298572 
L 726.450799 64.938778 
L 728.752225 63.931354 
L 731.053652 62.276299 
L 732.204365 61.700628 
L 734.505791 60.981039 
L 735.656505 60.333409 
L 740.259357 58.822273 
L 742.560784 57.886808 
L 743.711497 57.311136 
L 744.86221 56.375671 
L 746.012923 55.871959 
L 747.163636 55.8 
L 747.163636 55.8 
" clip-path="url(#pe2cd663c2f)" style="fill: none; stroke: #1f77b4; stroke-width: 1.5; stroke-linecap: square"/>
   </g>
   <g id="line2d_42">
    <path d="M 139.587077 307.8 
L 141.888503 307.8 
L 144.18993 307.512164 
L 151.094209 307.440206 
L 154.546348 307.296288 
L 157.998488 307.224329 
L 160.299914 307.15237 
L 163.752054 307.15237 
L 164.902767 306.864535 
L 168.354906 306.792576 
L 174.108472 306.144946 
L 183.314178 305.641234 
L 184.464891 305.641234 
L 185.615604 305.425357 
L 189.067744 305.353398 
L 191.36917 305.065563 
L 195.972023 305.065563 
L 197.122736 304.921645 
L 202.876302 304.849686 
L 206.328441 304.705768 
L 216.68486 304.633809 
L 218.986286 304.56185 
L 223.589139 304.489891 
L 227.041279 304.345974 
L 231.644131 304.345974 
L 232.794844 304.202056 
L 236.246984 304.130097 
L 240.849837 303.91422 
L 248.904829 303.842262 
L 251.206255 303.770303 
L 255.809108 303.698344 
L 259.261248 303.266591 
L 265.014814 303.194632 
L 270.768379 302.906796 
L 276.521945 302.834837 
L 279.974085 302.690919 
L 282.275511 302.618961 
L 284.576938 302.403084 
L 289.17979 302.187207 
L 292.63193 302.115248 
L 294.933356 302.04329 
L 297.234783 302.04329 
L 298.385496 301.899372 
L 301.837635 301.899372 
L 304.139062 301.683495 
L 307.591201 301.539577 
L 313.344767 301.467619 
L 317.94762 300.963906 
L 319.098333 300.891947 
L 320.249046 300.676071 
L 324.851899 300.604112 
L 328.304038 300.316276 
L 330.605465 300.1004 
L 336.359031 299.812564 
L 339.81117 299.740605 
L 343.26331 299.596688 
L 344.414023 299.596688 
L 346.715449 299.380811 
L 349.016876 299.308852 
L 350.167589 299.308852 
L 351.318302 299.164934 
L 353.619728 299.092975 
L 359.373294 298.80514 
L 361.674721 298.733181 
L 365.12686 298.589263 
L 368.579 298.517304 
L 370.880426 298.445346 
L 376.633992 298.373387 
L 381.236845 297.869674 
L 382.387558 297.869674 
L 384.688984 297.653798 
L 386.990411 297.581839 
L 392.743977 297.150086 
L 393.89469 296.86225 
L 396.196116 296.718332 
L 397.346829 296.430497 
L 400.798969 296.142661 
L 403.100395 295.638949 
L 405.401822 295.56699 
L 407.703248 295.56699 
L 408.853961 295.423073 
L 410.004674 295.423073 
L 412.306101 295.063278 
L 416.908953 294.27173 
L 418.059667 294.27173 
L 419.21038 294.127813 
L 422.662519 294.055854 
L 437.621791 293.120388 
L 438.772504 292.904512 
L 442.224643 292.688635 
L 444.52607 292.328841 
L 446.827496 292.112964 
L 449.128922 292.041005 
L 451.430349 292.041005 
L 452.581062 291.75317 
L 453.731775 291.609252 
L 458.334628 291.537293 
L 460.636054 291.321416 
L 461.786767 291.321416 
L 465.238907 290.817704 
L 466.38962 290.529869 
L 467.540333 290.385951 
L 469.84176 290.313992 
L 475.595326 290.026156 
L 479.047465 289.954198 
L 494.006737 289.090691 
L 496.308163 289.090691 
L 498.609589 288.874814 
L 500.911016 288.874814 
L 504.363155 288.51502 
L 508.966008 288.299143 
L 511.267434 288.227184 
L 512.418147 288.083267 
L 517.021 288.011308 
L 525.075992 287.579555 
L 530.829558 287.507596 
L 533.130985 287.435637 
L 534.281698 287.435637 
L 535.432411 287.21976 
L 537.733837 287.147801 
L 544.638117 287.075842 
L 548.090256 286.931925 
L 552.693109 286.859966 
L 553.843822 286.644089 
L 560.748101 286.57213 
L 563.049527 286.500171 
L 565.350954 286.428212 
L 567.65238 286.356254 
L 569.953806 286.284295 
L 579.159512 285.780583 
L 584.913078 285.708624 
L 588.365217 285.420788 
L 590.666644 285.204911 
L 592.96807 285.132953 
L 595.269496 285.060994 
L 596.42021 284.917076 
L 599.872349 284.845117 
L 601.023062 284.557282 
L 605.625915 284.341405 
L 615.982334 284.269446 
L 621.7359 283.837693 
L 625.188039 283.477898 
L 630.941605 283.405939 
L 634.393745 283.046145 
L 641.298024 282.686351 
L 643.59945 282.614392 
L 648.202303 282.398515 
L 652.805156 282.326556 
L 656.257295 282.182638 
L 660.860148 282.11068 
L 664.312287 281.750885 
L 666.613714 281.678926 
L 671.216566 281.606967 
L 674.668706 281.319132 
L 675.819419 281.175214 
L 676.970132 281.175214 
L 678.120846 280.959338 
L 680.422272 280.887379 
L 685.025125 280.81542 
L 687.326551 280.455625 
L 697.68297 280.383666 
L 699.984396 280.16779 
L 701.135109 280.023872 
L 703.436535 279.951913 
L 705.737962 279.879954 
L 706.888675 279.592119 
L 709.190101 279.52016 
L 710.340815 279.304283 
L 712.642241 279.304283 
L 716.09438 278.944489 
L 741.41007 277.433352 
L 747.163636 277.361393 
L 747.163636 277.361393 
" clip-path="url(#pe2cd663c2f)" style="fill: none; stroke: #ff7f0e; stroke-width: 1.5; stroke-linecap: square"/>
   </g>
   <g id="patch_3">
    <path d="M 108 320.4 
L 108 43.2 
" style="fill: none; stroke: #a9a9a9; stroke-width: 0.8; stroke-linejoin: miter; stroke-linecap: square"/>
   </g>
   <g id="patch_4">
    <path d="M 777.6 320.4 
L 777.6 43.2 
" style="fill: none"/>
   </g>
   <g id="patch_5">
    <path d="M 108 320.4 
L 777.6 320.4 
" style="fill: none; stroke: #a9a9a9; stroke-width: 0.8; stroke-linejoin: miter; stroke-linecap: square"/>
   </g>
   <g id="patch_6">
    <path d="M 108 43.2 
L 777.6 43.2 
" style="fill: none"/>
   </g>
   <g id="text_21">
    <!-- get_subscribe history -->
    <g style="fill: #a9a9a9" transform="translate(378.6075 37.2) scale(0.12 -0.12)">
     <defs>
      <path id="DejaVuSans-67" d="M 2906 1791 
Q 2906 2416 2648 2759 
Q 2391 3103 1925 3103 
Q 1463 3103 1205 2759 
Q 947 2416 947 1791 
Q 947 1169 1205 825 
Q 1463 481 1925 481 
Q 2391 481 2648 825 
Q 2906 1169 2906 1791 
z
M 3481 434 
Q 3481 -459 3084 -895 
Q 2688 -1331 1869 -1331 
Q 1566 -1331 1297 -1286 
Q 1028 -1241 775 -1147 
L 775 -588 
Q 1028 -725 1275 -790 
Q 1522 -856 1778 -856 
Q 2344 -856 2625 -561 
Q 2906 -266 2906 331 
L 2906 616 
Q 2728 306 2450 153 
Q 2172 0 1784 0 
Q 1141 0 747 490 
Q 353 981 353 1791 
Q 353 2603 747 3093 
Q 1141 3584 1784 3584 
Q 2172 3584 2450 3431 
Q 2728 3278 2906 2969 
L 2906 3500 
L 3481 3500 
L 3481 434 
z
" transform="scale(0.015625)"/>
      <path id="DejaVuSans-65" d="M 3597 1894 
L 3597 1613 
L 953 1613 
Q 991 1019 1311 708 
Q 1631 397 2203 397 
Q 2534 397 2845 478 
Q 3156 559 3463 722 
L 3463 178 
Q 3153 47 2828 -22 
Q 2503 -91 2169 -91 
Q 1331 -91 842 396 
Q 353 884 353 1716 
Q 353 2575 817 3079 
Q 1281 3584 2069 3584 
Q 2775 3584 3186 3129 
Q 3597 2675 3597 1894 
z
M 3022 2063 
Q 3016 2534 2758 2815 
Q 2500 3097 2075 3097 
Q 1594 3097 1305 2825 
Q 1016 2553 972 2059 
L 3022 2063 
z
" transform="scale(0.015625)"/>
      <path id="DejaVuSans-74" d="M 1172 4494 
L 1172 3500 
L 2356 3500 
L 2356 3053 
L 1172 3053 
L 1172 1153 
Q 1172 725 1289 603 
Q 1406 481 1766 481 
L 2356 481 
L 2356 0 
L 1766 0 
Q 1100 0 847 248 
Q 594 497 594 1153 
L 594 3053 
L 172 3053 
L 172 3500 
L 594 3500 
L 594 4494 
L 1172 4494 
z
" transform="scale(0.015625)"/>
      <path id="DejaVuSans-5f" d="M 3263 -1063 
L 3263 -1509 
L -63 -1509 
L -63 -1063 
L 3263 -1063 
z
" transform="scale(0.015625)"/>
      <path id="DejaVuSans-73" d="M 2834 3397 
L 2834 2853 
Q 2591 2978 2328 3040 
Q 2066 3103 1784 3103 
Q 1356 3103 1142 2972 
Q 928 2841 928 2578 
Q 928 2378 1081 2264 
Q 1234 2150 1697 2047 
L 1894 2003 
Q 2506 1872 2764 1633 
Q 3022 1394 3022 966 
Q 3022 478 2636 193 
Q 2250 -91 1575 -91 
Q 1294 -91 989 -36 
Q 684 19 347 128 
L 347 722 
Q 666 556 975 473 
Q 1284 391 1588 391 
Q 1994 391 2212 530 
Q 2431 669 2431 922 
Q 2431 1156 2273 1281 
Q 2116 1406 1581 1522 
L 1381 1569 
Q 847 1681 609 1914 
Q 372 2147 372 2553 
Q 372 3047 722 3315 
Q 1072 3584 1716 3584 
Q 2034 3584 2315 3537 
Q 2597 3491 2834 3397 
z
" transform="scale(0.015625)"/>
      <path id="DejaVuSans-75" d="M 544 1381 
L 544 3500 
L 1119 3500 
L 1119 1403 
Q 1119 906 1312 657 
Q 1506 409 1894 409 
Q 2359 409 2629 706 
Q 2900 1003 2900 1516 
L 2900 3500 
L 3475 3500 
L 3475 0 
L 2900 0 
L 2900 538 
Q 2691 219 2414 64 
Q 2138 -91 1772 -91 
Q 1169 -91 856 284 
Q 544 659 544 1381 
z
M 1991 3584 
L 1991 3584 
z
" transform="scale(0.015625)"/>
      <path id="DejaVuSans-62" d="M 3116 1747 
Q 3116 2381 2855 2742 
Q 2594 3103 2138 3103 
Q 1681 3103 1420 2742 
Q 1159 2381 1159 1747 
Q 1159 1113 1420 752 
Q 1681 391 2138 391 
Q 2594 391 2855 752 
Q 3116 1113 3116 1747 
z
M 1159 2969 
Q 1341 3281 1617 3432 
Q 1894 3584 2278 3584 
Q 2916 3584 3314 3078 
Q 3713 2572 3713 1747 
Q 3713 922 3314 415 
Q 2916 -91 2278 -91 
Q 1894 -91 1617 61 
Q 1341 213 1159 525 
L 1159 0 
L 581 0 
L 581 4863 
L 1159 4863 
L 1159 2969 
z
" transform="scale(0.015625)"/>
      <path id="DejaVuSans-63" d="M 3122 3366 
L 3122 2828 
Q 2878 2963 2633 3030 
Q 2388 3097 2138 3097 
Q 1578 3097 1268 2742 
Q 959 2388 959 1747 
Q 959 1106 1268 751 
Q 1578 397 2138 397 
Q 2388 397 2633 464 
Q 2878 531 3122 666 
L 3122 134 
Q 2881 22 2623 -34 
Q 2366 -91 2075 -91 
Q 1284 -91 818 406 
Q 353 903 353 1747 
Q 353 2603 823 3093 
Q 1294 3584 2113 3584 
Q 2378 3584 2631 3529 
Q 2884 3475 3122 3366 
z
" transform="scale(0.015625)"/>
      <path id="DejaVuSans-72" d="M 2631 2963 
Q 2534 3019 2420 3045 
Q 2306 3072 2169 3072 
Q 1681 3072 1420 2755 
Q 1159 2438 1159 1844 
L 1159 0 
L 581 0 
L 581 3500 
L 1159 3500 
L 1159 2956 
Q 1341 3275 1631 3429 
Q 1922 3584 2338 3584 
Q 2397 3584 2469 3576 
Q 2541 3569 2628 3553 
L 2631 2963 
z
" transform="scale(0.015625)"/>
      <path id="DejaVuSans-69" d="M 603 3500 
L 1178 3500 
L 1178 0 
L 603 0 
L 603 3500 
z
M 603 4863 
L 1178 4863 
L 1178 4134 
L 603 4134 
L 603 4863 
z
" transform="scale(0.015625)"/>
      <path id="DejaVuSans-20" transform="scale(0.015625)"/>
      <path id="DejaVuSans-68" d="M 3513 2113 
L 3513 0 
L 2938 0 
L 2938 2094 
Q 2938 2591 2744 2837 
Q 2550 3084 2163 3084 
Q 1697 3084 1428 2787 
Q 1159 2491 1159 1978 
L 1159 0 
L 581 0 
L 581 4863 
L 1159 4863 
L 1159 2956 
Q 1366 3272 1645 3428 
Q 1925 3584 2291 3584 
Q 2894 3584 3203 3211 
Q 3513 2838 3513 2113 
z
" transform="scale(0.015625)"/>
      <path id="DejaVuSans-6f" d="M 1959 3097 
Q 1497 3097 1228 2736 
Q 959 2375 959 1747 
Q 959 1119 1226 758 
Q 1494 397 1959 397 
Q 2419 397 2687 759 
Q 2956 1122 2956 1747 
Q 2956 2369 2687 2733 
Q 2419 3097 1959 3097 
z
M 1959 3584 
Q 2709 3584 3137 3096 
Q 3566 2609 3566 1747 
Q 3566 888 3137 398 
Q 2709 -91 1959 -91 
Q 1206 -91 779 398 
Q 353 888 353 1747 
Q 353 2609 779 3096 
Q 1206 3584 1959 3584 
z
" transform="scale(0.015625)"/>
      <path id="DejaVuSans-79" d="M 2059 -325 
Q 1816 -950 1584 -1140 
Q 1353 -1331 966 -1331 
L 506 -1331 
L 506 -850 
L 844 -850 
Q 1081 -850 1212 -737 
Q 1344 -625 1503 -206 
L 1606 56 
L 191 3500 
L 800 3500 
L 1894 763 
L 2988 3500 
L 3597 3500 
L 2059 -325 
z
" transform="scale(0.015625)"/>
     </defs>
     <use xlink:href="#DejaVuSans-67"/>
     <use xlink:href="#DejaVuSans-65" x="63.476562"/>
     <use xlink:href="#DejaVuSans-74" x="125"/>
     <use xlink:href="#DejaVuSans-5f" x="164.208984"/>
     <use xlink:href="#DejaVuSans-73" x="214.208984"/>
     <use xlink:href="#DejaVuSans-75" x="266.308594"/>
     <use xlink:href="#DejaVuSans-62" x="329.6875"/>
     <use xlink:href="#DejaVuSans-73" x="393.164062"/>
     <use xlink:href="#DejaVuSans-63" x="445.263672"/>
     <use xlink:href="#DejaVuSans-72" x="500.244141"/>
     <use xlink:href="#DejaVuSans-69" x="541.357422"/>
     <use xlink:href="#DejaVuSans-62" x="569.140625"/>
     <use xlink:href="#DejaVuSans-65" x="632.617188"/>
     <use xlink:href="#DejaVuSans-20" x="694.140625"/>
     <use xlink:href="#DejaVuSans-68" x="725.927734"/>
     <use xlink:href="#DejaVuSans-69" x="789.306641"/>
     <use xlink:href="#DejaVuSans-73" x="817.089844"/>
     <use xlink:href="#DejaVuSans-74" x="869.189453"/>
     <use xlink:href="#DejaVuSans-6f" x="908.398438"/>
     <use xlink:href="#DejaVuSans-72" x="969.580078"/>
     <use xlink:href="#DejaVuSans-79" x="1010.693359"/>
    </g>
   </g>
   <g id="legend_1">
    <g id="line2d_43">
     <path d="M 815.08 328.498438 
L 825.08 328.498438 
L 835.08 328.498438 
" style="fill: none; stroke: #1f77b4; stroke-width: 1.5; stroke-linecap: square"/>
    </g>
    <g id="text_22">
     <!-- star -->
     <g style="fill: #a9a9a9" transform="translate(843.08 331.998438) scale(0.1 -0.1)">
      <defs>
       <path id="DejaVuSans-61" d="M 2194 1759 
Q 1497 1759 1228 1600 
Q 959 1441 959 1056 
Q 959 750 1161 570 
Q 1363 391 1709 391 
Q 2188 391 2477 730 
Q 2766 1069 2766 1631 
L 2766 1759 
L 2194 1759 
z
M 3341 1997 
L 3341 0 
L 2766 0 
L 2766 531 
Q 2569 213 2275 61 
Q 1981 -91 1556 -91 
Q 1019 -91 701 211 
Q 384 513 384 1019 
Q 384 1609 779 1909 
Q 1175 2209 1959 2209 
L 2766 2209 
L 2766 2266 
Q 2766 2663 2505 2880 
Q 2244 3097 1772 3097 
Q 1472 3097 1187 3025 
Q 903 2953 641 2809 
L 641 3341 
Q 956 3463 1253 3523 
Q 1550 3584 1831 3584 
Q 2591 3584 2966 3190 
Q 3341 2797 3341 1997 
z
" transform="scale(0.015625)"/>
      </defs>
      <use xlink:href="#DejaVuSans-73"/>
      <use xlink:href="#DejaVuSans-74" x="52.099609"/>
      <use xlink:href="#DejaVuSans-61" x="91.308594"/>
      <use xlink:href="#DejaVuSans-72" x="152.587891"/>
     </g>
    </g>
    <g id="line2d_44">
     <path d="M 815.08 343.176562 
L 825.08 343.176562 
L 835.08 343.176562 
" style="fill: none; stroke: #ff7f0e; stroke-width: 1.5; stroke-linecap: square"/>
    </g>
    <g id="text_23">
     <!-- fork -->
     <g style="fill: #a9a9a9" transform="translate(843.08 346.676562) scale(0.1 -0.1)">
      <defs>
       <path id="DejaVuSans-66" d="M 2375 4863 
L 2375 4384 
L 1825 4384 
Q 1516 4384 1395 4259 
Q 1275 4134 1275 3809 
L 1275 3500 
L 2222 3500 
L 2222 3053 
L 1275 3053 
L 1275 0 
L 697 0 
L 697 3053 
L 147 3053 
L 147 3500 
L 697 3500 
L 697 3744 
Q 697 4328 969 4595 
Q 1241 4863 1831 4863 
L 2375 4863 
z
" transform="scale(0.015625)"/>
       <path id="DejaVuSans-6b" d="M 581 4863 
L 1159 4863 
L 1159 1991 
L 2875 3500 
L 3609 3500 
L 1753 1863 
L 3688 0 
L 2938 0 
L 1159 1709 
L 1159 0 
L 581 0 
L 581 4863 
z
" transform="scale(0.015625)"/>
      </defs>
      <use xlink:href="#DejaVuSans-66"/>
      <use xlink:href="#DejaVuSans-6f" x="35.205078"/>
      <use xlink:href="#DejaVuSans-72" x="96.386719"/>
      <use xlink:href="#DejaVuSans-6b" x="137.5"/>
     </g>
    </g>
   </g>
  </g>
 </g>
 <defs>
  <clipPath id="pe2cd663c2f">
   <rect x="108" y="43.2" width="669.6" height="277.2"/>
  </clipPath>
 </defs>
</svg>
