<?xml version="1.0" encoding="utf-8" standalone="no"?>
<!DOCTYPE svg PUBLIC "-//W3C//DTD SVG 1.1//EN"
  "http://www.w3.org/Graphics/SVG/1.1/DTD/svg11.dtd">
<svg xmlns:xlink="http://www.w3.org/1999/xlink" width="864pt" height="360pt" viewBox="0 0 864 360" xmlns="http://www.w3.org/2000/svg" version="1.1">
 <metadata>
  <rdf:RDF xmlns:dc="http://purl.org/dc/elements/1.1/" xmlns:cc="http://creativecommons.org/ns#" xmlns:rdf="http://www.w3.org/1999/02/22-rdf-syntax-ns#">
   <cc:Work>
    <dc:type rdf:resource="http://purl.org/dc/dcmitype/StillImage"/>
    <dc:date>2022-12-03T20:19:41.887715</dc:date>
    <dc:format>image/svg+xml</dc:format>
    <dc:creator>
     <cc:Agent>
      <dc:title>Matplotlib v3.6.2, https://matplotlib.org/</dc:title>
     </cc:Agent>
    </dc:creator>
   </cc:Work>
  </rdf:RDF>
 </metadata>
 <defs>
  <style type="text/css">*{stroke-linejoin: round; stroke-linecap: butt}</style>
 </defs>
 <g id="figure_1">
  <g id="patch_1">
   <path d="M 0 360 
L 864 360 
L 864 0 
L 0 0 
L 0 360 
z
" style="fill: none; opacity: 0"/>
  </g>
  <g id="axes_1">
   <g id="patch_2">
    <path d="M 108 320.4 
L 777.6 320.4 
L 777.6 43.2 
L 108 43.2 
L 108 320.4 
z
" style="fill: none; opacity: 0"/>
   </g>
   <g id="matplotlib.axis_1">
    <g id="xtick_1">
     <g id="line2d_1">
      <path d="M 110.265886 320.4 
L 110.265886 43.2 
" clip-path="url(#pacf9ca1fce)" style="fill: none; stroke-dasharray: 5.12,1.28,0.8,1.28; stroke-dashoffset: 0; stroke: #b0b0b0; stroke-width: 0.8"/>
     </g>
     <g id="line2d_2">
      <defs>
       <path id="m81f7d6a3cf" d="M 0 0 
L 0 3.5 
" style="stroke: #a9a9a9; stroke-width: 0.8"/>
      </defs>
      <g>
       <use xlink:href="#m81f7d6a3cf" x="110.265886" y="320.4" style="fill: #a9a9a9; stroke: #a9a9a9; stroke-width: 0.8"/>
      </g>
     </g>
     <g id="text_1">
      <!-- 2021-07 -->
      <g style="fill: #a9a9a9" transform="translate(89.37448 334.998438) scale(0.1 -0.1)">
       <defs>
        <path id="DejaVuSans-32" d="M 1228 531 
L 3431 531 
L 3431 0 
L 469 0 
L 469 531 
Q 828 903 1448 1529 
Q 2069 2156 2228 2338 
Q 2531 2678 2651 2914 
Q 2772 3150 2772 3378 
Q 2772 3750 2511 3984 
Q 2250 4219 1831 4219 
Q 1534 4219 1204 4116 
Q 875 4013 500 3803 
L 500 4441 
Q 881 4594 1212 4672 
Q 1544 4750 1819 4750 
Q 2544 4750 2975 4387 
Q 3406 4025 3406 3419 
Q 3406 3131 3298 2873 
Q 3191 2616 2906 2266 
Q 2828 2175 2409 1742 
Q 1991 1309 1228 531 
z
" transform="scale(0.015625)"/>
        <path id="DejaVuSans-30" d="M 2034 4250 
Q 1547 4250 1301 3770 
Q 1056 3291 1056 2328 
Q 1056 1369 1301 889 
Q 1547 409 2034 409 
Q 2525 409 2770 889 
Q 3016 1369 3016 2328 
Q 3016 3291 2770 3770 
Q 2525 4250 2034 4250 
z
M 2034 4750 
Q 2819 4750 3233 4129 
Q 3647 3509 3647 2328 
Q 3647 1150 3233 529 
Q 2819 -91 2034 -91 
Q 1250 -91 836 529 
Q 422 1150 422 2328 
Q 422 3509 836 4129 
Q 1250 4750 2034 4750 
z
" transform="scale(0.015625)"/>
        <path id="DejaVuSans-31" d="M 794 531 
L 1825 531 
L 1825 4091 
L 703 3866 
L 703 4441 
L 1819 4666 
L 2450 4666 
L 2450 531 
L 3481 531 
L 3481 0 
L 794 0 
L 794 531 
z
" transform="scale(0.015625)"/>
        <path id="DejaVuSans-2d" d="M 313 2009 
L 1997 2009 
L 1997 1497 
L 313 1497 
L 313 2009 
z
" transform="scale(0.015625)"/>
        <path id="DejaVuSans-37" d="M 525 4666 
L 3525 4666 
L 3525 4397 
L 1831 0 
L 1172 0 
L 2766 4134 
L 525 4134 
L 525 4666 
z
" transform="scale(0.015625)"/>
       </defs>
       <use xlink:href="#DejaVuSans-32"/>
       <use xlink:href="#DejaVuSans-30" x="63.623047"/>
       <use xlink:href="#DejaVuSans-32" x="127.246094"/>
       <use xlink:href="#DejaVuSans-31" x="190.869141"/>
       <use xlink:href="#DejaVuSans-2d" x="254.492188"/>
       <use xlink:href="#DejaVuSans-30" x="290.576172"/>
       <use xlink:href="#DejaVuSans-37" x="354.199219"/>
      </g>
     </g>
    </g>
    <g id="xtick_2">
     <g id="line2d_3">
      <path d="M 186.203695 320.4 
L 186.203695 43.2 
" clip-path="url(#pacf9ca1fce)" style="fill: none; stroke-dasharray: 5.12,1.28,0.8,1.28; stroke-dashoffset: 0; stroke: #b0b0b0; stroke-width: 0.8"/>
     </g>
     <g id="line2d_4">
      <g>
       <use xlink:href="#m81f7d6a3cf" x="186.203695" y="320.4" style="fill: #a9a9a9; stroke: #a9a9a9; stroke-width: 0.8"/>
      </g>
     </g>
     <g id="text_2">
      <!-- 2021-09 -->
      <g style="fill: #a9a9a9" transform="translate(165.312289 334.998438) scale(0.1 -0.1)">
       <defs>
        <path id="DejaVuSans-39" d="M 703 97 
L 703 672 
Q 941 559 1184 500 
Q 1428 441 1663 441 
Q 2288 441 2617 861 
Q 2947 1281 2994 2138 
Q 2813 1869 2534 1725 
Q 2256 1581 1919 1581 
Q 1219 1581 811 2004 
Q 403 2428 403 3163 
Q 403 3881 828 4315 
Q 1253 4750 1959 4750 
Q 2769 4750 3195 4129 
Q 3622 3509 3622 2328 
Q 3622 1225 3098 567 
Q 2575 -91 1691 -91 
Q 1453 -91 1209 -44 
Q 966 3 703 97 
z
M 1959 2075 
Q 2384 2075 2632 2365 
Q 2881 2656 2881 3163 
Q 2881 3666 2632 3958 
Q 2384 4250 1959 4250 
Q 1534 4250 1286 3958 
Q 1038 3666 1038 3163 
Q 1038 2656 1286 2365 
Q 1534 2075 1959 2075 
z
" transform="scale(0.015625)"/>
       </defs>
       <use xlink:href="#DejaVuSans-32"/>
       <use xlink:href="#DejaVuSans-30" x="63.623047"/>
       <use xlink:href="#DejaVuSans-32" x="127.246094"/>
       <use xlink:href="#DejaVuSans-31" x="190.869141"/>
       <use xlink:href="#DejaVuSans-2d" x="254.492188"/>
       <use xlink:href="#DejaVuSans-30" x="290.576172"/>
       <use xlink:href="#DejaVuSans-39" x="354.199219"/>
      </g>
     </g>
    </g>
    <g id="xtick_3">
     <g id="line2d_5">
      <path d="M 260.9167 320.4 
L 260.9167 43.2 
" clip-path="url(#pacf9ca1fce)" style="fill: none; stroke-dasharray: 5.12,1.28,0.8,1.28; stroke-dashoffset: 0; stroke: #b0b0b0; stroke-width: 0.8"/>
     </g>
     <g id="line2d_6">
      <g>
       <use xlink:href="#m81f7d6a3cf" x="260.9167" y="320.4" style="fill: #a9a9a9; stroke: #a9a9a9; stroke-width: 0.8"/>
      </g>
     </g>
     <g id="text_3">
      <!-- 2021-11 -->
      <g style="fill: #a9a9a9" transform="translate(240.025294 334.998438) scale(0.1 -0.1)">
       <use xlink:href="#DejaVuSans-32"/>
       <use xlink:href="#DejaVuSans-30" x="63.623047"/>
       <use xlink:href="#DejaVuSans-32" x="127.246094"/>
       <use xlink:href="#DejaVuSans-31" x="190.869141"/>
       <use xlink:href="#DejaVuSans-2d" x="254.492188"/>
       <use xlink:href="#DejaVuSans-31" x="290.576172"/>
       <use xlink:href="#DejaVuSans-31" x="354.199219"/>
      </g>
     </g>
    </g>
    <g id="xtick_4">
     <g id="line2d_7">
      <path d="M 335.629706 320.4 
L 335.629706 43.2 
" clip-path="url(#pacf9ca1fce)" style="fill: none; stroke-dasharray: 5.12,1.28,0.8,1.28; stroke-dashoffset: 0; stroke: #b0b0b0; stroke-width: 0.8"/>
     </g>
     <g id="line2d_8">
      <g>
       <use xlink:href="#m81f7d6a3cf" x="335.629706" y="320.4" style="fill: #a9a9a9; stroke: #a9a9a9; stroke-width: 0.8"/>
      </g>
     </g>
     <g id="text_4">
      <!-- 2022-01 -->
      <g style="fill: #a9a9a9" transform="translate(314.738299 334.998438) scale(0.1 -0.1)">
       <use xlink:href="#DejaVuSans-32"/>
       <use xlink:href="#DejaVuSans-30" x="63.623047"/>
       <use xlink:href="#DejaVuSans-32" x="127.246094"/>
       <use xlink:href="#DejaVuSans-32" x="190.869141"/>
       <use xlink:href="#DejaVuSans-2d" x="254.492188"/>
       <use xlink:href="#DejaVuSans-30" x="290.576172"/>
       <use xlink:href="#DejaVuSans-31" x="354.199219"/>
      </g>
     </g>
    </g>
    <g id="xtick_5">
     <g id="line2d_9">
      <path d="M 407.893104 320.4 
L 407.893104 43.2 
" clip-path="url(#pacf9ca1fce)" style="fill: none; stroke-dasharray: 5.12,1.28,0.8,1.28; stroke-dashoffset: 0; stroke: #b0b0b0; stroke-width: 0.8"/>
     </g>
     <g id="line2d_10">
      <g>
       <use xlink:href="#m81f7d6a3cf" x="407.893104" y="320.4" style="fill: #a9a9a9; stroke: #a9a9a9; stroke-width: 0.8"/>
      </g>
     </g>
     <g id="text_5">
      <!-- 2022-03 -->
      <g style="fill: #a9a9a9" transform="translate(387.001698 334.998438) scale(0.1 -0.1)">
       <defs>
        <path id="DejaVuSans-33" d="M 2597 2516 
Q 3050 2419 3304 2112 
Q 3559 1806 3559 1356 
Q 3559 666 3084 287 
Q 2609 -91 1734 -91 
Q 1441 -91 1130 -33 
Q 819 25 488 141 
L 488 750 
Q 750 597 1062 519 
Q 1375 441 1716 441 
Q 2309 441 2620 675 
Q 2931 909 2931 1356 
Q 2931 1769 2642 2001 
Q 2353 2234 1838 2234 
L 1294 2234 
L 1294 2753 
L 1863 2753 
Q 2328 2753 2575 2939 
Q 2822 3125 2822 3475 
Q 2822 3834 2567 4026 
Q 2313 4219 1838 4219 
Q 1578 4219 1281 4162 
Q 984 4106 628 3988 
L 628 4550 
Q 988 4650 1302 4700 
Q 1616 4750 1894 4750 
Q 2613 4750 3031 4423 
Q 3450 4097 3450 3541 
Q 3450 3153 3228 2886 
Q 3006 2619 2597 2516 
z
" transform="scale(0.015625)"/>
       </defs>
       <use xlink:href="#DejaVuSans-32"/>
       <use xlink:href="#DejaVuSans-30" x="63.623047"/>
       <use xlink:href="#DejaVuSans-32" x="127.246094"/>
       <use xlink:href="#DejaVuSans-32" x="190.869141"/>
       <use xlink:href="#DejaVuSans-2d" x="254.492188"/>
       <use xlink:href="#DejaVuSans-30" x="290.576172"/>
       <use xlink:href="#DejaVuSans-33" x="354.199219"/>
      </g>
     </g>
    </g>
    <g id="xtick_6">
     <g id="line2d_11">
      <path d="M 482.606109 320.4 
L 482.606109 43.2 
" clip-path="url(#pacf9ca1fce)" style="fill: none; stroke-dasharray: 5.12,1.28,0.8,1.28; stroke-dashoffset: 0; stroke: #b0b0b0; stroke-width: 0.8"/>
     </g>
     <g id="line2d_12">
      <g>
       <use xlink:href="#m81f7d6a3cf" x="482.606109" y="320.4" style="fill: #a9a9a9; stroke: #a9a9a9; stroke-width: 0.8"/>
      </g>
     </g>
     <g id="text_6">
      <!-- 2022-05 -->
      <g style="fill: #a9a9a9" transform="translate(461.714703 334.998438) scale(0.1 -0.1)">
       <defs>
        <path id="DejaVuSans-35" d="M 691 4666 
L 3169 4666 
L 3169 4134 
L 1269 4134 
L 1269 2991 
Q 1406 3038 1543 3061 
Q 1681 3084 1819 3084 
Q 2600 3084 3056 2656 
Q 3513 2228 3513 1497 
Q 3513 744 3044 326 
Q 2575 -91 1722 -91 
Q 1428 -91 1123 -41 
Q 819 9 494 109 
L 494 744 
Q 775 591 1075 516 
Q 1375 441 1709 441 
Q 2250 441 2565 725 
Q 2881 1009 2881 1497 
Q 2881 1984 2565 2268 
Q 2250 2553 1709 2553 
Q 1456 2553 1204 2497 
Q 953 2441 691 2322 
L 691 4666 
z
" transform="scale(0.015625)"/>
       </defs>
       <use xlink:href="#DejaVuSans-32"/>
       <use xlink:href="#DejaVuSans-30" x="63.623047"/>
       <use xlink:href="#DejaVuSans-32" x="127.246094"/>
       <use xlink:href="#DejaVuSans-32" x="190.869141"/>
       <use xlink:href="#DejaVuSans-2d" x="254.492188"/>
       <use xlink:href="#DejaVuSans-30" x="290.576172"/>
       <use xlink:href="#DejaVuSans-35" x="354.199219"/>
      </g>
     </g>
    </g>
    <g id="xtick_7">
     <g id="line2d_13">
      <path d="M 557.319115 320.4 
L 557.319115 43.2 
" clip-path="url(#pacf9ca1fce)" style="fill: none; stroke-dasharray: 5.12,1.28,0.8,1.28; stroke-dashoffset: 0; stroke: #b0b0b0; stroke-width: 0.8"/>
     </g>
     <g id="line2d_14">
      <g>
       <use xlink:href="#m81f7d6a3cf" x="557.319115" y="320.4" style="fill: #a9a9a9; stroke: #a9a9a9; stroke-width: 0.8"/>
      </g>
     </g>
     <g id="text_7">
      <!-- 2022-07 -->
      <g style="fill: #a9a9a9" transform="translate(536.427708 334.998438) scale(0.1 -0.1)">
       <use xlink:href="#DejaVuSans-32"/>
       <use xlink:href="#DejaVuSans-30" x="63.623047"/>
       <use xlink:href="#DejaVuSans-32" x="127.246094"/>
       <use xlink:href="#DejaVuSans-32" x="190.869141"/>
       <use xlink:href="#DejaVuSans-2d" x="254.492188"/>
       <use xlink:href="#DejaVuSans-30" x="290.576172"/>
       <use xlink:href="#DejaVuSans-37" x="354.199219"/>
      </g>
     </g>
    </g>
    <g id="xtick_8">
     <g id="line2d_15">
      <path d="M 633.256923 320.4 
L 633.256923 43.2 
" clip-path="url(#pacf9ca1fce)" style="fill: none; stroke-dasharray: 5.12,1.28,0.8,1.28; stroke-dashoffset: 0; stroke: #b0b0b0; stroke-width: 0.8"/>
     </g>
     <g id="line2d_16">
      <g>
       <use xlink:href="#m81f7d6a3cf" x="633.256923" y="320.4" style="fill: #a9a9a9; stroke: #a9a9a9; stroke-width: 0.8"/>
      </g>
     </g>
     <g id="text_8">
      <!-- 2022-09 -->
      <g style="fill: #a9a9a9" transform="translate(612.365517 334.998438) scale(0.1 -0.1)">
       <use xlink:href="#DejaVuSans-32"/>
       <use xlink:href="#DejaVuSans-30" x="63.623047"/>
       <use xlink:href="#DejaVuSans-32" x="127.246094"/>
       <use xlink:href="#DejaVuSans-32" x="190.869141"/>
       <use xlink:href="#DejaVuSans-2d" x="254.492188"/>
       <use xlink:href="#DejaVuSans-30" x="290.576172"/>
       <use xlink:href="#DejaVuSans-39" x="354.199219"/>
      </g>
     </g>
    </g>
    <g id="xtick_9">
     <g id="line2d_17">
      <path d="M 707.969929 320.4 
L 707.969929 43.2 
" clip-path="url(#pacf9ca1fce)" style="fill: none; stroke-dasharray: 5.12,1.28,0.8,1.28; stroke-dashoffset: 0; stroke: #b0b0b0; stroke-width: 0.8"/>
     </g>
     <g id="line2d_18">
      <g>
       <use xlink:href="#m81f7d6a3cf" x="707.969929" y="320.4" style="fill: #a9a9a9; stroke: #a9a9a9; stroke-width: 0.8"/>
      </g>
     </g>
     <g id="text_9">
      <!-- 2022-11 -->
      <g style="fill: #a9a9a9" transform="translate(687.078522 334.998438) scale(0.1 -0.1)">
       <use xlink:href="#DejaVuSans-32"/>
       <use xlink:href="#DejaVuSans-30" x="63.623047"/>
       <use xlink:href="#DejaVuSans-32" x="127.246094"/>
       <use xlink:href="#DejaVuSans-32" x="190.869141"/>
       <use xlink:href="#DejaVuSans-2d" x="254.492188"/>
       <use xlink:href="#DejaVuSans-31" x="290.576172"/>
       <use xlink:href="#DejaVuSans-31" x="354.199219"/>
      </g>
     </g>
    </g>
   </g>
   <g id="matplotlib.axis_2">
    <g id="ytick_1">
     <g id="line2d_19">
      <path d="M 108 307.877443 
L 777.6 307.877443 
" clip-path="url(#pacf9ca1fce)" style="fill: none; stroke-dasharray: 5.12,1.28,0.8,1.28; stroke-dashoffset: 0; stroke: #b0b0b0; stroke-width: 0.8"/>
     </g>
     <g id="line2d_20">
      <defs>
       <path id="mdb049fc105" d="M 0 0 
L -3.5 0 
" style="stroke: #a9a9a9; stroke-width: 0.8"/>
      </defs>
      <g>
       <use xlink:href="#mdb049fc105" x="108" y="307.877443" style="fill: #a9a9a9; stroke: #a9a9a9; stroke-width: 0.8"/>
      </g>
     </g>
     <g id="text_10">
      <!-- 0 -->
      <g style="fill: #a9a9a9" transform="translate(94.6375 311.676662) scale(0.1 -0.1)">
       <use xlink:href="#DejaVuSans-30"/>
      </g>
     </g>
    </g>
    <g id="ytick_2">
     <g id="line2d_21">
      <path d="M 108 276.900184 
L 777.6 276.900184 
" clip-path="url(#pacf9ca1fce)" style="fill: none; stroke-dasharray: 5.12,1.28,0.8,1.28; stroke-dashoffset: 0; stroke: #b0b0b0; stroke-width: 0.8"/>
     </g>
     <g id="line2d_22">
      <g>
       <use xlink:href="#mdb049fc105" x="108" y="276.900184" style="fill: #a9a9a9; stroke: #a9a9a9; stroke-width: 0.8"/>
      </g>
     </g>
     <g id="text_11">
      <!-- 400 -->
      <g style="fill: #a9a9a9" transform="translate(81.9125 280.699403) scale(0.1 -0.1)">
       <defs>
        <path id="DejaVuSans-34" d="M 2419 4116 
L 825 1625 
L 2419 1625 
L 2419 4116 
z
M 2253 4666 
L 3047 4666 
L 3047 1625 
L 3713 1625 
L 3713 1100 
L 3047 1100 
L 3047 0 
L 2419 0 
L 2419 1100 
L 313 1100 
L 313 1709 
L 2253 4666 
z
" transform="scale(0.015625)"/>
       </defs>
       <use xlink:href="#DejaVuSans-34"/>
       <use xlink:href="#DejaVuSans-30" x="63.623047"/>
       <use xlink:href="#DejaVuSans-30" x="127.246094"/>
      </g>
     </g>
    </g>
    <g id="ytick_3">
     <g id="line2d_23">
      <path d="M 108 245.922926 
L 777.6 245.922926 
" clip-path="url(#pacf9ca1fce)" style="fill: none; stroke-dasharray: 5.12,1.28,0.8,1.28; stroke-dashoffset: 0; stroke: #b0b0b0; stroke-width: 0.8"/>
     </g>
     <g id="line2d_24">
      <g>
       <use xlink:href="#mdb049fc105" x="108" y="245.922926" style="fill: #a9a9a9; stroke: #a9a9a9; stroke-width: 0.8"/>
      </g>
     </g>
     <g id="text_12">
      <!-- 800 -->
      <g style="fill: #a9a9a9" transform="translate(81.9125 249.722144) scale(0.1 -0.1)">
       <defs>
        <path id="DejaVuSans-38" d="M 2034 2216 
Q 1584 2216 1326 1975 
Q 1069 1734 1069 1313 
Q 1069 891 1326 650 
Q 1584 409 2034 409 
Q 2484 409 2743 651 
Q 3003 894 3003 1313 
Q 3003 1734 2745 1975 
Q 2488 2216 2034 2216 
z
M 1403 2484 
Q 997 2584 770 2862 
Q 544 3141 544 3541 
Q 544 4100 942 4425 
Q 1341 4750 2034 4750 
Q 2731 4750 3128 4425 
Q 3525 4100 3525 3541 
Q 3525 3141 3298 2862 
Q 3072 2584 2669 2484 
Q 3125 2378 3379 2068 
Q 3634 1759 3634 1313 
Q 3634 634 3220 271 
Q 2806 -91 2034 -91 
Q 1263 -91 848 271 
Q 434 634 434 1313 
Q 434 1759 690 2068 
Q 947 2378 1403 2484 
z
M 1172 3481 
Q 1172 3119 1398 2916 
Q 1625 2713 2034 2713 
Q 2441 2713 2670 2916 
Q 2900 3119 2900 3481 
Q 2900 3844 2670 4047 
Q 2441 4250 2034 4250 
Q 1625 4250 1398 4047 
Q 1172 3844 1172 3481 
z
" transform="scale(0.015625)"/>
       </defs>
       <use xlink:href="#DejaVuSans-38"/>
       <use xlink:href="#DejaVuSans-30" x="63.623047"/>
       <use xlink:href="#DejaVuSans-30" x="127.246094"/>
      </g>
     </g>
    </g>
    <g id="ytick_4">
     <g id="line2d_25">
      <path d="M 108 214.945667 
L 777.6 214.945667 
" clip-path="url(#pacf9ca1fce)" style="fill: none; stroke-dasharray: 5.12,1.28,0.8,1.28; stroke-dashoffset: 0; stroke: #b0b0b0; stroke-width: 0.8"/>
     </g>
     <g id="line2d_26">
      <g>
       <use xlink:href="#mdb049fc105" x="108" y="214.945667" style="fill: #a9a9a9; stroke: #a9a9a9; stroke-width: 0.8"/>
      </g>
     </g>
     <g id="text_13">
      <!-- 1200 -->
      <g style="fill: #a9a9a9" transform="translate(75.55 218.744886) scale(0.1 -0.1)">
       <use xlink:href="#DejaVuSans-31"/>
       <use xlink:href="#DejaVuSans-32" x="63.623047"/>
       <use xlink:href="#DejaVuSans-30" x="127.246094"/>
       <use xlink:href="#DejaVuSans-30" x="190.869141"/>
      </g>
     </g>
    </g>
    <g id="ytick_5">
     <g id="line2d_27">
      <path d="M 108 183.968408 
L 777.6 183.968408 
" clip-path="url(#pacf9ca1fce)" style="fill: none; stroke-dasharray: 5.12,1.28,0.8,1.28; stroke-dashoffset: 0; stroke: #b0b0b0; stroke-width: 0.8"/>
     </g>
     <g id="line2d_28">
      <g>
       <use xlink:href="#mdb049fc105" x="108" y="183.968408" style="fill: #a9a9a9; stroke: #a9a9a9; stroke-width: 0.8"/>
      </g>
     </g>
     <g id="text_14">
      <!-- 1600 -->
      <g style="fill: #a9a9a9" transform="translate(75.55 187.767627) scale(0.1 -0.1)">
       <defs>
        <path id="DejaVuSans-36" d="M 2113 2584 
Q 1688 2584 1439 2293 
Q 1191 2003 1191 1497 
Q 1191 994 1439 701 
Q 1688 409 2113 409 
Q 2538 409 2786 701 
Q 3034 994 3034 1497 
Q 3034 2003 2786 2293 
Q 2538 2584 2113 2584 
z
M 3366 4563 
L 3366 3988 
Q 3128 4100 2886 4159 
Q 2644 4219 2406 4219 
Q 1781 4219 1451 3797 
Q 1122 3375 1075 2522 
Q 1259 2794 1537 2939 
Q 1816 3084 2150 3084 
Q 2853 3084 3261 2657 
Q 3669 2231 3669 1497 
Q 3669 778 3244 343 
Q 2819 -91 2113 -91 
Q 1303 -91 875 529 
Q 447 1150 447 2328 
Q 447 3434 972 4092 
Q 1497 4750 2381 4750 
Q 2619 4750 2861 4703 
Q 3103 4656 3366 4563 
z
" transform="scale(0.015625)"/>
       </defs>
       <use xlink:href="#DejaVuSans-31"/>
       <use xlink:href="#DejaVuSans-36" x="63.623047"/>
       <use xlink:href="#DejaVuSans-30" x="127.246094"/>
       <use xlink:href="#DejaVuSans-30" x="190.869141"/>
      </g>
     </g>
    </g>
    <g id="ytick_6">
     <g id="line2d_29">
      <path d="M 108 152.991149 
L 777.6 152.991149 
" clip-path="url(#pacf9ca1fce)" style="fill: none; stroke-dasharray: 5.12,1.28,0.8,1.28; stroke-dashoffset: 0; stroke: #b0b0b0; stroke-width: 0.8"/>
     </g>
     <g id="line2d_30">
      <g>
       <use xlink:href="#mdb049fc105" x="108" y="152.991149" style="fill: #a9a9a9; stroke: #a9a9a9; stroke-width: 0.8"/>
      </g>
     </g>
     <g id="text_15">
      <!-- 2000 -->
      <g style="fill: #a9a9a9" transform="translate(75.55 156.790368) scale(0.1 -0.1)">
       <use xlink:href="#DejaVuSans-32"/>
       <use xlink:href="#DejaVuSans-30" x="63.623047"/>
       <use xlink:href="#DejaVuSans-30" x="127.246094"/>
       <use xlink:href="#DejaVuSans-30" x="190.869141"/>
      </g>
     </g>
    </g>
    <g id="ytick_7">
     <g id="line2d_31">
      <path d="M 108 122.013891 
L 777.6 122.013891 
" clip-path="url(#pacf9ca1fce)" style="fill: none; stroke-dasharray: 5.12,1.28,0.8,1.28; stroke-dashoffset: 0; stroke: #b0b0b0; stroke-width: 0.8"/>
     </g>
     <g id="line2d_32">
      <g>
       <use xlink:href="#mdb049fc105" x="108" y="122.013891" style="fill: #a9a9a9; stroke: #a9a9a9; stroke-width: 0.8"/>
      </g>
     </g>
     <g id="text_16">
      <!-- 2400 -->
      <g style="fill: #a9a9a9" transform="translate(75.55 125.813109) scale(0.1 -0.1)">
       <use xlink:href="#DejaVuSans-32"/>
       <use xlink:href="#DejaVuSans-34" x="63.623047"/>
       <use xlink:href="#DejaVuSans-30" x="127.246094"/>
       <use xlink:href="#DejaVuSans-30" x="190.869141"/>
      </g>
     </g>
    </g>
    <g id="ytick_8">
     <g id="line2d_33">
      <path d="M 108 91.036632 
L 777.6 91.036632 
" clip-path="url(#pacf9ca1fce)" style="fill: none; stroke-dasharray: 5.12,1.28,0.8,1.28; stroke-dashoffset: 0; stroke: #b0b0b0; stroke-width: 0.8"/>
     </g>
     <g id="line2d_34">
      <g>
       <use xlink:href="#mdb049fc105" x="108" y="91.036632" style="fill: #a9a9a9; stroke: #a9a9a9; stroke-width: 0.8"/>
      </g>
     </g>
     <g id="text_17">
      <!-- 2800 -->
      <g style="fill: #a9a9a9" transform="translate(75.55 94.835851) scale(0.1 -0.1)">
       <use xlink:href="#DejaVuSans-32"/>
       <use xlink:href="#DejaVuSans-38" x="63.623047"/>
       <use xlink:href="#DejaVuSans-30" x="127.246094"/>
       <use xlink:href="#DejaVuSans-30" x="190.869141"/>
      </g>
     </g>
    </g>
    <g id="ytick_9">
     <g id="line2d_35">
      <path d="M 108 60.059373 
L 777.6 60.059373 
" clip-path="url(#pacf9ca1fce)" style="fill: none; stroke-dasharray: 5.12,1.28,0.8,1.28; stroke-dashoffset: 0; stroke: #b0b0b0; stroke-width: 0.8"/>
     </g>
     <g id="line2d_36">
      <g>
       <use xlink:href="#mdb049fc105" x="108" y="60.059373" style="fill: #a9a9a9; stroke: #a9a9a9; stroke-width: 0.8"/>
      </g>
     </g>
     <g id="text_18">
      <!-- 3200 -->
      <g style="fill: #a9a9a9" transform="translate(75.55 63.858592) scale(0.1 -0.1)">
       <use xlink:href="#DejaVuSans-33"/>
       <use xlink:href="#DejaVuSans-32" x="63.623047"/>
       <use xlink:href="#DejaVuSans-30" x="127.246094"/>
       <use xlink:href="#DejaVuSans-30" x="190.869141"/>
      </g>
     </g>
    </g>
   </g>
   <g id="line2d_37">
    <path d="M 138.436364 307.567671 
L 143.335577 307.180455 
L 144.56038 307.025569 
L 145.785184 307.025569 
L 147.009987 306.56091 
L 149.459594 306.406023 
L 158.033217 304.779717 
L 160.482824 304.624831 
L 161.707628 304.392502 
L 165.382038 304.160172 
L 166.606841 303.540627 
L 167.831644 303.230854 
L 169.056448 301.836878 
L 170.281251 301.062446 
L 171.506055 298.351936 
L 172.730858 298.19705 
L 173.955661 297.345175 
L 175.180465 296.880516 
L 176.405268 296.260971 
L 180.079678 293.395575 
L 181.304481 292.77603 
L 183.754088 291.846712 
L 184.978892 290.994837 
L 186.203695 290.530178 
L 188.653302 289.058758 
L 189.878105 288.671543 
L 191.102908 286.812907 
L 192.327712 285.883589 
L 193.552515 285.186601 
L 194.777318 284.644499 
L 199.676532 283.947511 
L 203.350942 283.327966 
L 205.800549 283.173079 
L 207.025352 282.94075 
L 208.250155 282.321205 
L 213.149369 281.933989 
L 216.823779 281.546773 
L 218.048582 281.159557 
L 224.172599 279.99791 
L 226.622206 279.765581 
L 227.847009 279.455808 
L 231.521419 278.991149 
L 232.746223 278.371604 
L 233.971026 278.216718 
L 236.420633 277.364843 
L 238.87024 277.132514 
L 240.095043 276.745298 
L 244.994256 276.04831 
L 246.21906 275.661094 
L 248.668667 275.273878 
L 249.89347 275.273878 
L 256.017487 274.499447 
L 258.467093 273.802459 
L 259.691897 273.492686 
L 262.141504 273.260356 
L 263.366307 273.182913 
L 267.040717 272.485925 
L 268.26552 272.021266 
L 269.490324 270.472403 
L 270.715127 270.007744 
L 271.93993 269.388199 
L 273.164734 269.233313 
L 274.389537 268.92354 
L 275.614341 268.768654 
L 278.063947 267.761893 
L 279.288751 267.68445 
L 285.412768 266.058144 
L 286.637571 266.058144 
L 289.087178 265.748371 
L 291.536784 265.051383 
L 295.211194 264.122065 
L 296.435998 264.044622 
L 298.885605 263.037861 
L 300.110408 262.882975 
L 301.335211 262.340873 
L 303.784818 262.108543 
L 305.009621 262.0311 
L 308.684031 261.411555 
L 311.133638 261.024339 
L 314.808048 260.327351 
L 316.032852 259.940135 
L 317.257655 259.785249 
L 319.707262 258.933374 
L 320.932065 258.236386 
L 322.156868 257.926613 
L 323.381672 257.771727 
L 325.831279 256.997296 
L 328.280885 255.680762 
L 329.505689 254.906331 
L 330.730492 254.751444 
L 331.955295 254.364229 
L 333.180099 254.209342 
L 334.404902 253.89957 
L 335.629706 253.744683 
L 336.854509 253.202581 
L 339.304116 252.815366 
L 340.528919 252.195821 
L 341.753722 251.731162 
L 342.978526 251.421389 
L 344.203329 251.266503 
L 345.428132 250.801844 
L 350.327346 249.872526 
L 352.776953 248.865765 
L 354.001756 248.633436 
L 355.226559 248.168777 
L 356.451363 248.013891 
L 357.676166 247.471789 
L 358.900969 247.162016 
L 361.350576 247.00713 
L 363.800183 246.232698 
L 365.024986 246.077812 
L 366.24979 246.077812 
L 367.474593 245.53571 
L 369.9242 245.148494 
L 371.149003 244.683835 
L 373.59861 244.606392 
L 374.823413 244.451506 
L 376.048217 244.451506 
L 378.497823 244.06429 
L 380.94743 242.902643 
L 383.397037 241.818439 
L 384.62184 241.508666 
L 385.846643 240.734235 
L 387.071447 240.347019 
L 389.521054 239.262815 
L 390.745857 239.030486 
L 391.97066 238.488384 
L 393.195464 238.101168 
L 394.420267 237.326736 
L 395.64507 236.707191 
L 396.869874 235.468101 
L 398.094677 233.532022 
L 399.319481 231.983159 
L 400.544284 231.595943 
L 401.769087 231.595943 
L 402.993891 230.821512 
L 404.218694 229.892194 
L 405.443497 229.582422 
L 406.668301 228.962876 
L 407.893104 228.730547 
L 409.117907 227.646343 
L 410.342711 227.33657 
L 414.017121 225.710264 
L 415.241924 224.316288 
L 416.466728 222.535095 
L 417.691531 221.838107 
L 418.916334 219.902028 
L 420.141138 218.740381 
L 421.365941 218.198279 
L 422.590744 217.888506 
L 423.815548 217.114075 
L 426.265155 215.952428 
L 427.489958 215.100553 
L 428.714761 214.093792 
L 429.939565 213.241918 
L 431.164368 212.544929 
L 432.389171 210.918623 
L 433.613975 208.208113 
L 434.838778 206.504364 
L 436.063581 205.575046 
L 437.288385 205.032944 
L 442.187598 201.083344 
L 444.637205 199.147265 
L 445.862008 198.140504 
L 447.086812 196.436755 
L 448.311615 195.275108 
L 449.536419 194.34579 
L 451.986025 192.719484 
L 454.435632 191.015734 
L 455.660435 190.008974 
L 456.885239 189.699201 
L 458.110042 189.157099 
L 461.784452 187.143577 
L 464.234059 185.98193 
L 466.683666 183.890965 
L 467.908469 182.419545 
L 469.133272 181.567671 
L 470.358076 180.870682 
L 471.582879 180.56091 
L 472.807682 179.941364 
L 474.032486 179.08949 
L 476.482093 177.8504 
L 477.706896 177.61807 
L 478.931699 176.843639 
L 481.381306 175.527105 
L 482.606109 174.365458 
L 483.830913 173.513583 
L 485.055716 173.126368 
L 486.280519 172.351936 
L 487.505323 171.809834 
L 488.730126 171.035403 
L 489.95493 170.570744 
L 491.179733 169.796312 
L 492.404536 168.789551 
L 494.854143 167.937677 
L 496.078946 167.395575 
L 497.30375 167.163245 
L 498.528553 166.388814 
L 499.753357 166.156484 
L 502.202963 165.30461 
L 503.427767 164.917394 
L 505.877373 163.910633 
L 507.102177 163.445974 
L 508.32698 163.136202 
L 509.551783 162.671543 
L 512.00139 162.206884 
L 513.226194 161.12268 
L 514.450997 160.193362 
L 515.6758 159.728703 
L 518.125407 158.41217 
L 520.575014 157.095636 
L 523.02462 156.398648 
L 524.249424 155.46933 
L 525.474227 155.159557 
L 527.923834 153.610695 
L 529.148637 152.991149 
L 532.823047 152.216718 
L 535.272654 151.51973 
L 538.947064 149.506208 
L 540.171868 149.351321 
L 541.396671 148.886663 
L 542.621474 148.731776 
L 543.846278 148.267117 
L 545.071081 147.492686 
L 546.295884 146.563368 
L 547.520688 145.788937 
L 548.745491 145.556607 
L 549.970294 144.937062 
L 551.195098 144.782176 
L 552.419901 144.317517 
L 553.644705 143.465642 
L 554.869508 143.078427 
L 556.094311 142.536325 
L 560.993525 141.219791 
L 562.218328 141.142348 
L 563.443132 140.755132 
L 565.892738 139.670928 
L 567.117542 139.283712 
L 568.342345 139.051383 
L 572.016755 137.425077 
L 574.466362 136.728089 
L 575.691165 136.650645 
L 578.140772 136.108543 
L 579.365575 135.566441 
L 580.590379 135.334112 
L 583.039985 134.327351 
L 586.714395 132.623602 
L 589.164002 131.074739 
L 590.388806 130.764966 
L 591.613609 130.067978 
L 592.838412 129.603319 
L 594.063216 128.906331 
L 596.512822 128.286785 
L 597.737626 127.589797 
L 600.187232 126.583036 
L 602.636839 126.195821 
L 603.861643 125.343946 
L 605.086446 124.724401 
L 606.311249 124.492071 
L 607.536053 124.027412 
L 608.760856 123.407867 
L 609.985659 123.175538 
L 611.210463 122.555993 
L 616.109676 121.859004 
L 618.559283 120.7748 
L 619.784086 119.845482 
L 621.00889 117.754518 
L 622.233693 117.444745 
L 623.458496 117.289859 
L 624.6833 116.980086 
L 627.132907 115.663553 
L 628.35771 115.198894 
L 629.582513 114.579348 
L 630.807317 114.269576 
L 633.256923 113.107929 
L 635.70653 111.946281 
L 638.156137 110.939521 
L 639.38094 110.165089 
L 640.605744 109.70043 
L 644.280154 108.848556 
L 646.72976 107.686908 
L 647.954564 107.144806 
L 649.179367 106.912477 
L 652.853777 105.441057 
L 655.303384 103.969637 
L 656.528187 103.117763 
L 657.752991 102.498218 
L 658.977794 102.265888 
L 660.202597 101.801229 
L 661.427401 101.723786 
L 666.326614 100.09748 
L 667.551418 100.020037 
L 668.776221 99.168162 
L 670.001024 98.780947 
L 671.225828 98.238844 
L 674.900238 97.15464 
L 676.125041 96.457652 
L 677.349845 96.070436 
L 678.574648 95.296005 
L 679.799451 94.753903 
L 681.024255 93.979471 
L 687.148271 91.578734 
L 688.373075 90.881746 
L 689.597878 90.029871 
L 690.822682 88.713337 
L 692.047485 87.938906 
L 693.272288 87.706577 
L 695.721895 85.847941 
L 696.946698 85.383282 
L 698.171502 83.60209 
L 699.396305 83.137431 
L 700.621108 82.285556 
L 701.845912 82.053227 
L 703.070715 81.278795 
L 704.295519 80.736693 
L 705.520322 80.504364 
L 706.745125 79.962262 
L 707.969929 78.955501 
L 709.194732 78.568285 
L 711.644339 76.941979 
L 712.869142 76.167548 
L 714.093945 75.625446 
L 716.543552 74.308912 
L 717.768356 73.76681 
L 718.993159 73.534481 
L 720.217962 73.069822 
L 722.667569 71.598402 
L 723.892372 69.739766 
L 725.117176 68.578119 
L 726.341979 67.803688 
L 727.566783 67.493915 
L 730.016389 66.099939 
L 731.241193 65.867609 
L 732.465996 65.170621 
L 736.140406 63.699201 
L 737.365209 63.079656 
L 739.814816 61.375907 
L 742.264423 58.820283 
L 743.489226 57.890965 
L 747.163636 55.8 
L 747.163636 55.8 
" clip-path="url(#pacf9ca1fce)" style="fill: none; stroke: #1f77b4; stroke-width: 1.5; stroke-linecap: square"/>
   </g>
   <g id="line2d_38">
    <path d="M 139.661167 307.8 
L 142.110774 307.8 
L 144.56038 307.490227 
L 151.909201 307.412784 
L 155.583611 307.257898 
L 159.258021 307.180455 
L 161.707628 307.103012 
L 165.382038 307.103012 
L 166.606841 306.793239 
L 170.281251 306.715796 
L 176.405268 306.018808 
L 186.203695 305.476706 
L 187.428498 305.476706 
L 188.653302 305.244376 
L 192.327712 305.166933 
L 194.777318 304.85716 
L 199.676532 304.85716 
L 200.901335 304.702274 
L 207.025352 304.624831 
L 210.699762 304.469945 
L 221.722993 304.392502 
L 224.172599 304.315058 
L 229.071813 304.237615 
L 232.746223 304.082729 
L 237.645436 304.082729 
L 238.87024 303.927843 
L 242.54465 303.8504 
L 247.443863 303.61807 
L 256.017487 303.540627 
L 258.467093 303.463184 
L 263.366307 303.385741 
L 267.040717 302.921082 
L 273.164734 302.843639 
L 279.288751 302.533866 
L 285.412768 302.456423 
L 289.087178 302.301537 
L 291.536784 302.224093 
L 293.986391 301.991764 
L 298.885605 301.759435 
L 302.560015 301.681991 
L 305.009621 301.604548 
L 307.459228 301.604548 
L 308.684031 301.449662 
L 312.358442 301.449662 
L 314.808048 301.217333 
L 318.482458 301.062446 
L 324.606475 300.985003 
L 329.505689 300.442901 
L 330.730492 300.365458 
L 331.955295 300.133128 
L 336.854509 300.055685 
L 340.528919 299.745913 
L 342.978526 299.513583 
L 349.102543 299.203811 
L 352.776953 299.126368 
L 356.451363 298.971481 
L 357.676166 298.971481 
L 360.125773 298.739152 
L 362.57538 298.661709 
L 363.800183 298.661709 
L 365.024986 298.506822 
L 367.474593 298.429379 
L 373.59861 298.119607 
L 376.048217 298.042163 
L 379.722627 297.887277 
L 383.397037 297.809834 
L 385.846643 297.732391 
L 391.97066 297.654948 
L 396.869874 297.112846 
L 398.094677 297.112846 
L 400.544284 296.880516 
L 402.993891 296.803073 
L 407.893104 296.415857 
L 409.117907 296.260971 
L 410.342711 295.951199 
L 412.792318 295.796312 
L 414.017121 295.48654 
L 417.691531 295.176767 
L 420.141138 294.634665 
L 422.590744 294.557222 
L 425.040351 294.557222 
L 426.265155 294.402336 
L 427.489958 294.402336 
L 429.939565 294.01512 
L 434.838778 293.163245 
L 436.063581 293.163245 
L 437.288385 293.008359 
L 440.962795 292.930916 
L 456.885239 291.924155 
L 458.110042 291.691825 
L 461.784452 291.459496 
L 464.234059 291.07228 
L 466.683666 290.839951 
L 469.133272 290.762508 
L 471.582879 290.762508 
L 472.807682 290.452735 
L 474.032486 290.297849 
L 478.931699 290.220406 
L 481.381306 289.988076 
L 482.606109 289.988076 
L 486.280519 289.445974 
L 487.505323 289.136202 
L 488.730126 288.981315 
L 491.179733 288.903872 
L 497.30375 288.5941 
L 500.97816 288.516656 
L 516.900604 287.587339 
L 519.35021 287.587339 
L 521.799817 287.355009 
L 524.249424 287.355009 
L 527.923834 286.967793 
L 532.823047 286.735464 
L 535.272654 286.658021 
L 536.497457 286.503135 
L 541.396671 286.425691 
L 549.970294 285.961033 
L 556.094311 285.883589 
L 558.543918 285.806146 
L 559.768721 285.806146 
L 560.993525 285.573817 
L 563.443132 285.496374 
L 570.791952 285.418931 
L 574.466362 285.264044 
L 579.365575 285.186601 
L 580.590379 284.954272 
L 587.939199 284.876829 
L 590.388806 284.799385 
L 592.838412 284.721942 
L 595.288019 284.644499 
L 597.737626 284.567056 
L 607.536053 284.024954 
L 613.66007 283.947511 
L 617.33448 283.637738 
L 619.784086 283.405409 
L 622.233693 283.327966 
L 624.6833 283.250522 
L 625.908103 283.095636 
L 629.582513 283.018193 
L 630.807317 282.70842 
L 635.70653 282.476091 
L 646.72976 282.398648 
L 650.40417 282.088875 
L 655.303384 281.546773 
L 657.752991 281.46933 
L 662.652204 281.391887 
L 667.551418 280.849785 
L 673.675434 280.540012 
L 676.125041 280.462569 
L 681.024255 280.23024 
L 685.923468 280.152797 
L 689.597878 279.99791 
L 694.497092 279.920467 
L 698.171502 279.533251 
L 700.621108 279.455808 
L 705.520322 279.378365 
L 709.194732 279.068593 
L 710.419535 278.913706 
L 711.644339 278.913706 
L 712.869142 278.681377 
L 715.318749 278.603934 
L 720.217962 278.52649 
L 722.667569 278.139275 
L 725.117176 278.139275 
L 726.341979 277.906945 
L 728.791586 277.829502 
L 734.915603 277.752059 
L 737.365209 277.442286 
L 738.590013 277.442286 
L 741.03962 277.209957 
L 742.264423 277.209957 
L 743.489226 276.900184 
L 745.938833 276.822741 
L 747.163636 276.667855 
L 747.163636 276.667855 
" clip-path="url(#pacf9ca1fce)" style="fill: none; stroke: #ff7f0e; stroke-width: 1.5; stroke-linecap: square"/>
   </g>
   <g id="patch_3">
    <path d="M 108 320.4 
L 108 43.2 
" style="fill: none; stroke: #a9a9a9; stroke-width: 0.8; stroke-linejoin: miter; stroke-linecap: square"/>
   </g>
   <g id="patch_4">
    <path d="M 777.6 320.4 
L 777.6 43.2 
" style="fill: none"/>
   </g>
   <g id="patch_5">
    <path d="M 108 320.4 
L 777.6 320.4 
" style="fill: none; stroke: #a9a9a9; stroke-width: 0.8; stroke-linejoin: miter; stroke-linecap: square"/>
   </g>
   <g id="patch_6">
    <path d="M 108 43.2 
L 777.6 43.2 
" style="fill: none"/>
   </g>
   <g id="text_19">
    <!-- get_subscribe history -->
    <g style="fill: #a9a9a9" transform="translate(378.6075 37.2) scale(0.12 -0.12)">
     <defs>
      <path id="DejaVuSans-67" d="M 2906 1791 
Q 2906 2416 2648 2759 
Q 2391 3103 1925 3103 
Q 1463 3103 1205 2759 
Q 947 2416 947 1791 
Q 947 1169 1205 825 
Q 1463 481 1925 481 
Q 2391 481 2648 825 
Q 2906 1169 2906 1791 
z
M 3481 434 
Q 3481 -459 3084 -895 
Q 2688 -1331 1869 -1331 
Q 1566 -1331 1297 -1286 
Q 1028 -1241 775 -1147 
L 775 -588 
Q 1028 -725 1275 -790 
Q 1522 -856 1778 -856 
Q 2344 -856 2625 -561 
Q 2906 -266 2906 331 
L 2906 616 
Q 2728 306 2450 153 
Q 2172 0 1784 0 
Q 1141 0 747 490 
Q 353 981 353 1791 
Q 353 2603 747 3093 
Q 1141 3584 1784 3584 
Q 2172 3584 2450 3431 
Q 2728 3278 2906 2969 
L 2906 3500 
L 3481 3500 
L 3481 434 
z
" transform="scale(0.015625)"/>
      <path id="DejaVuSans-65" d="M 3597 1894 
L 3597 1613 
L 953 1613 
Q 991 1019 1311 708 
Q 1631 397 2203 397 
Q 2534 397 2845 478 
Q 3156 559 3463 722 
L 3463 178 
Q 3153 47 2828 -22 
Q 2503 -91 2169 -91 
Q 1331 -91 842 396 
Q 353 884 353 1716 
Q 353 2575 817 3079 
Q 1281 3584 2069 3584 
Q 2775 3584 3186 3129 
Q 3597 2675 3597 1894 
z
M 3022 2063 
Q 3016 2534 2758 2815 
Q 2500 3097 2075 3097 
Q 1594 3097 1305 2825 
Q 1016 2553 972 2059 
L 3022 2063 
z
" transform="scale(0.015625)"/>
      <path id="DejaVuSans-74" d="M 1172 4494 
L 1172 3500 
L 2356 3500 
L 2356 3053 
L 1172 3053 
L 1172 1153 
Q 1172 725 1289 603 
Q 1406 481 1766 481 
L 2356 481 
L 2356 0 
L 1766 0 
Q 1100 0 847 248 
Q 594 497 594 1153 
L 594 3053 
L 172 3053 
L 172 3500 
L 594 3500 
L 594 4494 
L 1172 4494 
z
" transform="scale(0.015625)"/>
      <path id="DejaVuSans-5f" d="M 3263 -1063 
L 3263 -1509 
L -63 -1509 
L -63 -1063 
L 3263 -1063 
z
" transform="scale(0.015625)"/>
      <path id="DejaVuSans-73" d="M 2834 3397 
L 2834 2853 
Q 2591 2978 2328 3040 
Q 2066 3103 1784 3103 
Q 1356 3103 1142 2972 
Q 928 2841 928 2578 
Q 928 2378 1081 2264 
Q 1234 2150 1697 2047 
L 1894 2003 
Q 2506 1872 2764 1633 
Q 3022 1394 3022 966 
Q 3022 478 2636 193 
Q 2250 -91 1575 -91 
Q 1294 -91 989 -36 
Q 684 19 347 128 
L 347 722 
Q 666 556 975 473 
Q 1284 391 1588 391 
Q 1994 391 2212 530 
Q 2431 669 2431 922 
Q 2431 1156 2273 1281 
Q 2116 1406 1581 1522 
L 1381 1569 
Q 847 1681 609 1914 
Q 372 2147 372 2553 
Q 372 3047 722 3315 
Q 1072 3584 1716 3584 
Q 2034 3584 2315 3537 
Q 2597 3491 2834 3397 
z
" transform="scale(0.015625)"/>
      <path id="DejaVuSans-75" d="M 544 1381 
L 544 3500 
L 1119 3500 
L 1119 1403 
Q 1119 906 1312 657 
Q 1506 409 1894 409 
Q 2359 409 2629 706 
Q 2900 1003 2900 1516 
L 2900 3500 
L 3475 3500 
L 3475 0 
L 2900 0 
L 2900 538 
Q 2691 219 2414 64 
Q 2138 -91 1772 -91 
Q 1169 -91 856 284 
Q 544 659 544 1381 
z
M 1991 3584 
L 1991 3584 
z
" transform="scale(0.015625)"/>
      <path id="DejaVuSans-62" d="M 3116 1747 
Q 3116 2381 2855 2742 
Q 2594 3103 2138 3103 
Q 1681 3103 1420 2742 
Q 1159 2381 1159 1747 
Q 1159 1113 1420 752 
Q 1681 391 2138 391 
Q 2594 391 2855 752 
Q 3116 1113 3116 1747 
z
M 1159 2969 
Q 1341 3281 1617 3432 
Q 1894 3584 2278 3584 
Q 2916 3584 3314 3078 
Q 3713 2572 3713 1747 
Q 3713 922 3314 415 
Q 2916 -91 2278 -91 
Q 1894 -91 1617 61 
Q 1341 213 1159 525 
L 1159 0 
L 581 0 
L 581 4863 
L 1159 4863 
L 1159 2969 
z
" transform="scale(0.015625)"/>
      <path id="DejaVuSans-63" d="M 3122 3366 
L 3122 2828 
Q 2878 2963 2633 3030 
Q 2388 3097 2138 3097 
Q 1578 3097 1268 2742 
Q 959 2388 959 1747 
Q 959 1106 1268 751 
Q 1578 397 2138 397 
Q 2388 397 2633 464 
Q 2878 531 3122 666 
L 3122 134 
Q 2881 22 2623 -34 
Q 2366 -91 2075 -91 
Q 1284 -91 818 406 
Q 353 903 353 1747 
Q 353 2603 823 3093 
Q 1294 3584 2113 3584 
Q 2378 3584 2631 3529 
Q 2884 3475 3122 3366 
z
" transform="scale(0.015625)"/>
      <path id="DejaVuSans-72" d="M 2631 2963 
Q 2534 3019 2420 3045 
Q 2306 3072 2169 3072 
Q 1681 3072 1420 2755 
Q 1159 2438 1159 1844 
L 1159 0 
L 581 0 
L 581 3500 
L 1159 3500 
L 1159 2956 
Q 1341 3275 1631 3429 
Q 1922 3584 2338 3584 
Q 2397 3584 2469 3576 
Q 2541 3569 2628 3553 
L 2631 2963 
z
" transform="scale(0.015625)"/>
      <path id="DejaVuSans-69" d="M 603 3500 
L 1178 3500 
L 1178 0 
L 603 0 
L 603 3500 
z
M 603 4863 
L 1178 4863 
L 1178 4134 
L 603 4134 
L 603 4863 
z
" transform="scale(0.015625)"/>
      <path id="DejaVuSans-20" transform="scale(0.015625)"/>
      <path id="DejaVuSans-68" d="M 3513 2113 
L 3513 0 
L 2938 0 
L 2938 2094 
Q 2938 2591 2744 2837 
Q 2550 3084 2163 3084 
Q 1697 3084 1428 2787 
Q 1159 2491 1159 1978 
L 1159 0 
L 581 0 
L 581 4863 
L 1159 4863 
L 1159 2956 
Q 1366 3272 1645 3428 
Q 1925 3584 2291 3584 
Q 2894 3584 3203 3211 
Q 3513 2838 3513 2113 
z
" transform="scale(0.015625)"/>
      <path id="DejaVuSans-6f" d="M 1959 3097 
Q 1497 3097 1228 2736 
Q 959 2375 959 1747 
Q 959 1119 1226 758 
Q 1494 397 1959 397 
Q 2419 397 2687 759 
Q 2956 1122 2956 1747 
Q 2956 2369 2687 2733 
Q 2419 3097 1959 3097 
z
M 1959 3584 
Q 2709 3584 3137 3096 
Q 3566 2609 3566 1747 
Q 3566 888 3137 398 
Q 2709 -91 1959 -91 
Q 1206 -91 779 398 
Q 353 888 353 1747 
Q 353 2609 779 3096 
Q 1206 3584 1959 3584 
z
" transform="scale(0.015625)"/>
      <path id="DejaVuSans-79" d="M 2059 -325 
Q 1816 -950 1584 -1140 
Q 1353 -1331 966 -1331 
L 506 -1331 
L 506 -850 
L 844 -850 
Q 1081 -850 1212 -737 
Q 1344 -625 1503 -206 
L 1606 56 
L 191 3500 
L 800 3500 
L 1894 763 
L 2988 3500 
L 3597 3500 
L 2059 -325 
z
" transform="scale(0.015625)"/>
     </defs>
     <use xlink:href="#DejaVuSans-67"/>
     <use xlink:href="#DejaVuSans-65" x="63.476562"/>
     <use xlink:href="#DejaVuSans-74" x="125"/>
     <use xlink:href="#DejaVuSans-5f" x="164.208984"/>
     <use xlink:href="#DejaVuSans-73" x="214.208984"/>
     <use xlink:href="#DejaVuSans-75" x="266.308594"/>
     <use xlink:href="#DejaVuSans-62" x="329.6875"/>
     <use xlink:href="#DejaVuSans-73" x="393.164062"/>
     <use xlink:href="#DejaVuSans-63" x="445.263672"/>
     <use xlink:href="#DejaVuSans-72" x="500.244141"/>
     <use xlink:href="#DejaVuSans-69" x="541.357422"/>
     <use xlink:href="#DejaVuSans-62" x="569.140625"/>
     <use xlink:href="#DejaVuSans-65" x="632.617188"/>
     <use xlink:href="#DejaVuSans-20" x="694.140625"/>
     <use xlink:href="#DejaVuSans-68" x="725.927734"/>
     <use xlink:href="#DejaVuSans-69" x="789.306641"/>
     <use xlink:href="#DejaVuSans-73" x="817.089844"/>
     <use xlink:href="#DejaVuSans-74" x="869.189453"/>
     <use xlink:href="#DejaVuSans-6f" x="908.398438"/>
     <use xlink:href="#DejaVuSans-72" x="969.580078"/>
     <use xlink:href="#DejaVuSans-79" x="1010.693359"/>
    </g>
   </g>
   <g id="legend_1">
    <g id="line2d_39">
     <path d="M 815.08 328.498438 
L 825.08 328.498438 
L 835.08 328.498438 
" style="fill: none; stroke: #1f77b4; stroke-width: 1.5; stroke-linecap: square"/>
    </g>
    <g id="text_20">
     <!-- star -->
     <g style="fill: #a9a9a9" transform="translate(843.08 331.998438) scale(0.1 -0.1)">
      <defs>
       <path id="DejaVuSans-61" d="M 2194 1759 
Q 1497 1759 1228 1600 
Q 959 1441 959 1056 
Q 959 750 1161 570 
Q 1363 391 1709 391 
Q 2188 391 2477 730 
Q 2766 1069 2766 1631 
L 2766 1759 
L 2194 1759 
z
M 3341 1997 
L 3341 0 
L 2766 0 
L 2766 531 
Q 2569 213 2275 61 
Q 1981 -91 1556 -91 
Q 1019 -91 701 211 
Q 384 513 384 1019 
Q 384 1609 779 1909 
Q 1175 2209 1959 2209 
L 2766 2209 
L 2766 2266 
Q 2766 2663 2505 2880 
Q 2244 3097 1772 3097 
Q 1472 3097 1187 3025 
Q 903 2953 641 2809 
L 641 3341 
Q 956 3463 1253 3523 
Q 1550 3584 1831 3584 
Q 2591 3584 2966 3190 
Q 3341 2797 3341 1997 
z
" transform="scale(0.015625)"/>
      </defs>
      <use xlink:href="#DejaVuSans-73"/>
      <use xlink:href="#DejaVuSans-74" x="52.099609"/>
      <use xlink:href="#DejaVuSans-61" x="91.308594"/>
      <use xlink:href="#DejaVuSans-72" x="152.587891"/>
     </g>
    </g>
    <g id="line2d_40">
     <path d="M 815.08 343.176562 
L 825.08 343.176562 
L 835.08 343.176562 
" style="fill: none; stroke: #ff7f0e; stroke-width: 1.5; stroke-linecap: square"/>
    </g>
    <g id="text_21">
     <!-- fork -->
     <g style="fill: #a9a9a9" transform="translate(843.08 346.676562) scale(0.1 -0.1)">
      <defs>
       <path id="DejaVuSans-66" d="M 2375 4863 
L 2375 4384 
L 1825 4384 
Q 1516 4384 1395 4259 
Q 1275 4134 1275 3809 
L 1275 3500 
L 2222 3500 
L 2222 3053 
L 1275 3053 
L 1275 0 
L 697 0 
L 697 3053 
L 147 3053 
L 147 3500 
L 697 3500 
L 697 3744 
Q 697 4328 969 4595 
Q 1241 4863 1831 4863 
L 2375 4863 
z
" transform="scale(0.015625)"/>
       <path id="DejaVuSans-6b" d="M 581 4863 
L 1159 4863 
L 1159 1991 
L 2875 3500 
L 3609 3500 
L 1753 1863 
L 3688 0 
L 2938 0 
L 1159 1709 
L 1159 0 
L 581 0 
L 581 4863 
z
" transform="scale(0.015625)"/>
      </defs>
      <use xlink:href="#DejaVuSans-66"/>
      <use xlink:href="#DejaVuSans-6f" x="35.205078"/>
      <use xlink:href="#DejaVuSans-72" x="96.386719"/>
      <use xlink:href="#DejaVuSans-6b" x="137.5"/>
     </g>
    </g>
   </g>
  </g>
 </g>
 <defs>
  <clipPath id="pacf9ca1fce">
   <rect x="108" y="43.2" width="669.6" height="277.2"/>
  </clipPath>
 </defs>
</svg>
