<?xml version="1.0" encoding="utf-8" standalone="no"?>
<!DOCTYPE svg PUBLIC "-//W3C//DTD SVG 1.1//EN"
  "http://www.w3.org/Graphics/SVG/1.1/DTD/svg11.dtd">
<svg xmlns:xlink="http://www.w3.org/1999/xlink" width="864pt" height="360pt" viewBox="0 0 864 360" xmlns="http://www.w3.org/2000/svg" version="1.1">
 <metadata>
  <rdf:RDF xmlns:dc="http://purl.org/dc/elements/1.1/" xmlns:cc="http://creativecommons.org/ns#" xmlns:rdf="http://www.w3.org/1999/02/22-rdf-syntax-ns#">
   <cc:Work>
    <dc:type rdf:resource="http://purl.org/dc/dcmitype/StillImage"/>
    <dc:date>2022-12-02T08:57:55.435189</dc:date>
    <dc:format>image/svg+xml</dc:format>
    <dc:creator>
     <cc:Agent>
      <dc:title>Matplotlib v3.6.2, https://matplotlib.org/</dc:title>
     </cc:Agent>
    </dc:creator>
   </cc:Work>
  </rdf:RDF>
 </metadata>
 <defs>
  <style type="text/css">*{stroke-linejoin: round; stroke-linecap: butt}</style>
 </defs>
 <g id="figure_1">
  <g id="patch_1">
   <path d="M 0 360 
L 864 360 
L 864 0 
L 0 0 
L 0 360 
z
" style="fill: none; opacity: 0"/>
  </g>
  <g id="axes_1">
   <g id="patch_2">
    <path d="M 108 320.4 
L 777.6 320.4 
L 777.6 43.2 
L 108 43.2 
L 108 320.4 
z
" style="fill: none; opacity: 0"/>
   </g>
   <g id="matplotlib.axis_1">
    <g id="xtick_1">
     <g id="line2d_1">
      <path d="M 110.209091 320.4 
L 110.209091 43.2 
" clip-path="url(#p1d5961d09d)" style="fill: none; stroke-dasharray: 5.12,1.28,0.8,1.28; stroke-dashoffset: 0; stroke: #b0b0b0; stroke-width: 0.8"/>
     </g>
     <g id="line2d_2">
      <defs>
       <path id="m67ed52a4cd" d="M 0 0 
L 0 3.5 
" style="stroke: #a9a9a9; stroke-width: 0.8"/>
      </defs>
      <g>
       <use xlink:href="#m67ed52a4cd" x="110.209091" y="320.4" style="fill: #a9a9a9; stroke: #a9a9a9; stroke-width: 0.8"/>
      </g>
     </g>
     <g id="text_1">
      <!-- 2021-07 -->
      <g style="fill: #a9a9a9" transform="translate(89.317685 334.998438) scale(0.1 -0.1)">
       <defs>
        <path id="DejaVuSans-32" d="M 1228 531 
L 3431 531 
L 3431 0 
L 469 0 
L 469 531 
Q 828 903 1448 1529 
Q 2069 2156 2228 2338 
Q 2531 2678 2651 2914 
Q 2772 3150 2772 3378 
Q 2772 3750 2511 3984 
Q 2250 4219 1831 4219 
Q 1534 4219 1204 4116 
Q 875 4013 500 3803 
L 500 4441 
Q 881 4594 1212 4672 
Q 1544 4750 1819 4750 
Q 2544 4750 2975 4387 
Q 3406 4025 3406 3419 
Q 3406 3131 3298 2873 
Q 3191 2616 2906 2266 
Q 2828 2175 2409 1742 
Q 1991 1309 1228 531 
z
" transform="scale(0.015625)"/>
        <path id="DejaVuSans-30" d="M 2034 4250 
Q 1547 4250 1301 3770 
Q 1056 3291 1056 2328 
Q 1056 1369 1301 889 
Q 1547 409 2034 409 
Q 2525 409 2770 889 
Q 3016 1369 3016 2328 
Q 3016 3291 2770 3770 
Q 2525 4250 2034 4250 
z
M 2034 4750 
Q 2819 4750 3233 4129 
Q 3647 3509 3647 2328 
Q 3647 1150 3233 529 
Q 2819 -91 2034 -91 
Q 1250 -91 836 529 
Q 422 1150 422 2328 
Q 422 3509 836 4129 
Q 1250 4750 2034 4750 
z
" transform="scale(0.015625)"/>
        <path id="DejaVuSans-31" d="M 794 531 
L 1825 531 
L 1825 4091 
L 703 3866 
L 703 4441 
L 1819 4666 
L 2450 4666 
L 2450 531 
L 3481 531 
L 3481 0 
L 794 0 
L 794 531 
z
" transform="scale(0.015625)"/>
        <path id="DejaVuSans-2d" d="M 313 2009 
L 1997 2009 
L 1997 1497 
L 313 1497 
L 313 2009 
z
" transform="scale(0.015625)"/>
        <path id="DejaVuSans-37" d="M 525 4666 
L 3525 4666 
L 3525 4397 
L 1831 0 
L 1172 0 
L 2766 4134 
L 525 4134 
L 525 4666 
z
" transform="scale(0.015625)"/>
       </defs>
       <use xlink:href="#DejaVuSans-32"/>
       <use xlink:href="#DejaVuSans-30" x="63.623047"/>
       <use xlink:href="#DejaVuSans-32" x="127.246094"/>
       <use xlink:href="#DejaVuSans-31" x="190.869141"/>
       <use xlink:href="#DejaVuSans-2d" x="254.492188"/>
       <use xlink:href="#DejaVuSans-30" x="290.576172"/>
       <use xlink:href="#DejaVuSans-37" x="354.199219"/>
      </g>
     </g>
    </g>
    <g id="xtick_2">
     <g id="line2d_3">
      <path d="M 186.3 320.4 
L 186.3 43.2 
" clip-path="url(#p1d5961d09d)" style="fill: none; stroke-dasharray: 5.12,1.28,0.8,1.28; stroke-dashoffset: 0; stroke: #b0b0b0; stroke-width: 0.8"/>
     </g>
     <g id="line2d_4">
      <g>
       <use xlink:href="#m67ed52a4cd" x="186.3" y="320.4" style="fill: #a9a9a9; stroke: #a9a9a9; stroke-width: 0.8"/>
      </g>
     </g>
     <g id="text_2">
      <!-- 2021-09 -->
      <g style="fill: #a9a9a9" transform="translate(165.408594 334.998438) scale(0.1 -0.1)">
       <defs>
        <path id="DejaVuSans-39" d="M 703 97 
L 703 672 
Q 941 559 1184 500 
Q 1428 441 1663 441 
Q 2288 441 2617 861 
Q 2947 1281 2994 2138 
Q 2813 1869 2534 1725 
Q 2256 1581 1919 1581 
Q 1219 1581 811 2004 
Q 403 2428 403 3163 
Q 403 3881 828 4315 
Q 1253 4750 1959 4750 
Q 2769 4750 3195 4129 
Q 3622 3509 3622 2328 
Q 3622 1225 3098 567 
Q 2575 -91 1691 -91 
Q 1453 -91 1209 -44 
Q 966 3 703 97 
z
M 1959 2075 
Q 2384 2075 2632 2365 
Q 2881 2656 2881 3163 
Q 2881 3666 2632 3958 
Q 2384 4250 1959 4250 
Q 1534 4250 1286 3958 
Q 1038 3666 1038 3163 
Q 1038 2656 1286 2365 
Q 1534 2075 1959 2075 
z
" transform="scale(0.015625)"/>
       </defs>
       <use xlink:href="#DejaVuSans-32"/>
       <use xlink:href="#DejaVuSans-30" x="63.623047"/>
       <use xlink:href="#DejaVuSans-32" x="127.246094"/>
       <use xlink:href="#DejaVuSans-31" x="190.869141"/>
       <use xlink:href="#DejaVuSans-2d" x="254.492188"/>
       <use xlink:href="#DejaVuSans-30" x="290.576172"/>
       <use xlink:href="#DejaVuSans-39" x="354.199219"/>
      </g>
     </g>
    </g>
    <g id="xtick_3">
     <g id="line2d_5">
      <path d="M 261.163636 320.4 
L 261.163636 43.2 
" clip-path="url(#p1d5961d09d)" style="fill: none; stroke-dasharray: 5.12,1.28,0.8,1.28; stroke-dashoffset: 0; stroke: #b0b0b0; stroke-width: 0.8"/>
     </g>
     <g id="line2d_6">
      <g>
       <use xlink:href="#m67ed52a4cd" x="261.163636" y="320.4" style="fill: #a9a9a9; stroke: #a9a9a9; stroke-width: 0.8"/>
      </g>
     </g>
     <g id="text_3">
      <!-- 2021-11 -->
      <g style="fill: #a9a9a9" transform="translate(240.27223 334.998438) scale(0.1 -0.1)">
       <use xlink:href="#DejaVuSans-32"/>
       <use xlink:href="#DejaVuSans-30" x="63.623047"/>
       <use xlink:href="#DejaVuSans-32" x="127.246094"/>
       <use xlink:href="#DejaVuSans-31" x="190.869141"/>
       <use xlink:href="#DejaVuSans-2d" x="254.492188"/>
       <use xlink:href="#DejaVuSans-31" x="290.576172"/>
       <use xlink:href="#DejaVuSans-31" x="354.199219"/>
      </g>
     </g>
    </g>
    <g id="xtick_4">
     <g id="line2d_7">
      <path d="M 336.027273 320.4 
L 336.027273 43.2 
" clip-path="url(#p1d5961d09d)" style="fill: none; stroke-dasharray: 5.12,1.28,0.8,1.28; stroke-dashoffset: 0; stroke: #b0b0b0; stroke-width: 0.8"/>
     </g>
     <g id="line2d_8">
      <g>
       <use xlink:href="#m67ed52a4cd" x="336.027273" y="320.4" style="fill: #a9a9a9; stroke: #a9a9a9; stroke-width: 0.8"/>
      </g>
     </g>
     <g id="text_4">
      <!-- 2022-01 -->
      <g style="fill: #a9a9a9" transform="translate(315.135866 334.998438) scale(0.1 -0.1)">
       <use xlink:href="#DejaVuSans-32"/>
       <use xlink:href="#DejaVuSans-30" x="63.623047"/>
       <use xlink:href="#DejaVuSans-32" x="127.246094"/>
       <use xlink:href="#DejaVuSans-32" x="190.869141"/>
       <use xlink:href="#DejaVuSans-2d" x="254.492188"/>
       <use xlink:href="#DejaVuSans-30" x="290.576172"/>
       <use xlink:href="#DejaVuSans-31" x="354.199219"/>
      </g>
     </g>
    </g>
    <g id="xtick_5">
     <g id="line2d_9">
      <path d="M 408.436364 320.4 
L 408.436364 43.2 
" clip-path="url(#p1d5961d09d)" style="fill: none; stroke-dasharray: 5.12,1.28,0.8,1.28; stroke-dashoffset: 0; stroke: #b0b0b0; stroke-width: 0.8"/>
     </g>
     <g id="line2d_10">
      <g>
       <use xlink:href="#m67ed52a4cd" x="408.436364" y="320.4" style="fill: #a9a9a9; stroke: #a9a9a9; stroke-width: 0.8"/>
      </g>
     </g>
     <g id="text_5">
      <!-- 2022-03 -->
      <g style="fill: #a9a9a9" transform="translate(387.544957 334.998438) scale(0.1 -0.1)">
       <defs>
        <path id="DejaVuSans-33" d="M 2597 2516 
Q 3050 2419 3304 2112 
Q 3559 1806 3559 1356 
Q 3559 666 3084 287 
Q 2609 -91 1734 -91 
Q 1441 -91 1130 -33 
Q 819 25 488 141 
L 488 750 
Q 750 597 1062 519 
Q 1375 441 1716 441 
Q 2309 441 2620 675 
Q 2931 909 2931 1356 
Q 2931 1769 2642 2001 
Q 2353 2234 1838 2234 
L 1294 2234 
L 1294 2753 
L 1863 2753 
Q 2328 2753 2575 2939 
Q 2822 3125 2822 3475 
Q 2822 3834 2567 4026 
Q 2313 4219 1838 4219 
Q 1578 4219 1281 4162 
Q 984 4106 628 3988 
L 628 4550 
Q 988 4650 1302 4700 
Q 1616 4750 1894 4750 
Q 2613 4750 3031 4423 
Q 3450 4097 3450 3541 
Q 3450 3153 3228 2886 
Q 3006 2619 2597 2516 
z
" transform="scale(0.015625)"/>
       </defs>
       <use xlink:href="#DejaVuSans-32"/>
       <use xlink:href="#DejaVuSans-30" x="63.623047"/>
       <use xlink:href="#DejaVuSans-32" x="127.246094"/>
       <use xlink:href="#DejaVuSans-32" x="190.869141"/>
       <use xlink:href="#DejaVuSans-2d" x="254.492188"/>
       <use xlink:href="#DejaVuSans-30" x="290.576172"/>
       <use xlink:href="#DejaVuSans-33" x="354.199219"/>
      </g>
     </g>
    </g>
    <g id="xtick_6">
     <g id="line2d_11">
      <path d="M 483.3 320.4 
L 483.3 43.2 
" clip-path="url(#p1d5961d09d)" style="fill: none; stroke-dasharray: 5.12,1.28,0.8,1.28; stroke-dashoffset: 0; stroke: #b0b0b0; stroke-width: 0.8"/>
     </g>
     <g id="line2d_12">
      <g>
       <use xlink:href="#m67ed52a4cd" x="483.3" y="320.4" style="fill: #a9a9a9; stroke: #a9a9a9; stroke-width: 0.8"/>
      </g>
     </g>
     <g id="text_6">
      <!-- 2022-05 -->
      <g style="fill: #a9a9a9" transform="translate(462.408594 334.998438) scale(0.1 -0.1)">
       <defs>
        <path id="DejaVuSans-35" d="M 691 4666 
L 3169 4666 
L 3169 4134 
L 1269 4134 
L 1269 2991 
Q 1406 3038 1543 3061 
Q 1681 3084 1819 3084 
Q 2600 3084 3056 2656 
Q 3513 2228 3513 1497 
Q 3513 744 3044 326 
Q 2575 -91 1722 -91 
Q 1428 -91 1123 -41 
Q 819 9 494 109 
L 494 744 
Q 775 591 1075 516 
Q 1375 441 1709 441 
Q 2250 441 2565 725 
Q 2881 1009 2881 1497 
Q 2881 1984 2565 2268 
Q 2250 2553 1709 2553 
Q 1456 2553 1204 2497 
Q 953 2441 691 2322 
L 691 4666 
z
" transform="scale(0.015625)"/>
       </defs>
       <use xlink:href="#DejaVuSans-32"/>
       <use xlink:href="#DejaVuSans-30" x="63.623047"/>
       <use xlink:href="#DejaVuSans-32" x="127.246094"/>
       <use xlink:href="#DejaVuSans-32" x="190.869141"/>
       <use xlink:href="#DejaVuSans-2d" x="254.492188"/>
       <use xlink:href="#DejaVuSans-30" x="290.576172"/>
       <use xlink:href="#DejaVuSans-35" x="354.199219"/>
      </g>
     </g>
    </g>
    <g id="xtick_7">
     <g id="line2d_13">
      <path d="M 558.163636 320.4 
L 558.163636 43.2 
" clip-path="url(#p1d5961d09d)" style="fill: none; stroke-dasharray: 5.12,1.28,0.8,1.28; stroke-dashoffset: 0; stroke: #b0b0b0; stroke-width: 0.8"/>
     </g>
     <g id="line2d_14">
      <g>
       <use xlink:href="#m67ed52a4cd" x="558.163636" y="320.4" style="fill: #a9a9a9; stroke: #a9a9a9; stroke-width: 0.8"/>
      </g>
     </g>
     <g id="text_7">
      <!-- 2022-07 -->
      <g style="fill: #a9a9a9" transform="translate(537.27223 334.998438) scale(0.1 -0.1)">
       <use xlink:href="#DejaVuSans-32"/>
       <use xlink:href="#DejaVuSans-30" x="63.623047"/>
       <use xlink:href="#DejaVuSans-32" x="127.246094"/>
       <use xlink:href="#DejaVuSans-32" x="190.869141"/>
       <use xlink:href="#DejaVuSans-2d" x="254.492188"/>
       <use xlink:href="#DejaVuSans-30" x="290.576172"/>
       <use xlink:href="#DejaVuSans-37" x="354.199219"/>
      </g>
     </g>
    </g>
    <g id="xtick_8">
     <g id="line2d_15">
      <path d="M 634.254545 320.4 
L 634.254545 43.2 
" clip-path="url(#p1d5961d09d)" style="fill: none; stroke-dasharray: 5.12,1.28,0.8,1.28; stroke-dashoffset: 0; stroke: #b0b0b0; stroke-width: 0.8"/>
     </g>
     <g id="line2d_16">
      <g>
       <use xlink:href="#m67ed52a4cd" x="634.254545" y="320.4" style="fill: #a9a9a9; stroke: #a9a9a9; stroke-width: 0.8"/>
      </g>
     </g>
     <g id="text_8">
      <!-- 2022-09 -->
      <g style="fill: #a9a9a9" transform="translate(613.363139 334.998438) scale(0.1 -0.1)">
       <use xlink:href="#DejaVuSans-32"/>
       <use xlink:href="#DejaVuSans-30" x="63.623047"/>
       <use xlink:href="#DejaVuSans-32" x="127.246094"/>
       <use xlink:href="#DejaVuSans-32" x="190.869141"/>
       <use xlink:href="#DejaVuSans-2d" x="254.492188"/>
       <use xlink:href="#DejaVuSans-30" x="290.576172"/>
       <use xlink:href="#DejaVuSans-39" x="354.199219"/>
      </g>
     </g>
    </g>
    <g id="xtick_9">
     <g id="line2d_17">
      <path d="M 709.118182 320.4 
L 709.118182 43.2 
" clip-path="url(#p1d5961d09d)" style="fill: none; stroke-dasharray: 5.12,1.28,0.8,1.28; stroke-dashoffset: 0; stroke: #b0b0b0; stroke-width: 0.8"/>
     </g>
     <g id="line2d_18">
      <g>
       <use xlink:href="#m67ed52a4cd" x="709.118182" y="320.4" style="fill: #a9a9a9; stroke: #a9a9a9; stroke-width: 0.8"/>
      </g>
     </g>
     <g id="text_9">
      <!-- 2022-11 -->
      <g style="fill: #a9a9a9" transform="translate(688.226776 334.998438) scale(0.1 -0.1)">
       <use xlink:href="#DejaVuSans-32"/>
       <use xlink:href="#DejaVuSans-30" x="63.623047"/>
       <use xlink:href="#DejaVuSans-32" x="127.246094"/>
       <use xlink:href="#DejaVuSans-32" x="190.869141"/>
       <use xlink:href="#DejaVuSans-2d" x="254.492188"/>
       <use xlink:href="#DejaVuSans-31" x="290.576172"/>
       <use xlink:href="#DejaVuSans-31" x="354.199219"/>
      </g>
     </g>
    </g>
   </g>
   <g id="matplotlib.axis_2">
    <g id="ytick_1">
     <g id="line2d_19">
      <path d="M 108 307.877778 
L 777.6 307.877778 
" clip-path="url(#p1d5961d09d)" style="fill: none; stroke-dasharray: 5.12,1.28,0.8,1.28; stroke-dashoffset: 0; stroke: #b0b0b0; stroke-width: 0.8"/>
     </g>
     <g id="line2d_20">
      <defs>
       <path id="m9a7355ac33" d="M 0 0 
L -3.5 0 
" style="stroke: #a9a9a9; stroke-width: 0.8"/>
      </defs>
      <g>
       <use xlink:href="#m9a7355ac33" x="108" y="307.877778" style="fill: #a9a9a9; stroke: #a9a9a9; stroke-width: 0.8"/>
      </g>
     </g>
     <g id="text_10">
      <!-- 0 -->
      <g style="fill: #a9a9a9" transform="translate(94.6375 311.676997) scale(0.1 -0.1)">
       <use xlink:href="#DejaVuSans-30"/>
      </g>
     </g>
    </g>
    <g id="ytick_2">
     <g id="line2d_21">
      <path d="M 108 276.766667 
L 777.6 276.766667 
" clip-path="url(#p1d5961d09d)" style="fill: none; stroke-dasharray: 5.12,1.28,0.8,1.28; stroke-dashoffset: 0; stroke: #b0b0b0; stroke-width: 0.8"/>
     </g>
     <g id="line2d_22">
      <g>
       <use xlink:href="#m9a7355ac33" x="108" y="276.766667" style="fill: #a9a9a9; stroke: #a9a9a9; stroke-width: 0.8"/>
      </g>
     </g>
     <g id="text_11">
      <!-- 400 -->
      <g style="fill: #a9a9a9" transform="translate(81.9125 280.565885) scale(0.1 -0.1)">
       <defs>
        <path id="DejaVuSans-34" d="M 2419 4116 
L 825 1625 
L 2419 1625 
L 2419 4116 
z
M 2253 4666 
L 3047 4666 
L 3047 1625 
L 3713 1625 
L 3713 1100 
L 3047 1100 
L 3047 0 
L 2419 0 
L 2419 1100 
L 313 1100 
L 313 1709 
L 2253 4666 
z
" transform="scale(0.015625)"/>
       </defs>
       <use xlink:href="#DejaVuSans-34"/>
       <use xlink:href="#DejaVuSans-30" x="63.623047"/>
       <use xlink:href="#DejaVuSans-30" x="127.246094"/>
      </g>
     </g>
    </g>
    <g id="ytick_3">
     <g id="line2d_23">
      <path d="M 108 245.655556 
L 777.6 245.655556 
" clip-path="url(#p1d5961d09d)" style="fill: none; stroke-dasharray: 5.12,1.28,0.8,1.28; stroke-dashoffset: 0; stroke: #b0b0b0; stroke-width: 0.8"/>
     </g>
     <g id="line2d_24">
      <g>
       <use xlink:href="#m9a7355ac33" x="108" y="245.655556" style="fill: #a9a9a9; stroke: #a9a9a9; stroke-width: 0.8"/>
      </g>
     </g>
     <g id="text_12">
      <!-- 800 -->
      <g style="fill: #a9a9a9" transform="translate(81.9125 249.454774) scale(0.1 -0.1)">
       <defs>
        <path id="DejaVuSans-38" d="M 2034 2216 
Q 1584 2216 1326 1975 
Q 1069 1734 1069 1313 
Q 1069 891 1326 650 
Q 1584 409 2034 409 
Q 2484 409 2743 651 
Q 3003 894 3003 1313 
Q 3003 1734 2745 1975 
Q 2488 2216 2034 2216 
z
M 1403 2484 
Q 997 2584 770 2862 
Q 544 3141 544 3541 
Q 544 4100 942 4425 
Q 1341 4750 2034 4750 
Q 2731 4750 3128 4425 
Q 3525 4100 3525 3541 
Q 3525 3141 3298 2862 
Q 3072 2584 2669 2484 
Q 3125 2378 3379 2068 
Q 3634 1759 3634 1313 
Q 3634 634 3220 271 
Q 2806 -91 2034 -91 
Q 1263 -91 848 271 
Q 434 634 434 1313 
Q 434 1759 690 2068 
Q 947 2378 1403 2484 
z
M 1172 3481 
Q 1172 3119 1398 2916 
Q 1625 2713 2034 2713 
Q 2441 2713 2670 2916 
Q 2900 3119 2900 3481 
Q 2900 3844 2670 4047 
Q 2441 4250 2034 4250 
Q 1625 4250 1398 4047 
Q 1172 3844 1172 3481 
z
" transform="scale(0.015625)"/>
       </defs>
       <use xlink:href="#DejaVuSans-38"/>
       <use xlink:href="#DejaVuSans-30" x="63.623047"/>
       <use xlink:href="#DejaVuSans-30" x="127.246094"/>
      </g>
     </g>
    </g>
    <g id="ytick_4">
     <g id="line2d_25">
      <path d="M 108 214.544444 
L 777.6 214.544444 
" clip-path="url(#p1d5961d09d)" style="fill: none; stroke-dasharray: 5.12,1.28,0.8,1.28; stroke-dashoffset: 0; stroke: #b0b0b0; stroke-width: 0.8"/>
     </g>
     <g id="line2d_26">
      <g>
       <use xlink:href="#m9a7355ac33" x="108" y="214.544444" style="fill: #a9a9a9; stroke: #a9a9a9; stroke-width: 0.8"/>
      </g>
     </g>
     <g id="text_13">
      <!-- 1200 -->
      <g style="fill: #a9a9a9" transform="translate(75.55 218.343663) scale(0.1 -0.1)">
       <use xlink:href="#DejaVuSans-31"/>
       <use xlink:href="#DejaVuSans-32" x="63.623047"/>
       <use xlink:href="#DejaVuSans-30" x="127.246094"/>
       <use xlink:href="#DejaVuSans-30" x="190.869141"/>
      </g>
     </g>
    </g>
    <g id="ytick_5">
     <g id="line2d_27">
      <path d="M 108 183.433333 
L 777.6 183.433333 
" clip-path="url(#p1d5961d09d)" style="fill: none; stroke-dasharray: 5.12,1.28,0.8,1.28; stroke-dashoffset: 0; stroke: #b0b0b0; stroke-width: 0.8"/>
     </g>
     <g id="line2d_28">
      <g>
       <use xlink:href="#m9a7355ac33" x="108" y="183.433333" style="fill: #a9a9a9; stroke: #a9a9a9; stroke-width: 0.8"/>
      </g>
     </g>
     <g id="text_14">
      <!-- 1600 -->
      <g style="fill: #a9a9a9" transform="translate(75.55 187.232552) scale(0.1 -0.1)">
       <defs>
        <path id="DejaVuSans-36" d="M 2113 2584 
Q 1688 2584 1439 2293 
Q 1191 2003 1191 1497 
Q 1191 994 1439 701 
Q 1688 409 2113 409 
Q 2538 409 2786 701 
Q 3034 994 3034 1497 
Q 3034 2003 2786 2293 
Q 2538 2584 2113 2584 
z
M 3366 4563 
L 3366 3988 
Q 3128 4100 2886 4159 
Q 2644 4219 2406 4219 
Q 1781 4219 1451 3797 
Q 1122 3375 1075 2522 
Q 1259 2794 1537 2939 
Q 1816 3084 2150 3084 
Q 2853 3084 3261 2657 
Q 3669 2231 3669 1497 
Q 3669 778 3244 343 
Q 2819 -91 2113 -91 
Q 1303 -91 875 529 
Q 447 1150 447 2328 
Q 447 3434 972 4092 
Q 1497 4750 2381 4750 
Q 2619 4750 2861 4703 
Q 3103 4656 3366 4563 
z
" transform="scale(0.015625)"/>
       </defs>
       <use xlink:href="#DejaVuSans-31"/>
       <use xlink:href="#DejaVuSans-36" x="63.623047"/>
       <use xlink:href="#DejaVuSans-30" x="127.246094"/>
       <use xlink:href="#DejaVuSans-30" x="190.869141"/>
      </g>
     </g>
    </g>
    <g id="ytick_6">
     <g id="line2d_29">
      <path d="M 108 152.322222 
L 777.6 152.322222 
" clip-path="url(#p1d5961d09d)" style="fill: none; stroke-dasharray: 5.12,1.28,0.8,1.28; stroke-dashoffset: 0; stroke: #b0b0b0; stroke-width: 0.8"/>
     </g>
     <g id="line2d_30">
      <g>
       <use xlink:href="#m9a7355ac33" x="108" y="152.322222" style="fill: #a9a9a9; stroke: #a9a9a9; stroke-width: 0.8"/>
      </g>
     </g>
     <g id="text_15">
      <!-- 2000 -->
      <g style="fill: #a9a9a9" transform="translate(75.55 156.121441) scale(0.1 -0.1)">
       <use xlink:href="#DejaVuSans-32"/>
       <use xlink:href="#DejaVuSans-30" x="63.623047"/>
       <use xlink:href="#DejaVuSans-30" x="127.246094"/>
       <use xlink:href="#DejaVuSans-30" x="190.869141"/>
      </g>
     </g>
    </g>
    <g id="ytick_7">
     <g id="line2d_31">
      <path d="M 108 121.211111 
L 777.6 121.211111 
" clip-path="url(#p1d5961d09d)" style="fill: none; stroke-dasharray: 5.12,1.28,0.8,1.28; stroke-dashoffset: 0; stroke: #b0b0b0; stroke-width: 0.8"/>
     </g>
     <g id="line2d_32">
      <g>
       <use xlink:href="#m9a7355ac33" x="108" y="121.211111" style="fill: #a9a9a9; stroke: #a9a9a9; stroke-width: 0.8"/>
      </g>
     </g>
     <g id="text_16">
      <!-- 2400 -->
      <g style="fill: #a9a9a9" transform="translate(75.55 125.01033) scale(0.1 -0.1)">
       <use xlink:href="#DejaVuSans-32"/>
       <use xlink:href="#DejaVuSans-34" x="63.623047"/>
       <use xlink:href="#DejaVuSans-30" x="127.246094"/>
       <use xlink:href="#DejaVuSans-30" x="190.869141"/>
      </g>
     </g>
    </g>
    <g id="ytick_8">
     <g id="line2d_33">
      <path d="M 108 90.1 
L 777.6 90.1 
" clip-path="url(#p1d5961d09d)" style="fill: none; stroke-dasharray: 5.12,1.28,0.8,1.28; stroke-dashoffset: 0; stroke: #b0b0b0; stroke-width: 0.8"/>
     </g>
     <g id="line2d_34">
      <g>
       <use xlink:href="#m9a7355ac33" x="108" y="90.1" style="fill: #a9a9a9; stroke: #a9a9a9; stroke-width: 0.8"/>
      </g>
     </g>
     <g id="text_17">
      <!-- 2800 -->
      <g style="fill: #a9a9a9" transform="translate(75.55 93.899219) scale(0.1 -0.1)">
       <use xlink:href="#DejaVuSans-32"/>
       <use xlink:href="#DejaVuSans-38" x="63.623047"/>
       <use xlink:href="#DejaVuSans-30" x="127.246094"/>
       <use xlink:href="#DejaVuSans-30" x="190.869141"/>
      </g>
     </g>
    </g>
    <g id="ytick_9">
     <g id="line2d_35">
      <path d="M 108 58.988889 
L 777.6 58.988889 
" clip-path="url(#p1d5961d09d)" style="fill: none; stroke-dasharray: 5.12,1.28,0.8,1.28; stroke-dashoffset: 0; stroke: #b0b0b0; stroke-width: 0.8"/>
     </g>
     <g id="line2d_36">
      <g>
       <use xlink:href="#m9a7355ac33" x="108" y="58.988889" style="fill: #a9a9a9; stroke: #a9a9a9; stroke-width: 0.8"/>
      </g>
     </g>
     <g id="text_18">
      <!-- 3200 -->
      <g style="fill: #a9a9a9" transform="translate(75.55 62.788108) scale(0.1 -0.1)">
       <use xlink:href="#DejaVuSans-33"/>
       <use xlink:href="#DejaVuSans-32" x="63.623047"/>
       <use xlink:href="#DejaVuSans-30" x="127.246094"/>
       <use xlink:href="#DejaVuSans-30" x="190.869141"/>
      </g>
     </g>
    </g>
   </g>
   <g id="line2d_37">
    <path d="M 138.436364 307.566667 
L 143.345455 307.177778 
L 144.572727 307.022222 
L 145.8 307.022222 
L 147.027273 306.555556 
L 149.481818 306.4 
L 158.072727 304.766667 
L 160.527273 304.611111 
L 161.754545 304.377778 
L 165.436364 304.144444 
L 166.663636 303.522222 
L 167.890909 303.211111 
L 169.118182 301.811111 
L 170.345455 301.033333 
L 171.572727 298.311111 
L 172.8 298.155556 
L 174.027273 297.3 
L 175.254545 296.833333 
L 176.481818 296.211111 
L 180.163636 293.333333 
L 181.390909 292.711111 
L 183.845455 291.777778 
L 185.072727 290.922222 
L 186.3 290.455556 
L 188.754545 288.977778 
L 189.981818 288.588889 
L 191.209091 286.722222 
L 192.436364 285.788889 
L 193.663636 285.088889 
L 194.890909 284.544444 
L 199.8 283.844444 
L 203.481818 283.222222 
L 205.936364 283.066667 
L 207.163636 282.833333 
L 208.390909 282.211111 
L 213.3 281.822222 
L 216.981818 281.433333 
L 218.209091 281.044444 
L 224.345455 279.877778 
L 226.8 279.644444 
L 228.027273 279.333333 
L 231.709091 278.866667 
L 232.936364 278.244444 
L 234.163636 278.088889 
L 236.618182 277.233333 
L 239.072727 277 
L 240.3 276.611111 
L 245.209091 275.911111 
L 246.436364 275.522222 
L 248.890909 275.133333 
L 250.118182 275.133333 
L 256.254545 274.355556 
L 258.709091 273.655556 
L 259.936364 273.344444 
L 262.390909 273.111111 
L 263.618182 273.033333 
L 267.3 272.333333 
L 268.527273 271.866667 
L 269.754545 270.311111 
L 270.981818 269.844444 
L 272.209091 269.222222 
L 273.436364 269.066667 
L 274.663636 268.755556 
L 275.890909 268.6 
L 278.345455 267.588889 
L 279.572727 267.511111 
L 285.709091 265.877778 
L 286.936364 265.877778 
L 289.390909 265.566667 
L 291.845455 264.866667 
L 295.527273 263.933333 
L 296.754545 263.855556 
L 299.209091 262.844444 
L 300.436364 262.688889 
L 301.663636 262.144444 
L 304.118182 261.911111 
L 305.345455 261.833333 
L 309.027273 261.211111 
L 311.481818 260.822222 
L 315.163636 260.122222 
L 316.390909 259.733333 
L 317.618182 259.577778 
L 320.072727 258.722222 
L 321.3 258.022222 
L 322.527273 257.711111 
L 323.754545 257.555556 
L 326.209091 256.777778 
L 328.663636 255.455556 
L 329.890909 254.677778 
L 331.118182 254.522222 
L 332.345455 254.133333 
L 333.572727 253.977778 
L 334.8 253.666667 
L 336.027273 253.511111 
L 337.254545 252.966667 
L 339.709091 252.577778 
L 340.936364 251.955556 
L 342.163636 251.488889 
L 343.390909 251.177778 
L 344.618182 251.022222 
L 345.845455 250.555556 
L 350.754545 249.622222 
L 353.209091 248.611111 
L 354.436364 248.377778 
L 355.663636 247.911111 
L 356.890909 247.755556 
L 358.118182 247.211111 
L 359.345455 246.9 
L 361.8 246.744444 
L 364.254545 245.966667 
L 365.481818 245.811111 
L 366.709091 245.811111 
L 367.936364 245.266667 
L 370.390909 244.877778 
L 371.618182 244.411111 
L 374.072727 244.333333 
L 375.3 244.177778 
L 376.527273 244.177778 
L 378.981818 243.788889 
L 381.436364 242.622222 
L 383.890909 241.533333 
L 385.118182 241.222222 
L 386.345455 240.444444 
L 387.572727 240.055556 
L 390.027273 238.966667 
L 391.254545 238.733333 
L 392.481818 238.188889 
L 393.709091 237.8 
L 394.936364 237.022222 
L 396.163636 236.4 
L 397.390909 235.155556 
L 398.618182 233.211111 
L 399.845455 231.655556 
L 401.072727 231.266667 
L 402.3 231.266667 
L 403.527273 230.488889 
L 404.754545 229.555556 
L 405.981818 229.244444 
L 407.209091 228.622222 
L 408.436364 228.388889 
L 409.663636 227.3 
L 410.890909 226.988889 
L 414.572727 225.355556 
L 415.8 223.955556 
L 417.027273 222.166667 
L 418.254545 221.466667 
L 419.481818 219.522222 
L 420.709091 218.355556 
L 421.936364 217.811111 
L 423.163636 217.5 
L 424.390909 216.722222 
L 426.845455 215.555556 
L 428.072727 214.7 
L 429.3 213.688889 
L 430.527273 212.833333 
L 431.754545 212.133333 
L 432.981818 210.5 
L 434.209091 207.777778 
L 435.436364 206.066667 
L 436.663636 205.133333 
L 437.890909 204.588889 
L 440.345455 202.488889 
L 442.8 200.544444 
L 445.254545 198.6 
L 446.481818 197.588889 
L 447.709091 195.877778 
L 448.936364 194.711111 
L 450.163636 193.777778 
L 452.618182 192.144444 
L 455.072727 190.433333 
L 456.3 189.422222 
L 457.527273 189.111111 
L 458.754545 188.566667 
L 462.436364 186.544444 
L 464.890909 185.377778 
L 467.345455 183.277778 
L 468.572727 181.8 
L 469.8 180.944444 
L 471.027273 180.244444 
L 472.254545 179.933333 
L 473.481818 179.311111 
L 474.709091 178.455556 
L 477.163636 177.211111 
L 478.390909 176.977778 
L 479.618182 176.2 
L 482.072727 174.877778 
L 483.3 173.711111 
L 484.527273 172.855556 
L 485.754545 172.466667 
L 486.981818 171.688889 
L 488.209091 171.144444 
L 489.436364 170.366667 
L 490.663636 169.9 
L 491.890909 169.122222 
L 493.118182 168.111111 
L 495.572727 167.255556 
L 496.8 166.711111 
L 498.027273 166.477778 
L 499.254545 165.7 
L 500.481818 165.466667 
L 502.936364 164.611111 
L 504.163636 164.222222 
L 506.618182 163.211111 
L 507.845455 162.744444 
L 509.072727 162.433333 
L 510.3 161.966667 
L 512.754545 161.5 
L 513.981818 160.411111 
L 515.209091 159.477778 
L 516.436364 159.011111 
L 518.890909 157.688889 
L 521.345455 156.366667 
L 523.8 155.666667 
L 525.027273 154.733333 
L 526.254545 154.422222 
L 528.709091 152.866667 
L 529.936364 152.244444 
L 533.618182 151.466667 
L 536.072727 150.766667 
L 539.754545 148.744444 
L 540.981818 148.588889 
L 542.209091 148.122222 
L 543.436364 147.966667 
L 544.663636 147.5 
L 545.890909 146.722222 
L 547.118182 145.788889 
L 548.345455 145.011111 
L 549.572727 144.777778 
L 550.8 144.155556 
L 552.027273 144 
L 553.254545 143.533333 
L 554.481818 142.677778 
L 555.709091 142.288889 
L 556.936364 141.744444 
L 561.845455 140.422222 
L 563.072727 140.344444 
L 564.3 139.955556 
L 566.754545 138.866667 
L 567.981818 138.477778 
L 569.209091 138.244444 
L 572.890909 136.611111 
L 575.345455 135.911111 
L 576.572727 135.833333 
L 579.027273 135.288889 
L 580.254545 134.744444 
L 581.481818 134.511111 
L 583.936364 133.5 
L 587.618182 131.788889 
L 590.072727 130.233333 
L 591.3 129.922222 
L 592.527273 129.222222 
L 593.754545 128.755556 
L 594.981818 128.055556 
L 597.436364 127.433333 
L 598.663636 126.733333 
L 601.118182 125.722222 
L 603.572727 125.333333 
L 604.8 124.477778 
L 606.027273 123.855556 
L 607.254545 123.622222 
L 608.481818 123.155556 
L 609.709091 122.533333 
L 610.936364 122.3 
L 612.163636 121.677778 
L 617.072727 120.977778 
L 619.527273 119.888889 
L 620.754545 118.955556 
L 621.981818 116.855556 
L 623.209091 116.544444 
L 624.436364 116.388889 
L 625.663636 116.077778 
L 628.118182 114.755556 
L 629.345455 114.288889 
L 630.572727 113.666667 
L 631.8 113.355556 
L 634.254545 112.188889 
L 636.709091 111.022222 
L 639.163636 110.011111 
L 640.390909 109.233333 
L 641.618182 108.766667 
L 645.3 107.911111 
L 647.754545 106.744444 
L 648.981818 106.2 
L 650.209091 105.966667 
L 653.890909 104.488889 
L 656.345455 103.011111 
L 657.572727 102.077778 
L 658.8 101.455556 
L 660.027273 101.222222 
L 661.254545 100.755556 
L 662.481818 100.677778 
L 667.390909 99.044444 
L 668.618182 98.966667 
L 669.845455 98.111111 
L 671.072727 97.722222 
L 672.3 97.177778 
L 675.981818 96.011111 
L 677.209091 95.311111 
L 678.436364 94.922222 
L 679.663636 94.144444 
L 680.890909 93.6 
L 682.118182 92.822222 
L 688.254545 90.411111 
L 689.481818 89.711111 
L 690.709091 88.855556 
L 691.936364 87.455556 
L 693.163636 86.677778 
L 694.390909 86.444444 
L 696.845455 84.577778 
L 698.072727 84.111111 
L 699.3 82.322222 
L 700.527273 81.855556 
L 701.754545 81 
L 702.981818 80.766667 
L 704.209091 79.988889 
L 705.436364 79.444444 
L 706.663636 79.211111 
L 707.890909 78.666667 
L 709.118182 77.655556 
L 710.345455 77.266667 
L 712.8 75.633333 
L 714.027273 74.855556 
L 715.254545 74.311111 
L 717.709091 72.988889 
L 718.936364 72.444444 
L 720.163636 72.211111 
L 721.390909 71.744444 
L 723.845455 70.266667 
L 725.072727 68.4 
L 726.3 67.233333 
L 727.527273 66.455556 
L 728.754545 66.144444 
L 731.209091 64.744444 
L 732.436364 64.511111 
L 733.663636 63.811111 
L 737.345455 62.333333 
L 738.572727 61.711111 
L 741.027273 60 
L 743.481818 57.433333 
L 744.709091 56.5 
L 745.936364 55.8 
L 747.163636 55.8 
L 747.163636 55.8 
" clip-path="url(#p1d5961d09d)" style="fill: none; stroke: #1f77b4; stroke-width: 1.5; stroke-linecap: square"/>
   </g>
   <g id="line2d_38">
    <path d="M 139.663636 307.8 
L 142.118182 307.8 
L 144.572727 307.488889 
L 151.936364 307.411111 
L 155.618182 307.255556 
L 159.3 307.177778 
L 161.754545 307.1 
L 165.436364 307.1 
L 166.663636 306.788889 
L 170.345455 306.711111 
L 176.481818 306.011111 
L 186.3 305.466667 
L 187.527273 305.466667 
L 188.754545 305.233333 
L 192.436364 305.155556 
L 194.890909 304.844444 
L 199.8 304.844444 
L 201.027273 304.688889 
L 207.163636 304.611111 
L 210.845455 304.455556 
L 221.890909 304.377778 
L 224.345455 304.3 
L 229.254545 304.222222 
L 232.936364 304.066667 
L 237.845455 304.066667 
L 239.072727 303.911111 
L 242.754545 303.833333 
L 247.663636 303.6 
L 256.254545 303.522222 
L 258.709091 303.444444 
L 263.618182 303.366667 
L 267.3 302.9 
L 273.436364 302.822222 
L 279.572727 302.511111 
L 285.709091 302.433333 
L 289.390909 302.277778 
L 291.845455 302.2 
L 294.3 301.966667 
L 299.209091 301.733333 
L 302.890909 301.655556 
L 305.345455 301.577778 
L 307.8 301.577778 
L 309.027273 301.422222 
L 312.709091 301.422222 
L 316.390909 301.033333 
L 320.072727 300.955556 
L 322.527273 300.877778 
L 324.981818 300.877778 
L 329.890909 300.333333 
L 331.118182 300.255556 
L 332.345455 300.022222 
L 337.254545 299.944444 
L 340.936364 299.633333 
L 343.390909 299.4 
L 349.527273 299.088889 
L 353.209091 299.011111 
L 356.890909 298.855556 
L 358.118182 298.855556 
L 360.572727 298.622222 
L 363.027273 298.544444 
L 364.254545 298.544444 
L 365.481818 298.388889 
L 367.936364 298.311111 
L 374.072727 298 
L 376.527273 297.922222 
L 380.209091 297.766667 
L 383.890909 297.688889 
L 386.345455 297.611111 
L 392.481818 297.533333 
L 397.390909 296.988889 
L 398.618182 296.988889 
L 401.072727 296.755556 
L 403.527273 296.677778 
L 408.436364 296.288889 
L 409.663636 296.133333 
L 410.890909 295.822222 
L 413.345455 295.666667 
L 414.572727 295.355556 
L 418.254545 295.044444 
L 420.709091 294.5 
L 423.163636 294.422222 
L 425.618182 294.422222 
L 426.845455 294.266667 
L 428.072727 294.266667 
L 430.527273 293.877778 
L 435.436364 293.022222 
L 436.663636 293.022222 
L 437.890909 292.866667 
L 441.572727 292.788889 
L 457.527273 291.777778 
L 458.754545 291.544444 
L 462.436364 291.311111 
L 464.890909 290.922222 
L 467.345455 290.688889 
L 469.8 290.611111 
L 472.254545 290.611111 
L 473.481818 290.3 
L 474.709091 290.144444 
L 479.618182 290.066667 
L 482.072727 289.833333 
L 483.3 289.833333 
L 486.981818 289.288889 
L 488.209091 288.977778 
L 489.436364 288.822222 
L 491.890909 288.744444 
L 498.027273 288.433333 
L 501.709091 288.355556 
L 517.663636 287.422222 
L 520.118182 287.422222 
L 522.572727 287.188889 
L 525.027273 287.188889 
L 528.709091 286.8 
L 533.618182 286.566667 
L 536.072727 286.488889 
L 537.3 286.333333 
L 542.209091 286.255556 
L 550.8 285.788889 
L 556.936364 285.711111 
L 559.390909 285.633333 
L 560.618182 285.633333 
L 561.845455 285.4 
L 564.3 285.322222 
L 571.663636 285.244444 
L 575.345455 285.088889 
L 580.254545 285.011111 
L 581.481818 284.777778 
L 588.845455 284.7 
L 591.3 284.622222 
L 593.754545 284.544444 
L 596.209091 284.466667 
L 598.663636 284.388889 
L 608.481818 283.844444 
L 614.618182 283.766667 
L 618.3 283.455556 
L 620.754545 283.222222 
L 623.209091 283.144444 
L 625.663636 283.066667 
L 626.890909 282.911111 
L 630.572727 282.833333 
L 631.8 282.522222 
L 636.709091 282.288889 
L 647.754545 282.211111 
L 651.436364 281.9 
L 656.345455 281.355556 
L 658.8 281.277778 
L 663.709091 281.2 
L 668.618182 280.655556 
L 674.754545 280.344444 
L 677.209091 280.266667 
L 682.118182 280.033333 
L 687.027273 279.955556 
L 690.709091 279.8 
L 695.618182 279.722222 
L 699.3 279.333333 
L 701.754545 279.255556 
L 706.663636 279.177778 
L 710.345455 278.866667 
L 711.572727 278.711111 
L 712.8 278.711111 
L 714.027273 278.477778 
L 716.481818 278.4 
L 721.390909 278.322222 
L 723.845455 277.933333 
L 726.3 277.933333 
L 727.527273 277.7 
L 729.981818 277.622222 
L 736.118182 277.544444 
L 738.572727 277.233333 
L 739.8 277.233333 
L 742.254545 277 
L 743.481818 277 
L 744.709091 276.688889 
L 747.163636 276.688889 
L 747.163636 276.688889 
" clip-path="url(#p1d5961d09d)" style="fill: none; stroke: #ff7f0e; stroke-width: 1.5; stroke-linecap: square"/>
   </g>
   <g id="patch_3">
    <path d="M 108 320.4 
L 108 43.2 
" style="fill: none; stroke: #a9a9a9; stroke-width: 0.8; stroke-linejoin: miter; stroke-linecap: square"/>
   </g>
   <g id="patch_4">
    <path d="M 777.6 320.4 
L 777.6 43.2 
" style="fill: none"/>
   </g>
   <g id="patch_5">
    <path d="M 108 320.4 
L 777.6 320.4 
" style="fill: none; stroke: #a9a9a9; stroke-width: 0.8; stroke-linejoin: miter; stroke-linecap: square"/>
   </g>
   <g id="patch_6">
    <path d="M 108 43.2 
L 777.6 43.2 
" style="fill: none"/>
   </g>
   <g id="text_19">
    <!-- get_subscribe history -->
    <g style="fill: #a9a9a9" transform="translate(378.6075 37.2) scale(0.12 -0.12)">
     <defs>
      <path id="DejaVuSans-67" d="M 2906 1791 
Q 2906 2416 2648 2759 
Q 2391 3103 1925 3103 
Q 1463 3103 1205 2759 
Q 947 2416 947 1791 
Q 947 1169 1205 825 
Q 1463 481 1925 481 
Q 2391 481 2648 825 
Q 2906 1169 2906 1791 
z
M 3481 434 
Q 3481 -459 3084 -895 
Q 2688 -1331 1869 -1331 
Q 1566 -1331 1297 -1286 
Q 1028 -1241 775 -1147 
L 775 -588 
Q 1028 -725 1275 -790 
Q 1522 -856 1778 -856 
Q 2344 -856 2625 -561 
Q 2906 -266 2906 331 
L 2906 616 
Q 2728 306 2450 153 
Q 2172 0 1784 0 
Q 1141 0 747 490 
Q 353 981 353 1791 
Q 353 2603 747 3093 
Q 1141 3584 1784 3584 
Q 2172 3584 2450 3431 
Q 2728 3278 2906 2969 
L 2906 3500 
L 3481 3500 
L 3481 434 
z
" transform="scale(0.015625)"/>
      <path id="DejaVuSans-65" d="M 3597 1894 
L 3597 1613 
L 953 1613 
Q 991 1019 1311 708 
Q 1631 397 2203 397 
Q 2534 397 2845 478 
Q 3156 559 3463 722 
L 3463 178 
Q 3153 47 2828 -22 
Q 2503 -91 2169 -91 
Q 1331 -91 842 396 
Q 353 884 353 1716 
Q 353 2575 817 3079 
Q 1281 3584 2069 3584 
Q 2775 3584 3186 3129 
Q 3597 2675 3597 1894 
z
M 3022 2063 
Q 3016 2534 2758 2815 
Q 2500 3097 2075 3097 
Q 1594 3097 1305 2825 
Q 1016 2553 972 2059 
L 3022 2063 
z
" transform="scale(0.015625)"/>
      <path id="DejaVuSans-74" d="M 1172 4494 
L 1172 3500 
L 2356 3500 
L 2356 3053 
L 1172 3053 
L 1172 1153 
Q 1172 725 1289 603 
Q 1406 481 1766 481 
L 2356 481 
L 2356 0 
L 1766 0 
Q 1100 0 847 248 
Q 594 497 594 1153 
L 594 3053 
L 172 3053 
L 172 3500 
L 594 3500 
L 594 4494 
L 1172 4494 
z
" transform="scale(0.015625)"/>
      <path id="DejaVuSans-5f" d="M 3263 -1063 
L 3263 -1509 
L -63 -1509 
L -63 -1063 
L 3263 -1063 
z
" transform="scale(0.015625)"/>
      <path id="DejaVuSans-73" d="M 2834 3397 
L 2834 2853 
Q 2591 2978 2328 3040 
Q 2066 3103 1784 3103 
Q 1356 3103 1142 2972 
Q 928 2841 928 2578 
Q 928 2378 1081 2264 
Q 1234 2150 1697 2047 
L 1894 2003 
Q 2506 1872 2764 1633 
Q 3022 1394 3022 966 
Q 3022 478 2636 193 
Q 2250 -91 1575 -91 
Q 1294 -91 989 -36 
Q 684 19 347 128 
L 347 722 
Q 666 556 975 473 
Q 1284 391 1588 391 
Q 1994 391 2212 530 
Q 2431 669 2431 922 
Q 2431 1156 2273 1281 
Q 2116 1406 1581 1522 
L 1381 1569 
Q 847 1681 609 1914 
Q 372 2147 372 2553 
Q 372 3047 722 3315 
Q 1072 3584 1716 3584 
Q 2034 3584 2315 3537 
Q 2597 3491 2834 3397 
z
" transform="scale(0.015625)"/>
      <path id="DejaVuSans-75" d="M 544 1381 
L 544 3500 
L 1119 3500 
L 1119 1403 
Q 1119 906 1312 657 
Q 1506 409 1894 409 
Q 2359 409 2629 706 
Q 2900 1003 2900 1516 
L 2900 3500 
L 3475 3500 
L 3475 0 
L 2900 0 
L 2900 538 
Q 2691 219 2414 64 
Q 2138 -91 1772 -91 
Q 1169 -91 856 284 
Q 544 659 544 1381 
z
M 1991 3584 
L 1991 3584 
z
" transform="scale(0.015625)"/>
      <path id="DejaVuSans-62" d="M 3116 1747 
Q 3116 2381 2855 2742 
Q 2594 3103 2138 3103 
Q 1681 3103 1420 2742 
Q 1159 2381 1159 1747 
Q 1159 1113 1420 752 
Q 1681 391 2138 391 
Q 2594 391 2855 752 
Q 3116 1113 3116 1747 
z
M 1159 2969 
Q 1341 3281 1617 3432 
Q 1894 3584 2278 3584 
Q 2916 3584 3314 3078 
Q 3713 2572 3713 1747 
Q 3713 922 3314 415 
Q 2916 -91 2278 -91 
Q 1894 -91 1617 61 
Q 1341 213 1159 525 
L 1159 0 
L 581 0 
L 581 4863 
L 1159 4863 
L 1159 2969 
z
" transform="scale(0.015625)"/>
      <path id="DejaVuSans-63" d="M 3122 3366 
L 3122 2828 
Q 2878 2963 2633 3030 
Q 2388 3097 2138 3097 
Q 1578 3097 1268 2742 
Q 959 2388 959 1747 
Q 959 1106 1268 751 
Q 1578 397 2138 397 
Q 2388 397 2633 464 
Q 2878 531 3122 666 
L 3122 134 
Q 2881 22 2623 -34 
Q 2366 -91 2075 -91 
Q 1284 -91 818 406 
Q 353 903 353 1747 
Q 353 2603 823 3093 
Q 1294 3584 2113 3584 
Q 2378 3584 2631 3529 
Q 2884 3475 3122 3366 
z
" transform="scale(0.015625)"/>
      <path id="DejaVuSans-72" d="M 2631 2963 
Q 2534 3019 2420 3045 
Q 2306 3072 2169 3072 
Q 1681 3072 1420 2755 
Q 1159 2438 1159 1844 
L 1159 0 
L 581 0 
L 581 3500 
L 1159 3500 
L 1159 2956 
Q 1341 3275 1631 3429 
Q 1922 3584 2338 3584 
Q 2397 3584 2469 3576 
Q 2541 3569 2628 3553 
L 2631 2963 
z
" transform="scale(0.015625)"/>
      <path id="DejaVuSans-69" d="M 603 3500 
L 1178 3500 
L 1178 0 
L 603 0 
L 603 3500 
z
M 603 4863 
L 1178 4863 
L 1178 4134 
L 603 4134 
L 603 4863 
z
" transform="scale(0.015625)"/>
      <path id="DejaVuSans-20" transform="scale(0.015625)"/>
      <path id="DejaVuSans-68" d="M 3513 2113 
L 3513 0 
L 2938 0 
L 2938 2094 
Q 2938 2591 2744 2837 
Q 2550 3084 2163 3084 
Q 1697 3084 1428 2787 
Q 1159 2491 1159 1978 
L 1159 0 
L 581 0 
L 581 4863 
L 1159 4863 
L 1159 2956 
Q 1366 3272 1645 3428 
Q 1925 3584 2291 3584 
Q 2894 3584 3203 3211 
Q 3513 2838 3513 2113 
z
" transform="scale(0.015625)"/>
      <path id="DejaVuSans-6f" d="M 1959 3097 
Q 1497 3097 1228 2736 
Q 959 2375 959 1747 
Q 959 1119 1226 758 
Q 1494 397 1959 397 
Q 2419 397 2687 759 
Q 2956 1122 2956 1747 
Q 2956 2369 2687 2733 
Q 2419 3097 1959 3097 
z
M 1959 3584 
Q 2709 3584 3137 3096 
Q 3566 2609 3566 1747 
Q 3566 888 3137 398 
Q 2709 -91 1959 -91 
Q 1206 -91 779 398 
Q 353 888 353 1747 
Q 353 2609 779 3096 
Q 1206 3584 1959 3584 
z
" transform="scale(0.015625)"/>
      <path id="DejaVuSans-79" d="M 2059 -325 
Q 1816 -950 1584 -1140 
Q 1353 -1331 966 -1331 
L 506 -1331 
L 506 -850 
L 844 -850 
Q 1081 -850 1212 -737 
Q 1344 -625 1503 -206 
L 1606 56 
L 191 3500 
L 800 3500 
L 1894 763 
L 2988 3500 
L 3597 3500 
L 2059 -325 
z
" transform="scale(0.015625)"/>
     </defs>
     <use xlink:href="#DejaVuSans-67"/>
     <use xlink:href="#DejaVuSans-65" x="63.476562"/>
     <use xlink:href="#DejaVuSans-74" x="125"/>
     <use xlink:href="#DejaVuSans-5f" x="164.208984"/>
     <use xlink:href="#DejaVuSans-73" x="214.208984"/>
     <use xlink:href="#DejaVuSans-75" x="266.308594"/>
     <use xlink:href="#DejaVuSans-62" x="329.6875"/>
     <use xlink:href="#DejaVuSans-73" x="393.164062"/>
     <use xlink:href="#DejaVuSans-63" x="445.263672"/>
     <use xlink:href="#DejaVuSans-72" x="500.244141"/>
     <use xlink:href="#DejaVuSans-69" x="541.357422"/>
     <use xlink:href="#DejaVuSans-62" x="569.140625"/>
     <use xlink:href="#DejaVuSans-65" x="632.617188"/>
     <use xlink:href="#DejaVuSans-20" x="694.140625"/>
     <use xlink:href="#DejaVuSans-68" x="725.927734"/>
     <use xlink:href="#DejaVuSans-69" x="789.306641"/>
     <use xlink:href="#DejaVuSans-73" x="817.089844"/>
     <use xlink:href="#DejaVuSans-74" x="869.189453"/>
     <use xlink:href="#DejaVuSans-6f" x="908.398438"/>
     <use xlink:href="#DejaVuSans-72" x="969.580078"/>
     <use xlink:href="#DejaVuSans-79" x="1010.693359"/>
    </g>
   </g>
   <g id="legend_1">
    <g id="line2d_39">
     <path d="M 815.08 328.498438 
L 825.08 328.498438 
L 835.08 328.498438 
" style="fill: none; stroke: #1f77b4; stroke-width: 1.5; stroke-linecap: square"/>
    </g>
    <g id="text_20">
     <!-- star -->
     <g style="fill: #a9a9a9" transform="translate(843.08 331.998438) scale(0.1 -0.1)">
      <defs>
       <path id="DejaVuSans-61" d="M 2194 1759 
Q 1497 1759 1228 1600 
Q 959 1441 959 1056 
Q 959 750 1161 570 
Q 1363 391 1709 391 
Q 2188 391 2477 730 
Q 2766 1069 2766 1631 
L 2766 1759 
L 2194 1759 
z
M 3341 1997 
L 3341 0 
L 2766 0 
L 2766 531 
Q 2569 213 2275 61 
Q 1981 -91 1556 -91 
Q 1019 -91 701 211 
Q 384 513 384 1019 
Q 384 1609 779 1909 
Q 1175 2209 1959 2209 
L 2766 2209 
L 2766 2266 
Q 2766 2663 2505 2880 
Q 2244 3097 1772 3097 
Q 1472 3097 1187 3025 
Q 903 2953 641 2809 
L 641 3341 
Q 956 3463 1253 3523 
Q 1550 3584 1831 3584 
Q 2591 3584 2966 3190 
Q 3341 2797 3341 1997 
z
" transform="scale(0.015625)"/>
      </defs>
      <use xlink:href="#DejaVuSans-73"/>
      <use xlink:href="#DejaVuSans-74" x="52.099609"/>
      <use xlink:href="#DejaVuSans-61" x="91.308594"/>
      <use xlink:href="#DejaVuSans-72" x="152.587891"/>
     </g>
    </g>
    <g id="line2d_40">
     <path d="M 815.08 343.176562 
L 825.08 343.176562 
L 835.08 343.176562 
" style="fill: none; stroke: #ff7f0e; stroke-width: 1.5; stroke-linecap: square"/>
    </g>
    <g id="text_21">
     <!-- fork -->
     <g style="fill: #a9a9a9" transform="translate(843.08 346.676562) scale(0.1 -0.1)">
      <defs>
       <path id="DejaVuSans-66" d="M 2375 4863 
L 2375 4384 
L 1825 4384 
Q 1516 4384 1395 4259 
Q 1275 4134 1275 3809 
L 1275 3500 
L 2222 3500 
L 2222 3053 
L 1275 3053 
L 1275 0 
L 697 0 
L 697 3053 
L 147 3053 
L 147 3500 
L 697 3500 
L 697 3744 
Q 697 4328 969 4595 
Q 1241 4863 1831 4863 
L 2375 4863 
z
" transform="scale(0.015625)"/>
       <path id="DejaVuSans-6b" d="M 581 4863 
L 1159 4863 
L 1159 1991 
L 2875 3500 
L 3609 3500 
L 1753 1863 
L 3688 0 
L 2938 0 
L 1159 1709 
L 1159 0 
L 581 0 
L 581 4863 
z
" transform="scale(0.015625)"/>
      </defs>
      <use xlink:href="#DejaVuSans-66"/>
      <use xlink:href="#DejaVuSans-6f" x="35.205078"/>
      <use xlink:href="#DejaVuSans-72" x="96.386719"/>
      <use xlink:href="#DejaVuSans-6b" x="137.5"/>
     </g>
    </g>
   </g>
  </g>
 </g>
 <defs>
  <clipPath id="p1d5961d09d">
   <rect x="108" y="43.2" width="669.6" height="277.2"/>
  </clipPath>
 </defs>
</svg>
