<?xml version="1.0" encoding="utf-8" standalone="no"?>
<!DOCTYPE svg PUBLIC "-//W3C//DTD SVG 1.1//EN"
  "http://www.w3.org/Graphics/SVG/1.1/DTD/svg11.dtd">
<svg xmlns:xlink="http://www.w3.org/1999/xlink" width="864pt" height="360pt" viewBox="0 0 864 360" xmlns="http://www.w3.org/2000/svg" version="1.1">
 <metadata>
  <rdf:RDF xmlns:dc="http://purl.org/dc/elements/1.1/" xmlns:cc="http://creativecommons.org/ns#" xmlns:rdf="http://www.w3.org/1999/02/22-rdf-syntax-ns#">
   <cc:Work>
    <dc:type rdf:resource="http://purl.org/dc/dcmitype/StillImage"/>
    <dc:date>2022-10-19T09:25:53.515214</dc:date>
    <dc:format>image/svg+xml</dc:format>
    <dc:creator>
     <cc:Agent>
      <dc:title>Matplotlib v3.6.1, https://matplotlib.org/</dc:title>
     </cc:Agent>
    </dc:creator>
   </cc:Work>
  </rdf:RDF>
 </metadata>
 <defs>
  <style type="text/css">*{stroke-linejoin: round; stroke-linecap: butt}</style>
 </defs>
 <g id="figure_1">
  <g id="patch_1">
   <path d="M 0 360 
L 864 360 
L 864 0 
L 0 0 
L 0 360 
z
" style="fill: none; opacity: 0"/>
  </g>
  <g id="axes_1">
   <g id="patch_2">
    <path d="M 108 320.4 
L 777.6 320.4 
L 777.6 43.2 
L 108 43.2 
L 108 320.4 
z
" style="fill: none; opacity: 0"/>
   </g>
   <g id="matplotlib.axis_1">
    <g id="xtick_1">
     <g id="line2d_1">
      <path d="M 190.959292 320.4 
L 190.959292 43.2 
" clip-path="url(#p38a095a7b2)" style="fill: none; stroke-dasharray: 5.12,1.28,0.8,1.28; stroke-dashoffset: 0; stroke: #b0b0b0; stroke-width: 0.8"/>
     </g>
     <g id="line2d_2">
      <defs>
       <path id="mb15e141c19" d="M 0 0 
L 0 3.5 
" style="stroke: #a9a9a9; stroke-width: 0.8"/>
      </defs>
      <g>
       <use xlink:href="#mb15e141c19" x="190.959292" y="320.4" style="fill: #a9a9a9; stroke: #a9a9a9; stroke-width: 0.8"/>
      </g>
     </g>
     <g id="text_1">
      <!-- 2021-09 -->
      <g style="fill: #a9a9a9" transform="translate(170.067886 334.998438) scale(0.1 -0.1)">
       <defs>
        <path id="DejaVuSans-32" d="M 1228 531 
L 3431 531 
L 3431 0 
L 469 0 
L 469 531 
Q 828 903 1448 1529 
Q 2069 2156 2228 2338 
Q 2531 2678 2651 2914 
Q 2772 3150 2772 3378 
Q 2772 3750 2511 3984 
Q 2250 4219 1831 4219 
Q 1534 4219 1204 4116 
Q 875 4013 500 3803 
L 500 4441 
Q 881 4594 1212 4672 
Q 1544 4750 1819 4750 
Q 2544 4750 2975 4387 
Q 3406 4025 3406 3419 
Q 3406 3131 3298 2873 
Q 3191 2616 2906 2266 
Q 2828 2175 2409 1742 
Q 1991 1309 1228 531 
z
" transform="scale(0.015625)"/>
        <path id="DejaVuSans-30" d="M 2034 4250 
Q 1547 4250 1301 3770 
Q 1056 3291 1056 2328 
Q 1056 1369 1301 889 
Q 1547 409 2034 409 
Q 2525 409 2770 889 
Q 3016 1369 3016 2328 
Q 3016 3291 2770 3770 
Q 2525 4250 2034 4250 
z
M 2034 4750 
Q 2819 4750 3233 4129 
Q 3647 3509 3647 2328 
Q 3647 1150 3233 529 
Q 2819 -91 2034 -91 
Q 1250 -91 836 529 
Q 422 1150 422 2328 
Q 422 3509 836 4129 
Q 1250 4750 2034 4750 
z
" transform="scale(0.015625)"/>
        <path id="DejaVuSans-31" d="M 794 531 
L 1825 531 
L 1825 4091 
L 703 3866 
L 703 4441 
L 1819 4666 
L 2450 4666 
L 2450 531 
L 3481 531 
L 3481 0 
L 794 0 
L 794 531 
z
" transform="scale(0.015625)"/>
        <path id="DejaVuSans-2d" d="M 313 2009 
L 1997 2009 
L 1997 1497 
L 313 1497 
L 313 2009 
z
" transform="scale(0.015625)"/>
        <path id="DejaVuSans-39" d="M 703 97 
L 703 672 
Q 941 559 1184 500 
Q 1428 441 1663 441 
Q 2288 441 2617 861 
Q 2947 1281 2994 2138 
Q 2813 1869 2534 1725 
Q 2256 1581 1919 1581 
Q 1219 1581 811 2004 
Q 403 2428 403 3163 
Q 403 3881 828 4315 
Q 1253 4750 1959 4750 
Q 2769 4750 3195 4129 
Q 3622 3509 3622 2328 
Q 3622 1225 3098 567 
Q 2575 -91 1691 -91 
Q 1453 -91 1209 -44 
Q 966 3 703 97 
z
M 1959 2075 
Q 2384 2075 2632 2365 
Q 2881 2656 2881 3163 
Q 2881 3666 2632 3958 
Q 2384 4250 1959 4250 
Q 1534 4250 1286 3958 
Q 1038 3666 1038 3163 
Q 1038 2656 1286 2365 
Q 1534 2075 1959 2075 
z
" transform="scale(0.015625)"/>
       </defs>
       <use xlink:href="#DejaVuSans-32"/>
       <use xlink:href="#DejaVuSans-30" x="63.623047"/>
       <use xlink:href="#DejaVuSans-32" x="127.246094"/>
       <use xlink:href="#DejaVuSans-31" x="190.869141"/>
       <use xlink:href="#DejaVuSans-2d" x="254.492188"/>
       <use xlink:href="#DejaVuSans-30" x="290.576172"/>
       <use xlink:href="#DejaVuSans-39" x="354.199219"/>
      </g>
     </g>
    </g>
    <g id="xtick_2">
     <g id="line2d_3">
      <path d="M 273.110539 320.4 
L 273.110539 43.2 
" clip-path="url(#p38a095a7b2)" style="fill: none; stroke-dasharray: 5.12,1.28,0.8,1.28; stroke-dashoffset: 0; stroke: #b0b0b0; stroke-width: 0.8"/>
     </g>
     <g id="line2d_4">
      <g>
       <use xlink:href="#mb15e141c19" x="273.110539" y="320.4" style="fill: #a9a9a9; stroke: #a9a9a9; stroke-width: 0.8"/>
      </g>
     </g>
     <g id="text_2">
      <!-- 2021-11 -->
      <g style="fill: #a9a9a9" transform="translate(252.219133 334.998438) scale(0.1 -0.1)">
       <use xlink:href="#DejaVuSans-32"/>
       <use xlink:href="#DejaVuSans-30" x="63.623047"/>
       <use xlink:href="#DejaVuSans-32" x="127.246094"/>
       <use xlink:href="#DejaVuSans-31" x="190.869141"/>
       <use xlink:href="#DejaVuSans-2d" x="254.492188"/>
       <use xlink:href="#DejaVuSans-31" x="290.576172"/>
       <use xlink:href="#DejaVuSans-31" x="354.199219"/>
      </g>
     </g>
    </g>
    <g id="xtick_3">
     <g id="line2d_5">
      <path d="M 355.261786 320.4 
L 355.261786 43.2 
" clip-path="url(#p38a095a7b2)" style="fill: none; stroke-dasharray: 5.12,1.28,0.8,1.28; stroke-dashoffset: 0; stroke: #b0b0b0; stroke-width: 0.8"/>
     </g>
     <g id="line2d_6">
      <g>
       <use xlink:href="#mb15e141c19" x="355.261786" y="320.4" style="fill: #a9a9a9; stroke: #a9a9a9; stroke-width: 0.8"/>
      </g>
     </g>
     <g id="text_3">
      <!-- 2022-01 -->
      <g style="fill: #a9a9a9" transform="translate(334.37038 334.998438) scale(0.1 -0.1)">
       <use xlink:href="#DejaVuSans-32"/>
       <use xlink:href="#DejaVuSans-30" x="63.623047"/>
       <use xlink:href="#DejaVuSans-32" x="127.246094"/>
       <use xlink:href="#DejaVuSans-32" x="190.869141"/>
       <use xlink:href="#DejaVuSans-2d" x="254.492188"/>
       <use xlink:href="#DejaVuSans-30" x="290.576172"/>
       <use xlink:href="#DejaVuSans-31" x="354.199219"/>
      </g>
     </g>
    </g>
    <g id="xtick_4">
     <g id="line2d_7">
      <path d="M 434.719549 320.4 
L 434.719549 43.2 
" clip-path="url(#p38a095a7b2)" style="fill: none; stroke-dasharray: 5.12,1.28,0.8,1.28; stroke-dashoffset: 0; stroke: #b0b0b0; stroke-width: 0.8"/>
     </g>
     <g id="line2d_8">
      <g>
       <use xlink:href="#mb15e141c19" x="434.719549" y="320.4" style="fill: #a9a9a9; stroke: #a9a9a9; stroke-width: 0.8"/>
      </g>
     </g>
     <g id="text_4">
      <!-- 2022-03 -->
      <g style="fill: #a9a9a9" transform="translate(413.828143 334.998438) scale(0.1 -0.1)">
       <defs>
        <path id="DejaVuSans-33" d="M 2597 2516 
Q 3050 2419 3304 2112 
Q 3559 1806 3559 1356 
Q 3559 666 3084 287 
Q 2609 -91 1734 -91 
Q 1441 -91 1130 -33 
Q 819 25 488 141 
L 488 750 
Q 750 597 1062 519 
Q 1375 441 1716 441 
Q 2309 441 2620 675 
Q 2931 909 2931 1356 
Q 2931 1769 2642 2001 
Q 2353 2234 1838 2234 
L 1294 2234 
L 1294 2753 
L 1863 2753 
Q 2328 2753 2575 2939 
Q 2822 3125 2822 3475 
Q 2822 3834 2567 4026 
Q 2313 4219 1838 4219 
Q 1578 4219 1281 4162 
Q 984 4106 628 3988 
L 628 4550 
Q 988 4650 1302 4700 
Q 1616 4750 1894 4750 
Q 2613 4750 3031 4423 
Q 3450 4097 3450 3541 
Q 3450 3153 3228 2886 
Q 3006 2619 2597 2516 
z
" transform="scale(0.015625)"/>
       </defs>
       <use xlink:href="#DejaVuSans-32"/>
       <use xlink:href="#DejaVuSans-30" x="63.623047"/>
       <use xlink:href="#DejaVuSans-32" x="127.246094"/>
       <use xlink:href="#DejaVuSans-32" x="190.869141"/>
       <use xlink:href="#DejaVuSans-2d" x="254.492188"/>
       <use xlink:href="#DejaVuSans-30" x="290.576172"/>
       <use xlink:href="#DejaVuSans-33" x="354.199219"/>
      </g>
     </g>
    </g>
    <g id="xtick_5">
     <g id="line2d_9">
      <path d="M 516.870796 320.4 
L 516.870796 43.2 
" clip-path="url(#p38a095a7b2)" style="fill: none; stroke-dasharray: 5.12,1.28,0.8,1.28; stroke-dashoffset: 0; stroke: #b0b0b0; stroke-width: 0.8"/>
     </g>
     <g id="line2d_10">
      <g>
       <use xlink:href="#mb15e141c19" x="516.870796" y="320.4" style="fill: #a9a9a9; stroke: #a9a9a9; stroke-width: 0.8"/>
      </g>
     </g>
     <g id="text_5">
      <!-- 2022-05 -->
      <g style="fill: #a9a9a9" transform="translate(495.97939 334.998438) scale(0.1 -0.1)">
       <defs>
        <path id="DejaVuSans-35" d="M 691 4666 
L 3169 4666 
L 3169 4134 
L 1269 4134 
L 1269 2991 
Q 1406 3038 1543 3061 
Q 1681 3084 1819 3084 
Q 2600 3084 3056 2656 
Q 3513 2228 3513 1497 
Q 3513 744 3044 326 
Q 2575 -91 1722 -91 
Q 1428 -91 1123 -41 
Q 819 9 494 109 
L 494 744 
Q 775 591 1075 516 
Q 1375 441 1709 441 
Q 2250 441 2565 725 
Q 2881 1009 2881 1497 
Q 2881 1984 2565 2268 
Q 2250 2553 1709 2553 
Q 1456 2553 1204 2497 
Q 953 2441 691 2322 
L 691 4666 
z
" transform="scale(0.015625)"/>
       </defs>
       <use xlink:href="#DejaVuSans-32"/>
       <use xlink:href="#DejaVuSans-30" x="63.623047"/>
       <use xlink:href="#DejaVuSans-32" x="127.246094"/>
       <use xlink:href="#DejaVuSans-32" x="190.869141"/>
       <use xlink:href="#DejaVuSans-2d" x="254.492188"/>
       <use xlink:href="#DejaVuSans-30" x="290.576172"/>
       <use xlink:href="#DejaVuSans-35" x="354.199219"/>
      </g>
     </g>
    </g>
    <g id="xtick_6">
     <g id="line2d_11">
      <path d="M 599.022043 320.4 
L 599.022043 43.2 
" clip-path="url(#p38a095a7b2)" style="fill: none; stroke-dasharray: 5.12,1.28,0.8,1.28; stroke-dashoffset: 0; stroke: #b0b0b0; stroke-width: 0.8"/>
     </g>
     <g id="line2d_12">
      <g>
       <use xlink:href="#mb15e141c19" x="599.022043" y="320.4" style="fill: #a9a9a9; stroke: #a9a9a9; stroke-width: 0.8"/>
      </g>
     </g>
     <g id="text_6">
      <!-- 2022-07 -->
      <g style="fill: #a9a9a9" transform="translate(578.130637 334.998438) scale(0.1 -0.1)">
       <defs>
        <path id="DejaVuSans-37" d="M 525 4666 
L 3525 4666 
L 3525 4397 
L 1831 0 
L 1172 0 
L 2766 4134 
L 525 4134 
L 525 4666 
z
" transform="scale(0.015625)"/>
       </defs>
       <use xlink:href="#DejaVuSans-32"/>
       <use xlink:href="#DejaVuSans-30" x="63.623047"/>
       <use xlink:href="#DejaVuSans-32" x="127.246094"/>
       <use xlink:href="#DejaVuSans-32" x="190.869141"/>
       <use xlink:href="#DejaVuSans-2d" x="254.492188"/>
       <use xlink:href="#DejaVuSans-30" x="290.576172"/>
       <use xlink:href="#DejaVuSans-37" x="354.199219"/>
      </g>
     </g>
    </g>
    <g id="xtick_7">
     <g id="line2d_13">
      <path d="M 682.520032 320.4 
L 682.520032 43.2 
" clip-path="url(#p38a095a7b2)" style="fill: none; stroke-dasharray: 5.12,1.28,0.8,1.28; stroke-dashoffset: 0; stroke: #b0b0b0; stroke-width: 0.8"/>
     </g>
     <g id="line2d_14">
      <g>
       <use xlink:href="#mb15e141c19" x="682.520032" y="320.4" style="fill: #a9a9a9; stroke: #a9a9a9; stroke-width: 0.8"/>
      </g>
     </g>
     <g id="text_7">
      <!-- 2022-09 -->
      <g style="fill: #a9a9a9" transform="translate(661.628626 334.998438) scale(0.1 -0.1)">
       <use xlink:href="#DejaVuSans-32"/>
       <use xlink:href="#DejaVuSans-30" x="63.623047"/>
       <use xlink:href="#DejaVuSans-32" x="127.246094"/>
       <use xlink:href="#DejaVuSans-32" x="190.869141"/>
       <use xlink:href="#DejaVuSans-2d" x="254.492188"/>
       <use xlink:href="#DejaVuSans-30" x="290.576172"/>
       <use xlink:href="#DejaVuSans-39" x="354.199219"/>
      </g>
     </g>
    </g>
    <g id="xtick_8">
     <g id="line2d_15">
      <path d="M 764.671279 320.4 
L 764.671279 43.2 
" clip-path="url(#p38a095a7b2)" style="fill: none; stroke-dasharray: 5.12,1.28,0.8,1.28; stroke-dashoffset: 0; stroke: #b0b0b0; stroke-width: 0.8"/>
     </g>
     <g id="line2d_16">
      <g>
       <use xlink:href="#mb15e141c19" x="764.671279" y="320.4" style="fill: #a9a9a9; stroke: #a9a9a9; stroke-width: 0.8"/>
      </g>
     </g>
     <g id="text_8">
      <!-- 2022-11 -->
      <g style="fill: #a9a9a9" transform="translate(743.779873 334.998438) scale(0.1 -0.1)">
       <use xlink:href="#DejaVuSans-32"/>
       <use xlink:href="#DejaVuSans-30" x="63.623047"/>
       <use xlink:href="#DejaVuSans-32" x="127.246094"/>
       <use xlink:href="#DejaVuSans-32" x="190.869141"/>
       <use xlink:href="#DejaVuSans-2d" x="254.492188"/>
       <use xlink:href="#DejaVuSans-31" x="290.576172"/>
       <use xlink:href="#DejaVuSans-31" x="354.199219"/>
      </g>
     </g>
    </g>
   </g>
   <g id="matplotlib.axis_2">
    <g id="ytick_1">
     <g id="line2d_17">
      <path d="M 108 307.887774 
L 777.6 307.887774 
" clip-path="url(#p38a095a7b2)" style="fill: none; stroke-dasharray: 5.12,1.28,0.8,1.28; stroke-dashoffset: 0; stroke: #b0b0b0; stroke-width: 0.8"/>
     </g>
     <g id="line2d_18">
      <defs>
       <path id="m758434ebe0" d="M 0 0 
L -3.5 0 
" style="stroke: #a9a9a9; stroke-width: 0.8"/>
      </defs>
      <g>
       <use xlink:href="#m758434ebe0" x="108" y="307.887774" style="fill: #a9a9a9; stroke: #a9a9a9; stroke-width: 0.8"/>
      </g>
     </g>
     <g id="text_9">
      <!-- 0 -->
      <g style="fill: #a9a9a9" transform="translate(94.6375 311.686993) scale(0.1 -0.1)">
       <use xlink:href="#DejaVuSans-30"/>
      </g>
     </g>
    </g>
    <g id="ytick_2">
     <g id="line2d_19">
      <path d="M 108 272.778056 
L 777.6 272.778056 
" clip-path="url(#p38a095a7b2)" style="fill: none; stroke-dasharray: 5.12,1.28,0.8,1.28; stroke-dashoffset: 0; stroke: #b0b0b0; stroke-width: 0.8"/>
     </g>
     <g id="line2d_20">
      <g>
       <use xlink:href="#m758434ebe0" x="108" y="272.778056" style="fill: #a9a9a9; stroke: #a9a9a9; stroke-width: 0.8"/>
      </g>
     </g>
     <g id="text_10">
      <!-- 400 -->
      <g style="fill: #a9a9a9" transform="translate(81.9125 276.577275) scale(0.1 -0.1)">
       <defs>
        <path id="DejaVuSans-34" d="M 2419 4116 
L 825 1625 
L 2419 1625 
L 2419 4116 
z
M 2253 4666 
L 3047 4666 
L 3047 1625 
L 3713 1625 
L 3713 1100 
L 3047 1100 
L 3047 0 
L 2419 0 
L 2419 1100 
L 313 1100 
L 313 1709 
L 2253 4666 
z
" transform="scale(0.015625)"/>
       </defs>
       <use xlink:href="#DejaVuSans-34"/>
       <use xlink:href="#DejaVuSans-30" x="63.623047"/>
       <use xlink:href="#DejaVuSans-30" x="127.246094"/>
      </g>
     </g>
    </g>
    <g id="ytick_3">
     <g id="line2d_21">
      <path d="M 108 237.668339 
L 777.6 237.668339 
" clip-path="url(#p38a095a7b2)" style="fill: none; stroke-dasharray: 5.12,1.28,0.8,1.28; stroke-dashoffset: 0; stroke: #b0b0b0; stroke-width: 0.8"/>
     </g>
     <g id="line2d_22">
      <g>
       <use xlink:href="#m758434ebe0" x="108" y="237.668339" style="fill: #a9a9a9; stroke: #a9a9a9; stroke-width: 0.8"/>
      </g>
     </g>
     <g id="text_11">
      <!-- 800 -->
      <g style="fill: #a9a9a9" transform="translate(81.9125 241.467557) scale(0.1 -0.1)">
       <defs>
        <path id="DejaVuSans-38" d="M 2034 2216 
Q 1584 2216 1326 1975 
Q 1069 1734 1069 1313 
Q 1069 891 1326 650 
Q 1584 409 2034 409 
Q 2484 409 2743 651 
Q 3003 894 3003 1313 
Q 3003 1734 2745 1975 
Q 2488 2216 2034 2216 
z
M 1403 2484 
Q 997 2584 770 2862 
Q 544 3141 544 3541 
Q 544 4100 942 4425 
Q 1341 4750 2034 4750 
Q 2731 4750 3128 4425 
Q 3525 4100 3525 3541 
Q 3525 3141 3298 2862 
Q 3072 2584 2669 2484 
Q 3125 2378 3379 2068 
Q 3634 1759 3634 1313 
Q 3634 634 3220 271 
Q 2806 -91 2034 -91 
Q 1263 -91 848 271 
Q 434 634 434 1313 
Q 434 1759 690 2068 
Q 947 2378 1403 2484 
z
M 1172 3481 
Q 1172 3119 1398 2916 
Q 1625 2713 2034 2713 
Q 2441 2713 2670 2916 
Q 2900 3119 2900 3481 
Q 2900 3844 2670 4047 
Q 2441 4250 2034 4250 
Q 1625 4250 1398 4047 
Q 1172 3844 1172 3481 
z
" transform="scale(0.015625)"/>
       </defs>
       <use xlink:href="#DejaVuSans-38"/>
       <use xlink:href="#DejaVuSans-30" x="63.623047"/>
       <use xlink:href="#DejaVuSans-30" x="127.246094"/>
      </g>
     </g>
    </g>
    <g id="ytick_4">
     <g id="line2d_23">
      <path d="M 108 202.558621 
L 777.6 202.558621 
" clip-path="url(#p38a095a7b2)" style="fill: none; stroke-dasharray: 5.12,1.28,0.8,1.28; stroke-dashoffset: 0; stroke: #b0b0b0; stroke-width: 0.8"/>
     </g>
     <g id="line2d_24">
      <g>
       <use xlink:href="#m758434ebe0" x="108" y="202.558621" style="fill: #a9a9a9; stroke: #a9a9a9; stroke-width: 0.8"/>
      </g>
     </g>
     <g id="text_12">
      <!-- 1200 -->
      <g style="fill: #a9a9a9" transform="translate(75.55 206.357839) scale(0.1 -0.1)">
       <use xlink:href="#DejaVuSans-31"/>
       <use xlink:href="#DejaVuSans-32" x="63.623047"/>
       <use xlink:href="#DejaVuSans-30" x="127.246094"/>
       <use xlink:href="#DejaVuSans-30" x="190.869141"/>
      </g>
     </g>
    </g>
    <g id="ytick_5">
     <g id="line2d_25">
      <path d="M 108 167.448903 
L 777.6 167.448903 
" clip-path="url(#p38a095a7b2)" style="fill: none; stroke-dasharray: 5.12,1.28,0.8,1.28; stroke-dashoffset: 0; stroke: #b0b0b0; stroke-width: 0.8"/>
     </g>
     <g id="line2d_26">
      <g>
       <use xlink:href="#m758434ebe0" x="108" y="167.448903" style="fill: #a9a9a9; stroke: #a9a9a9; stroke-width: 0.8"/>
      </g>
     </g>
     <g id="text_13">
      <!-- 1600 -->
      <g style="fill: #a9a9a9" transform="translate(75.55 171.248122) scale(0.1 -0.1)">
       <defs>
        <path id="DejaVuSans-36" d="M 2113 2584 
Q 1688 2584 1439 2293 
Q 1191 2003 1191 1497 
Q 1191 994 1439 701 
Q 1688 409 2113 409 
Q 2538 409 2786 701 
Q 3034 994 3034 1497 
Q 3034 2003 2786 2293 
Q 2538 2584 2113 2584 
z
M 3366 4563 
L 3366 3988 
Q 3128 4100 2886 4159 
Q 2644 4219 2406 4219 
Q 1781 4219 1451 3797 
Q 1122 3375 1075 2522 
Q 1259 2794 1537 2939 
Q 1816 3084 2150 3084 
Q 2853 3084 3261 2657 
Q 3669 2231 3669 1497 
Q 3669 778 3244 343 
Q 2819 -91 2113 -91 
Q 1303 -91 875 529 
Q 447 1150 447 2328 
Q 447 3434 972 4092 
Q 1497 4750 2381 4750 
Q 2619 4750 2861 4703 
Q 3103 4656 3366 4563 
z
" transform="scale(0.015625)"/>
       </defs>
       <use xlink:href="#DejaVuSans-31"/>
       <use xlink:href="#DejaVuSans-36" x="63.623047"/>
       <use xlink:href="#DejaVuSans-30" x="127.246094"/>
       <use xlink:href="#DejaVuSans-30" x="190.869141"/>
      </g>
     </g>
    </g>
    <g id="ytick_6">
     <g id="line2d_27">
      <path d="M 108 132.339185 
L 777.6 132.339185 
" clip-path="url(#p38a095a7b2)" style="fill: none; stroke-dasharray: 5.12,1.28,0.8,1.28; stroke-dashoffset: 0; stroke: #b0b0b0; stroke-width: 0.8"/>
     </g>
     <g id="line2d_28">
      <g>
       <use xlink:href="#m758434ebe0" x="108" y="132.339185" style="fill: #a9a9a9; stroke: #a9a9a9; stroke-width: 0.8"/>
      </g>
     </g>
     <g id="text_14">
      <!-- 2000 -->
      <g style="fill: #a9a9a9" transform="translate(75.55 136.138404) scale(0.1 -0.1)">
       <use xlink:href="#DejaVuSans-32"/>
       <use xlink:href="#DejaVuSans-30" x="63.623047"/>
       <use xlink:href="#DejaVuSans-30" x="127.246094"/>
       <use xlink:href="#DejaVuSans-30" x="190.869141"/>
      </g>
     </g>
    </g>
    <g id="ytick_7">
     <g id="line2d_29">
      <path d="M 108 97.229467 
L 777.6 97.229467 
" clip-path="url(#p38a095a7b2)" style="fill: none; stroke-dasharray: 5.12,1.28,0.8,1.28; stroke-dashoffset: 0; stroke: #b0b0b0; stroke-width: 0.8"/>
     </g>
     <g id="line2d_30">
      <g>
       <use xlink:href="#m758434ebe0" x="108" y="97.229467" style="fill: #a9a9a9; stroke: #a9a9a9; stroke-width: 0.8"/>
      </g>
     </g>
     <g id="text_15">
      <!-- 2400 -->
      <g style="fill: #a9a9a9" transform="translate(75.55 101.028686) scale(0.1 -0.1)">
       <use xlink:href="#DejaVuSans-32"/>
       <use xlink:href="#DejaVuSans-34" x="63.623047"/>
       <use xlink:href="#DejaVuSans-30" x="127.246094"/>
       <use xlink:href="#DejaVuSans-30" x="190.869141"/>
      </g>
     </g>
    </g>
    <g id="ytick_8">
     <g id="line2d_31">
      <path d="M 108 62.119749 
L 777.6 62.119749 
" clip-path="url(#p38a095a7b2)" style="fill: none; stroke-dasharray: 5.12,1.28,0.8,1.28; stroke-dashoffset: 0; stroke: #b0b0b0; stroke-width: 0.8"/>
     </g>
     <g id="line2d_32">
      <g>
       <use xlink:href="#m758434ebe0" x="108" y="62.119749" style="fill: #a9a9a9; stroke: #a9a9a9; stroke-width: 0.8"/>
      </g>
     </g>
     <g id="text_16">
      <!-- 2800 -->
      <g style="fill: #a9a9a9" transform="translate(75.55 65.918968) scale(0.1 -0.1)">
       <use xlink:href="#DejaVuSans-32"/>
       <use xlink:href="#DejaVuSans-38" x="63.623047"/>
       <use xlink:href="#DejaVuSans-30" x="127.246094"/>
       <use xlink:href="#DejaVuSans-30" x="190.869141"/>
      </g>
     </g>
    </g>
   </g>
   <g id="line2d_33">
    <path d="M 138.436364 307.536677 
L 143.823331 307.097806 
L 145.170072 306.922257 
L 146.516814 306.922257 
L 147.863556 306.395611 
L 150.557039 306.220063 
L 159.984232 304.376803 
L 162.677715 304.11348 
L 164.024457 303.850157 
L 168.064682 303.586834 
L 169.411424 302.884639 
L 170.758166 302.533542 
L 172.104907 300.953605 
L 173.451649 300.075862 
L 174.798391 297.003762 
L 176.145133 296.828213 
L 177.491874 295.862696 
L 178.838616 295.33605 
L 180.185358 294.546082 
L 184.225583 291.298433 
L 185.572325 290.596238 
L 188.265809 289.455172 
L 189.61255 288.489655 
L 190.959292 287.963009 
L 193.652776 286.295298 
L 194.999517 285.856426 
L 196.346259 283.662069 
L 197.693001 282.608777 
L 199.039743 281.818809 
L 200.386484 281.204389 
L 205.773451 280.41442 
L 209.813677 279.712226 
L 212.50716 279.536677 
L 213.853902 279.273354 
L 215.200644 278.57116 
L 220.587611 278.132288 
L 224.627836 277.693417 
L 225.974578 277.254545 
L 232.708286 275.937931 
L 235.40177 275.674608 
L 236.748512 275.323511 
L 240.788737 274.796865 
L 242.135479 274.094671 
L 243.48222 273.919122 
L 246.175704 272.953605 
L 248.869187 272.690282 
L 250.215929 272.251411 
L 255.602896 271.461442 
L 256.949638 271.022571 
L 259.643121 270.583699 
L 260.989863 270.583699 
L 267.723572 269.705956 
L 270.417056 268.915987 
L 271.763797 268.56489 
L 274.457281 268.301567 
L 275.804023 268.213793 
L 279.844248 267.423824 
L 281.19099 266.897179 
L 282.537731 265.141693 
L 283.884473 264.615047 
L 285.231215 263.912853 
L 286.577957 263.737304 
L 287.924698 263.386207 
L 289.27144 263.210658 
L 291.964924 262.069592 
L 293.311665 261.981818 
L 300.045374 260.138558 
L 301.392116 260.138558 
L 304.085599 259.787461 
L 306.779083 258.997492 
L 310.819308 257.944201 
L 312.16605 257.856426 
L 314.859533 256.715361 
L 316.206275 256.539812 
L 317.553017 255.925392 
L 320.2465 255.662069 
L 321.593242 255.574295 
L 325.633467 254.8721 
L 328.326951 254.433229 
L 332.367176 253.64326 
L 333.713918 253.204389 
L 335.06066 253.02884 
L 337.754143 252.063323 
L 339.100885 251.273354 
L 340.447627 250.922257 
L 341.794368 250.746708 
L 344.487852 249.868966 
L 347.181335 248.376803 
L 348.528077 247.49906 
L 349.874819 247.323511 
L 351.221561 246.884639 
L 352.568302 246.709091 
L 353.915044 246.357994 
L 355.261786 246.182445 
L 356.608528 245.568025 
L 359.302011 245.041379 
L 360.648753 244.339185 
L 361.995495 243.812539 
L 363.342237 243.461442 
L 364.688978 243.285893 
L 366.03572 242.759248 
L 371.422687 241.705956 
L 374.116171 240.56489 
L 375.462912 240.301567 
L 376.809654 239.774922 
L 378.156396 239.599373 
L 379.503138 238.984953 
L 380.849879 238.633856 
L 383.543363 238.458307 
L 386.236846 237.49279 
L 387.583588 237.317241 
L 388.93033 237.317241 
L 390.277072 236.702821 
L 392.970555 236.26395 
L 394.317297 235.737304 
L 397.01078 235.64953 
L 402.397747 234.947335 
L 405.091231 233.630721 
L 407.784714 232.401881 
L 409.131456 232.050784 
L 410.478198 231.173041 
L 411.82494 230.734169 
L 414.518423 229.505329 
L 415.865165 229.242006 
L 417.211907 228.627586 
L 418.558648 228.188715 
L 419.90539 227.310972 
L 421.252132 226.608777 
L 422.598874 225.204389 
L 423.945615 223.010031 
L 425.292357 221.166771 
L 426.639099 220.7279 
L 427.985841 220.640125 
L 429.332582 219.762382 
L 430.679324 218.709091 
L 432.026066 218.357994 
L 433.372808 217.655799 
L 434.719549 217.392476 
L 436.066291 216.163636 
L 437.413033 215.812539 
L 441.453258 213.969279 
L 442.8 212.389342 
L 444.146742 210.194984 
L 445.493484 209.405016 
L 446.840225 207.210658 
L 448.186967 205.894044 
L 449.533709 205.279624 
L 450.880451 204.928527 
L 452.227192 203.963009 
L 454.920676 202.646395 
L 456.267418 201.680878 
L 457.614159 200.539812 
L 458.960901 199.574295 
L 460.307643 198.784326 
L 461.654385 196.853292 
L 463.001126 193.781191 
L 464.347868 191.762382 
L 465.69461 190.709091 
L 467.041352 190.094671 
L 471.081577 186.495925 
L 475.121802 183.248276 
L 476.468544 182.10721 
L 477.815286 180.176176 
L 479.162027 178.859561 
L 480.508769 177.80627 
L 483.202253 175.963009 
L 485.895736 174.031975 
L 487.242478 172.890909 
L 488.58922 172.539812 
L 489.935961 171.925392 
L 493.976187 169.64326 
L 496.66967 168.326646 
L 499.363154 165.95674 
L 500.709895 164.289028 
L 502.056637 163.323511 
L 503.403379 162.533542 
L 504.750121 162.182445 
L 506.096862 161.480251 
L 507.443604 160.514734 
L 510.137088 159.110345 
L 511.483829 158.847022 
L 512.830571 157.969279 
L 514.177313 157.267085 
L 515.524055 156.389342 
L 516.870796 155.072727 
L 518.217538 154.10721 
L 519.56428 153.668339 
L 520.911022 152.702821 
L 522.257763 152.088401 
L 523.604505 151.210658 
L 524.951247 150.596238 
L 526.297989 149.718495 
L 527.64473 148.577429 
L 530.338214 147.611912 
L 531.684956 146.997492 
L 533.031698 146.734169 
L 534.378439 145.856426 
L 535.725181 145.593103 
L 543.805632 142.433229 
L 545.152373 142.082132 
L 546.499115 141.555486 
L 549.192599 141.02884 
L 550.53934 139.712226 
L 551.886082 138.658934 
L 553.232824 138.132288 
L 558.619791 135.060188 
L 559.966533 134.533542 
L 561.313274 134.182445 
L 562.660016 133.129154 
L 564.006758 132.690282 
L 566.700241 130.934796 
L 568.046983 130.232602 
L 572.087208 129.354859 
L 574.780692 128.56489 
L 578.820917 126.282759 
L 580.167659 126.10721 
L 581.514401 125.580564 
L 582.861142 125.405016 
L 584.207884 124.87837 
L 585.554626 124.000627 
L 586.901368 122.947335 
L 588.248109 122.069592 
L 589.594851 121.80627 
L 590.941593 121.104075 
L 592.288335 120.840752 
L 593.635076 120.314107 
L 594.981818 119.348589 
L 596.32856 118.909718 
L 597.675302 118.295298 
L 603.062269 116.803135 
L 604.40901 116.715361 
L 605.755752 116.276489 
L 608.449236 115.047649 
L 609.795977 114.608777 
L 611.142719 114.345455 
L 615.182944 112.502194 
L 617.876428 111.712226 
L 619.22317 111.624451 
L 621.916653 111.010031 
L 623.263395 110.307837 
L 624.610137 109.95674 
L 627.30362 108.815674 
L 631.343846 106.884639 
L 634.037329 105.129154 
L 635.384071 104.690282 
L 636.730813 103.900313 
L 638.077554 103.373668 
L 639.424296 102.583699 
L 642.11778 101.881505 
L 643.464521 101.091536 
L 646.158005 99.95047 
L 648.851488 99.511599 
L 650.19823 98.546082 
L 651.544972 97.843887 
L 652.891714 97.580564 
L 654.238455 97.053918 
L 655.585197 96.351724 
L 656.931939 96.088401 
L 658.278681 95.386207 
L 663.665648 94.596238 
L 666.359131 93.367398 
L 667.705873 92.314107 
L 669.052615 89.856426 
L 670.399356 89.505329 
L 671.746098 89.329781 
L 673.09284 88.978683 
L 675.786323 87.48652 
L 677.133065 86.959875 
L 678.479807 86.25768 
L 679.826549 85.906583 
L 682.520032 84.589969 
L 685.213516 83.273354 
L 687.906999 82.132288 
L 689.253741 81.254545 
L 690.600483 80.7279 
L 694.640708 79.674608 
L 697.334191 78.357994 
L 698.680933 77.743574 
L 700.027675 77.480251 
L 704.0679 75.812539 
L 706.761384 74.144828 
L 708.108126 73.091536 
L 709.454867 72.389342 
L 710.801609 72.126019 
L 712.148351 71.599373 
L 713.495093 71.511599 
L 718.88206 69.668339 
L 720.228801 69.580564 
L 721.575543 68.615047 
L 722.922285 68.176176 
L 724.269027 67.561755 
L 728.309252 66.157367 
L 729.655994 65.367398 
L 731.002735 64.928527 
L 732.349477 64.050784 
L 733.696219 63.348589 
L 735.042961 62.470846 
L 739.083186 60.890909 
L 743.123411 58.696552 
L 744.470153 57.731034 
L 745.816895 55.975549 
L 747.163636 55.8 
L 747.163636 55.8 
" clip-path="url(#p38a095a7b2)" style="fill: none; stroke: #1f77b4; stroke-width: 1.5; stroke-linecap: square"/>
   </g>
   <g id="line2d_34">
    <path d="M 139.783105 307.8 
L 142.476589 307.8 
L 145.170072 307.448903 
L 153.250523 307.361129 
L 157.290748 307.18558 
L 161.330973 307.097806 
L 164.024457 307.010031 
L 168.064682 307.010031 
L 169.411424 306.658934 
L 173.451649 306.57116 
L 180.185358 305.781191 
L 190.959292 305.166771 
L 192.306034 305.166771 
L 193.652776 304.903448 
L 197.693001 304.815674 
L 200.386484 304.464577 
L 205.773451 304.464577 
L 207.120193 304.289028 
L 213.853902 304.201254 
L 217.894127 304.025705 
L 230.014803 303.937931 
L 232.708286 303.850157 
L 238.095253 303.762382 
L 242.135479 303.586834 
L 247.522446 303.586834 
L 248.869187 303.411285 
L 252.909413 303.323511 
L 258.29638 303.060188 
L 267.723572 302.972414 
L 270.417056 302.884639 
L 275.804023 302.796865 
L 279.844248 302.270219 
L 286.577957 302.182445 
L 293.311665 301.831348 
L 300.045374 301.743574 
L 304.085599 301.568025 
L 306.779083 301.480251 
L 310.819308 301.041379 
L 314.859533 300.865831 
L 318.899759 300.778056 
L 321.593242 300.690282 
L 324.286726 300.690282 
L 325.633467 300.514734 
L 329.673693 300.514734 
L 333.713918 300.075862 
L 337.754143 299.988088 
L 340.447627 299.900313 
L 343.14111 299.900313 
L 348.528077 299.285893 
L 349.874819 299.198119 
L 351.221561 298.934796 
L 356.608528 298.847022 
L 360.648753 298.495925 
L 363.342237 298.232602 
L 370.075945 297.881505 
L 374.116171 297.79373 
L 378.156396 297.618182 
L 379.503138 297.618182 
L 382.196621 297.354859 
L 384.890105 297.267085 
L 386.236846 297.267085 
L 387.583588 297.091536 
L 390.277072 297.003762 
L 397.01078 296.652665 
L 399.704264 296.56489 
L 403.744489 296.389342 
L 407.784714 296.301567 
L 410.478198 296.213793 
L 417.211907 296.126019 
L 422.598874 295.511599 
L 423.945615 295.511599 
L 426.639099 295.248276 
L 429.332582 295.160502 
L 434.719549 294.72163 
L 436.066291 294.546082 
L 437.413033 294.194984 
L 440.106516 294.019436 
L 441.453258 293.668339 
L 445.493484 293.317241 
L 448.186967 292.702821 
L 452.227192 292.527273 
L 453.573934 292.527273 
L 454.920676 292.351724 
L 456.267418 292.351724 
L 458.960901 291.912853 
L 464.347868 290.947335 
L 465.69461 290.947335 
L 467.041352 290.771787 
L 471.081577 290.684013 
L 488.58922 289.542947 
L 489.935961 289.279624 
L 493.976187 289.016301 
L 496.66967 288.577429 
L 499.363154 288.314107 
L 502.056637 288.226332 
L 504.750121 288.226332 
L 506.096862 287.875235 
L 507.443604 287.699687 
L 510.137088 287.611912 
L 519.56428 286.909718 
L 523.604505 286.119749 
L 526.297989 286.031975 
L 533.031698 285.680878 
L 537.071923 285.593103 
L 554.579566 284.539812 
L 557.273049 284.539812 
L 559.966533 284.276489 
L 562.660016 284.276489 
L 566.700241 283.837618 
L 572.087208 283.574295 
L 574.780692 283.48652 
L 576.127434 283.310972 
L 581.514401 283.223197 
L 590.941593 282.696552 
L 597.675302 282.608777 
L 600.368785 282.521003 
L 601.715527 282.521003 
L 603.062269 282.25768 
L 605.755752 282.169906 
L 613.836203 282.082132 
L 619.22317 281.818809 
L 623.263395 281.731034 
L 624.610137 281.467712 
L 629.997104 281.379937 
L 634.037329 281.204389 
L 638.077554 281.116614 
L 640.771038 281.02884 
L 643.464521 280.941066 
L 654.238455 280.326646 
L 660.972164 280.238871 
L 665.012389 279.887774 
L 667.705873 279.624451 
L 670.399356 279.536677 
L 673.09284 279.448903 
L 674.439582 279.273354 
L 678.479807 279.18558 
L 679.826549 278.834483 
L 685.213516 278.57116 
L 697.334191 278.483386 
L 701.374417 278.132288 
L 706.761384 277.517868 
L 709.454867 277.430094 
L 714.841834 277.34232 
L 720.228801 276.7279 
L 726.96251 276.376803 
L 729.655994 276.289028 
L 735.042961 276.025705 
L 740.429928 275.937931 
L 744.470153 275.762382 
L 747.163636 275.762382 
L 747.163636 275.762382 
" clip-path="url(#p38a095a7b2)" style="fill: none; stroke: #ff7f0e; stroke-width: 1.5; stroke-linecap: square"/>
   </g>
   <g id="patch_3">
    <path d="M 108 320.4 
L 108 43.2 
" style="fill: none; stroke: #a9a9a9; stroke-width: 0.8; stroke-linejoin: miter; stroke-linecap: square"/>
   </g>
   <g id="patch_4">
    <path d="M 777.6 320.4 
L 777.6 43.2 
" style="fill: none"/>
   </g>
   <g id="patch_5">
    <path d="M 108 320.4 
L 777.6 320.4 
" style="fill: none; stroke: #a9a9a9; stroke-width: 0.8; stroke-linejoin: miter; stroke-linecap: square"/>
   </g>
   <g id="patch_6">
    <path d="M 108 43.2 
L 777.6 43.2 
" style="fill: none"/>
   </g>
   <g id="text_17">
    <!-- get_subscribe history -->
    <g style="fill: #a9a9a9" transform="translate(378.6075 37.2) scale(0.12 -0.12)">
     <defs>
      <path id="DejaVuSans-67" d="M 2906 1791 
Q 2906 2416 2648 2759 
Q 2391 3103 1925 3103 
Q 1463 3103 1205 2759 
Q 947 2416 947 1791 
Q 947 1169 1205 825 
Q 1463 481 1925 481 
Q 2391 481 2648 825 
Q 2906 1169 2906 1791 
z
M 3481 434 
Q 3481 -459 3084 -895 
Q 2688 -1331 1869 -1331 
Q 1566 -1331 1297 -1286 
Q 1028 -1241 775 -1147 
L 775 -588 
Q 1028 -725 1275 -790 
Q 1522 -856 1778 -856 
Q 2344 -856 2625 -561 
Q 2906 -266 2906 331 
L 2906 616 
Q 2728 306 2450 153 
Q 2172 0 1784 0 
Q 1141 0 747 490 
Q 353 981 353 1791 
Q 353 2603 747 3093 
Q 1141 3584 1784 3584 
Q 2172 3584 2450 3431 
Q 2728 3278 2906 2969 
L 2906 3500 
L 3481 3500 
L 3481 434 
z
" transform="scale(0.015625)"/>
      <path id="DejaVuSans-65" d="M 3597 1894 
L 3597 1613 
L 953 1613 
Q 991 1019 1311 708 
Q 1631 397 2203 397 
Q 2534 397 2845 478 
Q 3156 559 3463 722 
L 3463 178 
Q 3153 47 2828 -22 
Q 2503 -91 2169 -91 
Q 1331 -91 842 396 
Q 353 884 353 1716 
Q 353 2575 817 3079 
Q 1281 3584 2069 3584 
Q 2775 3584 3186 3129 
Q 3597 2675 3597 1894 
z
M 3022 2063 
Q 3016 2534 2758 2815 
Q 2500 3097 2075 3097 
Q 1594 3097 1305 2825 
Q 1016 2553 972 2059 
L 3022 2063 
z
" transform="scale(0.015625)"/>
      <path id="DejaVuSans-74" d="M 1172 4494 
L 1172 3500 
L 2356 3500 
L 2356 3053 
L 1172 3053 
L 1172 1153 
Q 1172 725 1289 603 
Q 1406 481 1766 481 
L 2356 481 
L 2356 0 
L 1766 0 
Q 1100 0 847 248 
Q 594 497 594 1153 
L 594 3053 
L 172 3053 
L 172 3500 
L 594 3500 
L 594 4494 
L 1172 4494 
z
" transform="scale(0.015625)"/>
      <path id="DejaVuSans-5f" d="M 3263 -1063 
L 3263 -1509 
L -63 -1509 
L -63 -1063 
L 3263 -1063 
z
" transform="scale(0.015625)"/>
      <path id="DejaVuSans-73" d="M 2834 3397 
L 2834 2853 
Q 2591 2978 2328 3040 
Q 2066 3103 1784 3103 
Q 1356 3103 1142 2972 
Q 928 2841 928 2578 
Q 928 2378 1081 2264 
Q 1234 2150 1697 2047 
L 1894 2003 
Q 2506 1872 2764 1633 
Q 3022 1394 3022 966 
Q 3022 478 2636 193 
Q 2250 -91 1575 -91 
Q 1294 -91 989 -36 
Q 684 19 347 128 
L 347 722 
Q 666 556 975 473 
Q 1284 391 1588 391 
Q 1994 391 2212 530 
Q 2431 669 2431 922 
Q 2431 1156 2273 1281 
Q 2116 1406 1581 1522 
L 1381 1569 
Q 847 1681 609 1914 
Q 372 2147 372 2553 
Q 372 3047 722 3315 
Q 1072 3584 1716 3584 
Q 2034 3584 2315 3537 
Q 2597 3491 2834 3397 
z
" transform="scale(0.015625)"/>
      <path id="DejaVuSans-75" d="M 544 1381 
L 544 3500 
L 1119 3500 
L 1119 1403 
Q 1119 906 1312 657 
Q 1506 409 1894 409 
Q 2359 409 2629 706 
Q 2900 1003 2900 1516 
L 2900 3500 
L 3475 3500 
L 3475 0 
L 2900 0 
L 2900 538 
Q 2691 219 2414 64 
Q 2138 -91 1772 -91 
Q 1169 -91 856 284 
Q 544 659 544 1381 
z
M 1991 3584 
L 1991 3584 
z
" transform="scale(0.015625)"/>
      <path id="DejaVuSans-62" d="M 3116 1747 
Q 3116 2381 2855 2742 
Q 2594 3103 2138 3103 
Q 1681 3103 1420 2742 
Q 1159 2381 1159 1747 
Q 1159 1113 1420 752 
Q 1681 391 2138 391 
Q 2594 391 2855 752 
Q 3116 1113 3116 1747 
z
M 1159 2969 
Q 1341 3281 1617 3432 
Q 1894 3584 2278 3584 
Q 2916 3584 3314 3078 
Q 3713 2572 3713 1747 
Q 3713 922 3314 415 
Q 2916 -91 2278 -91 
Q 1894 -91 1617 61 
Q 1341 213 1159 525 
L 1159 0 
L 581 0 
L 581 4863 
L 1159 4863 
L 1159 2969 
z
" transform="scale(0.015625)"/>
      <path id="DejaVuSans-63" d="M 3122 3366 
L 3122 2828 
Q 2878 2963 2633 3030 
Q 2388 3097 2138 3097 
Q 1578 3097 1268 2742 
Q 959 2388 959 1747 
Q 959 1106 1268 751 
Q 1578 397 2138 397 
Q 2388 397 2633 464 
Q 2878 531 3122 666 
L 3122 134 
Q 2881 22 2623 -34 
Q 2366 -91 2075 -91 
Q 1284 -91 818 406 
Q 353 903 353 1747 
Q 353 2603 823 3093 
Q 1294 3584 2113 3584 
Q 2378 3584 2631 3529 
Q 2884 3475 3122 3366 
z
" transform="scale(0.015625)"/>
      <path id="DejaVuSans-72" d="M 2631 2963 
Q 2534 3019 2420 3045 
Q 2306 3072 2169 3072 
Q 1681 3072 1420 2755 
Q 1159 2438 1159 1844 
L 1159 0 
L 581 0 
L 581 3500 
L 1159 3500 
L 1159 2956 
Q 1341 3275 1631 3429 
Q 1922 3584 2338 3584 
Q 2397 3584 2469 3576 
Q 2541 3569 2628 3553 
L 2631 2963 
z
" transform="scale(0.015625)"/>
      <path id="DejaVuSans-69" d="M 603 3500 
L 1178 3500 
L 1178 0 
L 603 0 
L 603 3500 
z
M 603 4863 
L 1178 4863 
L 1178 4134 
L 603 4134 
L 603 4863 
z
" transform="scale(0.015625)"/>
      <path id="DejaVuSans-20" transform="scale(0.015625)"/>
      <path id="DejaVuSans-68" d="M 3513 2113 
L 3513 0 
L 2938 0 
L 2938 2094 
Q 2938 2591 2744 2837 
Q 2550 3084 2163 3084 
Q 1697 3084 1428 2787 
Q 1159 2491 1159 1978 
L 1159 0 
L 581 0 
L 581 4863 
L 1159 4863 
L 1159 2956 
Q 1366 3272 1645 3428 
Q 1925 3584 2291 3584 
Q 2894 3584 3203 3211 
Q 3513 2838 3513 2113 
z
" transform="scale(0.015625)"/>
      <path id="DejaVuSans-6f" d="M 1959 3097 
Q 1497 3097 1228 2736 
Q 959 2375 959 1747 
Q 959 1119 1226 758 
Q 1494 397 1959 397 
Q 2419 397 2687 759 
Q 2956 1122 2956 1747 
Q 2956 2369 2687 2733 
Q 2419 3097 1959 3097 
z
M 1959 3584 
Q 2709 3584 3137 3096 
Q 3566 2609 3566 1747 
Q 3566 888 3137 398 
Q 2709 -91 1959 -91 
Q 1206 -91 779 398 
Q 353 888 353 1747 
Q 353 2609 779 3096 
Q 1206 3584 1959 3584 
z
" transform="scale(0.015625)"/>
      <path id="DejaVuSans-79" d="M 2059 -325 
Q 1816 -950 1584 -1140 
Q 1353 -1331 966 -1331 
L 506 -1331 
L 506 -850 
L 844 -850 
Q 1081 -850 1212 -737 
Q 1344 -625 1503 -206 
L 1606 56 
L 191 3500 
L 800 3500 
L 1894 763 
L 2988 3500 
L 3597 3500 
L 2059 -325 
z
" transform="scale(0.015625)"/>
     </defs>
     <use xlink:href="#DejaVuSans-67"/>
     <use xlink:href="#DejaVuSans-65" x="63.476562"/>
     <use xlink:href="#DejaVuSans-74" x="125"/>
     <use xlink:href="#DejaVuSans-5f" x="164.208984"/>
     <use xlink:href="#DejaVuSans-73" x="214.208984"/>
     <use xlink:href="#DejaVuSans-75" x="266.308594"/>
     <use xlink:href="#DejaVuSans-62" x="329.6875"/>
     <use xlink:href="#DejaVuSans-73" x="393.164062"/>
     <use xlink:href="#DejaVuSans-63" x="445.263672"/>
     <use xlink:href="#DejaVuSans-72" x="500.244141"/>
     <use xlink:href="#DejaVuSans-69" x="541.357422"/>
     <use xlink:href="#DejaVuSans-62" x="569.140625"/>
     <use xlink:href="#DejaVuSans-65" x="632.617188"/>
     <use xlink:href="#DejaVuSans-20" x="694.140625"/>
     <use xlink:href="#DejaVuSans-68" x="725.927734"/>
     <use xlink:href="#DejaVuSans-69" x="789.306641"/>
     <use xlink:href="#DejaVuSans-73" x="817.089844"/>
     <use xlink:href="#DejaVuSans-74" x="869.189453"/>
     <use xlink:href="#DejaVuSans-6f" x="908.398438"/>
     <use xlink:href="#DejaVuSans-72" x="969.580078"/>
     <use xlink:href="#DejaVuSans-79" x="1010.693359"/>
    </g>
   </g>
   <g id="legend_1">
    <g id="line2d_35">
     <path d="M 815.08 328.498438 
L 825.08 328.498438 
L 835.08 328.498438 
" style="fill: none; stroke: #1f77b4; stroke-width: 1.5; stroke-linecap: square"/>
    </g>
    <g id="text_18">
     <!-- star -->
     <g style="fill: #a9a9a9" transform="translate(843.08 331.998438) scale(0.1 -0.1)">
      <defs>
       <path id="DejaVuSans-61" d="M 2194 1759 
Q 1497 1759 1228 1600 
Q 959 1441 959 1056 
Q 959 750 1161 570 
Q 1363 391 1709 391 
Q 2188 391 2477 730 
Q 2766 1069 2766 1631 
L 2766 1759 
L 2194 1759 
z
M 3341 1997 
L 3341 0 
L 2766 0 
L 2766 531 
Q 2569 213 2275 61 
Q 1981 -91 1556 -91 
Q 1019 -91 701 211 
Q 384 513 384 1019 
Q 384 1609 779 1909 
Q 1175 2209 1959 2209 
L 2766 2209 
L 2766 2266 
Q 2766 2663 2505 2880 
Q 2244 3097 1772 3097 
Q 1472 3097 1187 3025 
Q 903 2953 641 2809 
L 641 3341 
Q 956 3463 1253 3523 
Q 1550 3584 1831 3584 
Q 2591 3584 2966 3190 
Q 3341 2797 3341 1997 
z
" transform="scale(0.015625)"/>
      </defs>
      <use xlink:href="#DejaVuSans-73"/>
      <use xlink:href="#DejaVuSans-74" x="52.099609"/>
      <use xlink:href="#DejaVuSans-61" x="91.308594"/>
      <use xlink:href="#DejaVuSans-72" x="152.587891"/>
     </g>
    </g>
    <g id="line2d_36">
     <path d="M 815.08 343.176562 
L 825.08 343.176562 
L 835.08 343.176562 
" style="fill: none; stroke: #ff7f0e; stroke-width: 1.5; stroke-linecap: square"/>
    </g>
    <g id="text_19">
     <!-- fork -->
     <g style="fill: #a9a9a9" transform="translate(843.08 346.676562) scale(0.1 -0.1)">
      <defs>
       <path id="DejaVuSans-66" d="M 2375 4863 
L 2375 4384 
L 1825 4384 
Q 1516 4384 1395 4259 
Q 1275 4134 1275 3809 
L 1275 3500 
L 2222 3500 
L 2222 3053 
L 1275 3053 
L 1275 0 
L 697 0 
L 697 3053 
L 147 3053 
L 147 3500 
L 697 3500 
L 697 3744 
Q 697 4328 969 4595 
Q 1241 4863 1831 4863 
L 2375 4863 
z
" transform="scale(0.015625)"/>
       <path id="DejaVuSans-6b" d="M 581 4863 
L 1159 4863 
L 1159 1991 
L 2875 3500 
L 3609 3500 
L 1753 1863 
L 3688 0 
L 2938 0 
L 1159 1709 
L 1159 0 
L 581 0 
L 581 4863 
z
" transform="scale(0.015625)"/>
      </defs>
      <use xlink:href="#DejaVuSans-66"/>
      <use xlink:href="#DejaVuSans-6f" x="35.205078"/>
      <use xlink:href="#DejaVuSans-72" x="96.386719"/>
      <use xlink:href="#DejaVuSans-6b" x="137.5"/>
     </g>
    </g>
   </g>
  </g>
 </g>
 <defs>
  <clipPath id="p38a095a7b2">
   <rect x="108" y="43.2" width="669.6" height="277.2"/>
  </clipPath>
 </defs>
</svg>
