<?xml version="1.0" encoding="utf-8" standalone="no"?>
<!DOCTYPE svg PUBLIC "-//W3C//DTD SVG 1.1//EN"
  "http://www.w3.org/Graphics/SVG/1.1/DTD/svg11.dtd">
<svg xmlns:xlink="http://www.w3.org/1999/xlink" width="864pt" height="360pt" viewBox="0 0 864 360" xmlns="http://www.w3.org/2000/svg" version="1.1">
 <metadata>
  <rdf:RDF xmlns:dc="http://purl.org/dc/elements/1.1/" xmlns:cc="http://creativecommons.org/ns#" xmlns:rdf="http://www.w3.org/1999/02/22-rdf-syntax-ns#">
   <cc:Work>
    <dc:type rdf:resource="http://purl.org/dc/dcmitype/StillImage"/>
    <dc:date>2022-12-02T20:22:09.617902</dc:date>
    <dc:format>image/svg+xml</dc:format>
    <dc:creator>
     <cc:Agent>
      <dc:title>Matplotlib v3.6.2, https://matplotlib.org/</dc:title>
     </cc:Agent>
    </dc:creator>
   </cc:Work>
  </rdf:RDF>
 </metadata>
 <defs>
  <style type="text/css">*{stroke-linejoin: round; stroke-linecap: butt}</style>
 </defs>
 <g id="figure_1">
  <g id="patch_1">
   <path d="M 0 360 
L 864 360 
L 864 0 
L 0 0 
L 0 360 
z
" style="fill: none; opacity: 0"/>
  </g>
  <g id="axes_1">
   <g id="patch_2">
    <path d="M 108 320.4 
L 777.6 320.4 
L 777.6 43.2 
L 108 43.2 
L 108 320.4 
z
" style="fill: none; opacity: 0"/>
   </g>
   <g id="matplotlib.axis_1">
    <g id="xtick_1">
     <g id="line2d_1">
      <path d="M 110.209091 320.4 
L 110.209091 43.2 
" clip-path="url(#pfbb137262b)" style="fill: none; stroke-dasharray: 5.12,1.28,0.8,1.28; stroke-dashoffset: 0; stroke: #b0b0b0; stroke-width: 0.8"/>
     </g>
     <g id="line2d_2">
      <defs>
       <path id="m3da2960a93" d="M 0 0 
L 0 3.5 
" style="stroke: #a9a9a9; stroke-width: 0.8"/>
      </defs>
      <g>
       <use xlink:href="#m3da2960a93" x="110.209091" y="320.4" style="fill: #a9a9a9; stroke: #a9a9a9; stroke-width: 0.8"/>
      </g>
     </g>
     <g id="text_1">
      <!-- 2021-07 -->
      <g style="fill: #a9a9a9" transform="translate(89.317685 334.998438) scale(0.1 -0.1)">
       <defs>
        <path id="DejaVuSans-32" d="M 1228 531 
L 3431 531 
L 3431 0 
L 469 0 
L 469 531 
Q 828 903 1448 1529 
Q 2069 2156 2228 2338 
Q 2531 2678 2651 2914 
Q 2772 3150 2772 3378 
Q 2772 3750 2511 3984 
Q 2250 4219 1831 4219 
Q 1534 4219 1204 4116 
Q 875 4013 500 3803 
L 500 4441 
Q 881 4594 1212 4672 
Q 1544 4750 1819 4750 
Q 2544 4750 2975 4387 
Q 3406 4025 3406 3419 
Q 3406 3131 3298 2873 
Q 3191 2616 2906 2266 
Q 2828 2175 2409 1742 
Q 1991 1309 1228 531 
z
" transform="scale(0.015625)"/>
        <path id="DejaVuSans-30" d="M 2034 4250 
Q 1547 4250 1301 3770 
Q 1056 3291 1056 2328 
Q 1056 1369 1301 889 
Q 1547 409 2034 409 
Q 2525 409 2770 889 
Q 3016 1369 3016 2328 
Q 3016 3291 2770 3770 
Q 2525 4250 2034 4250 
z
M 2034 4750 
Q 2819 4750 3233 4129 
Q 3647 3509 3647 2328 
Q 3647 1150 3233 529 
Q 2819 -91 2034 -91 
Q 1250 -91 836 529 
Q 422 1150 422 2328 
Q 422 3509 836 4129 
Q 1250 4750 2034 4750 
z
" transform="scale(0.015625)"/>
        <path id="DejaVuSans-31" d="M 794 531 
L 1825 531 
L 1825 4091 
L 703 3866 
L 703 4441 
L 1819 4666 
L 2450 4666 
L 2450 531 
L 3481 531 
L 3481 0 
L 794 0 
L 794 531 
z
" transform="scale(0.015625)"/>
        <path id="DejaVuSans-2d" d="M 313 2009 
L 1997 2009 
L 1997 1497 
L 313 1497 
L 313 2009 
z
" transform="scale(0.015625)"/>
        <path id="DejaVuSans-37" d="M 525 4666 
L 3525 4666 
L 3525 4397 
L 1831 0 
L 1172 0 
L 2766 4134 
L 525 4134 
L 525 4666 
z
" transform="scale(0.015625)"/>
       </defs>
       <use xlink:href="#DejaVuSans-32"/>
       <use xlink:href="#DejaVuSans-30" x="63.623047"/>
       <use xlink:href="#DejaVuSans-32" x="127.246094"/>
       <use xlink:href="#DejaVuSans-31" x="190.869141"/>
       <use xlink:href="#DejaVuSans-2d" x="254.492188"/>
       <use xlink:href="#DejaVuSans-30" x="290.576172"/>
       <use xlink:href="#DejaVuSans-37" x="354.199219"/>
      </g>
     </g>
    </g>
    <g id="xtick_2">
     <g id="line2d_3">
      <path d="M 186.3 320.4 
L 186.3 43.2 
" clip-path="url(#pfbb137262b)" style="fill: none; stroke-dasharray: 5.12,1.28,0.8,1.28; stroke-dashoffset: 0; stroke: #b0b0b0; stroke-width: 0.8"/>
     </g>
     <g id="line2d_4">
      <g>
       <use xlink:href="#m3da2960a93" x="186.3" y="320.4" style="fill: #a9a9a9; stroke: #a9a9a9; stroke-width: 0.8"/>
      </g>
     </g>
     <g id="text_2">
      <!-- 2021-09 -->
      <g style="fill: #a9a9a9" transform="translate(165.408594 334.998438) scale(0.1 -0.1)">
       <defs>
        <path id="DejaVuSans-39" d="M 703 97 
L 703 672 
Q 941 559 1184 500 
Q 1428 441 1663 441 
Q 2288 441 2617 861 
Q 2947 1281 2994 2138 
Q 2813 1869 2534 1725 
Q 2256 1581 1919 1581 
Q 1219 1581 811 2004 
Q 403 2428 403 3163 
Q 403 3881 828 4315 
Q 1253 4750 1959 4750 
Q 2769 4750 3195 4129 
Q 3622 3509 3622 2328 
Q 3622 1225 3098 567 
Q 2575 -91 1691 -91 
Q 1453 -91 1209 -44 
Q 966 3 703 97 
z
M 1959 2075 
Q 2384 2075 2632 2365 
Q 2881 2656 2881 3163 
Q 2881 3666 2632 3958 
Q 2384 4250 1959 4250 
Q 1534 4250 1286 3958 
Q 1038 3666 1038 3163 
Q 1038 2656 1286 2365 
Q 1534 2075 1959 2075 
z
" transform="scale(0.015625)"/>
       </defs>
       <use xlink:href="#DejaVuSans-32"/>
       <use xlink:href="#DejaVuSans-30" x="63.623047"/>
       <use xlink:href="#DejaVuSans-32" x="127.246094"/>
       <use xlink:href="#DejaVuSans-31" x="190.869141"/>
       <use xlink:href="#DejaVuSans-2d" x="254.492188"/>
       <use xlink:href="#DejaVuSans-30" x="290.576172"/>
       <use xlink:href="#DejaVuSans-39" x="354.199219"/>
      </g>
     </g>
    </g>
    <g id="xtick_3">
     <g id="line2d_5">
      <path d="M 261.163636 320.4 
L 261.163636 43.2 
" clip-path="url(#pfbb137262b)" style="fill: none; stroke-dasharray: 5.12,1.28,0.8,1.28; stroke-dashoffset: 0; stroke: #b0b0b0; stroke-width: 0.8"/>
     </g>
     <g id="line2d_6">
      <g>
       <use xlink:href="#m3da2960a93" x="261.163636" y="320.4" style="fill: #a9a9a9; stroke: #a9a9a9; stroke-width: 0.8"/>
      </g>
     </g>
     <g id="text_3">
      <!-- 2021-11 -->
      <g style="fill: #a9a9a9" transform="translate(240.27223 334.998438) scale(0.1 -0.1)">
       <use xlink:href="#DejaVuSans-32"/>
       <use xlink:href="#DejaVuSans-30" x="63.623047"/>
       <use xlink:href="#DejaVuSans-32" x="127.246094"/>
       <use xlink:href="#DejaVuSans-31" x="190.869141"/>
       <use xlink:href="#DejaVuSans-2d" x="254.492188"/>
       <use xlink:href="#DejaVuSans-31" x="290.576172"/>
       <use xlink:href="#DejaVuSans-31" x="354.199219"/>
      </g>
     </g>
    </g>
    <g id="xtick_4">
     <g id="line2d_7">
      <path d="M 336.027273 320.4 
L 336.027273 43.2 
" clip-path="url(#pfbb137262b)" style="fill: none; stroke-dasharray: 5.12,1.28,0.8,1.28; stroke-dashoffset: 0; stroke: #b0b0b0; stroke-width: 0.8"/>
     </g>
     <g id="line2d_8">
      <g>
       <use xlink:href="#m3da2960a93" x="336.027273" y="320.4" style="fill: #a9a9a9; stroke: #a9a9a9; stroke-width: 0.8"/>
      </g>
     </g>
     <g id="text_4">
      <!-- 2022-01 -->
      <g style="fill: #a9a9a9" transform="translate(315.135866 334.998438) scale(0.1 -0.1)">
       <use xlink:href="#DejaVuSans-32"/>
       <use xlink:href="#DejaVuSans-30" x="63.623047"/>
       <use xlink:href="#DejaVuSans-32" x="127.246094"/>
       <use xlink:href="#DejaVuSans-32" x="190.869141"/>
       <use xlink:href="#DejaVuSans-2d" x="254.492188"/>
       <use xlink:href="#DejaVuSans-30" x="290.576172"/>
       <use xlink:href="#DejaVuSans-31" x="354.199219"/>
      </g>
     </g>
    </g>
    <g id="xtick_5">
     <g id="line2d_9">
      <path d="M 408.436364 320.4 
L 408.436364 43.2 
" clip-path="url(#pfbb137262b)" style="fill: none; stroke-dasharray: 5.12,1.28,0.8,1.28; stroke-dashoffset: 0; stroke: #b0b0b0; stroke-width: 0.8"/>
     </g>
     <g id="line2d_10">
      <g>
       <use xlink:href="#m3da2960a93" x="408.436364" y="320.4" style="fill: #a9a9a9; stroke: #a9a9a9; stroke-width: 0.8"/>
      </g>
     </g>
     <g id="text_5">
      <!-- 2022-03 -->
      <g style="fill: #a9a9a9" transform="translate(387.544957 334.998438) scale(0.1 -0.1)">
       <defs>
        <path id="DejaVuSans-33" d="M 2597 2516 
Q 3050 2419 3304 2112 
Q 3559 1806 3559 1356 
Q 3559 666 3084 287 
Q 2609 -91 1734 -91 
Q 1441 -91 1130 -33 
Q 819 25 488 141 
L 488 750 
Q 750 597 1062 519 
Q 1375 441 1716 441 
Q 2309 441 2620 675 
Q 2931 909 2931 1356 
Q 2931 1769 2642 2001 
Q 2353 2234 1838 2234 
L 1294 2234 
L 1294 2753 
L 1863 2753 
Q 2328 2753 2575 2939 
Q 2822 3125 2822 3475 
Q 2822 3834 2567 4026 
Q 2313 4219 1838 4219 
Q 1578 4219 1281 4162 
Q 984 4106 628 3988 
L 628 4550 
Q 988 4650 1302 4700 
Q 1616 4750 1894 4750 
Q 2613 4750 3031 4423 
Q 3450 4097 3450 3541 
Q 3450 3153 3228 2886 
Q 3006 2619 2597 2516 
z
" transform="scale(0.015625)"/>
       </defs>
       <use xlink:href="#DejaVuSans-32"/>
       <use xlink:href="#DejaVuSans-30" x="63.623047"/>
       <use xlink:href="#DejaVuSans-32" x="127.246094"/>
       <use xlink:href="#DejaVuSans-32" x="190.869141"/>
       <use xlink:href="#DejaVuSans-2d" x="254.492188"/>
       <use xlink:href="#DejaVuSans-30" x="290.576172"/>
       <use xlink:href="#DejaVuSans-33" x="354.199219"/>
      </g>
     </g>
    </g>
    <g id="xtick_6">
     <g id="line2d_11">
      <path d="M 483.3 320.4 
L 483.3 43.2 
" clip-path="url(#pfbb137262b)" style="fill: none; stroke-dasharray: 5.12,1.28,0.8,1.28; stroke-dashoffset: 0; stroke: #b0b0b0; stroke-width: 0.8"/>
     </g>
     <g id="line2d_12">
      <g>
       <use xlink:href="#m3da2960a93" x="483.3" y="320.4" style="fill: #a9a9a9; stroke: #a9a9a9; stroke-width: 0.8"/>
      </g>
     </g>
     <g id="text_6">
      <!-- 2022-05 -->
      <g style="fill: #a9a9a9" transform="translate(462.408594 334.998438) scale(0.1 -0.1)">
       <defs>
        <path id="DejaVuSans-35" d="M 691 4666 
L 3169 4666 
L 3169 4134 
L 1269 4134 
L 1269 2991 
Q 1406 3038 1543 3061 
Q 1681 3084 1819 3084 
Q 2600 3084 3056 2656 
Q 3513 2228 3513 1497 
Q 3513 744 3044 326 
Q 2575 -91 1722 -91 
Q 1428 -91 1123 -41 
Q 819 9 494 109 
L 494 744 
Q 775 591 1075 516 
Q 1375 441 1709 441 
Q 2250 441 2565 725 
Q 2881 1009 2881 1497 
Q 2881 1984 2565 2268 
Q 2250 2553 1709 2553 
Q 1456 2553 1204 2497 
Q 953 2441 691 2322 
L 691 4666 
z
" transform="scale(0.015625)"/>
       </defs>
       <use xlink:href="#DejaVuSans-32"/>
       <use xlink:href="#DejaVuSans-30" x="63.623047"/>
       <use xlink:href="#DejaVuSans-32" x="127.246094"/>
       <use xlink:href="#DejaVuSans-32" x="190.869141"/>
       <use xlink:href="#DejaVuSans-2d" x="254.492188"/>
       <use xlink:href="#DejaVuSans-30" x="290.576172"/>
       <use xlink:href="#DejaVuSans-35" x="354.199219"/>
      </g>
     </g>
    </g>
    <g id="xtick_7">
     <g id="line2d_13">
      <path d="M 558.163636 320.4 
L 558.163636 43.2 
" clip-path="url(#pfbb137262b)" style="fill: none; stroke-dasharray: 5.12,1.28,0.8,1.28; stroke-dashoffset: 0; stroke: #b0b0b0; stroke-width: 0.8"/>
     </g>
     <g id="line2d_14">
      <g>
       <use xlink:href="#m3da2960a93" x="558.163636" y="320.4" style="fill: #a9a9a9; stroke: #a9a9a9; stroke-width: 0.8"/>
      </g>
     </g>
     <g id="text_7">
      <!-- 2022-07 -->
      <g style="fill: #a9a9a9" transform="translate(537.27223 334.998438) scale(0.1 -0.1)">
       <use xlink:href="#DejaVuSans-32"/>
       <use xlink:href="#DejaVuSans-30" x="63.623047"/>
       <use xlink:href="#DejaVuSans-32" x="127.246094"/>
       <use xlink:href="#DejaVuSans-32" x="190.869141"/>
       <use xlink:href="#DejaVuSans-2d" x="254.492188"/>
       <use xlink:href="#DejaVuSans-30" x="290.576172"/>
       <use xlink:href="#DejaVuSans-37" x="354.199219"/>
      </g>
     </g>
    </g>
    <g id="xtick_8">
     <g id="line2d_15">
      <path d="M 634.254545 320.4 
L 634.254545 43.2 
" clip-path="url(#pfbb137262b)" style="fill: none; stroke-dasharray: 5.12,1.28,0.8,1.28; stroke-dashoffset: 0; stroke: #b0b0b0; stroke-width: 0.8"/>
     </g>
     <g id="line2d_16">
      <g>
       <use xlink:href="#m3da2960a93" x="634.254545" y="320.4" style="fill: #a9a9a9; stroke: #a9a9a9; stroke-width: 0.8"/>
      </g>
     </g>
     <g id="text_8">
      <!-- 2022-09 -->
      <g style="fill: #a9a9a9" transform="translate(613.363139 334.998438) scale(0.1 -0.1)">
       <use xlink:href="#DejaVuSans-32"/>
       <use xlink:href="#DejaVuSans-30" x="63.623047"/>
       <use xlink:href="#DejaVuSans-32" x="127.246094"/>
       <use xlink:href="#DejaVuSans-32" x="190.869141"/>
       <use xlink:href="#DejaVuSans-2d" x="254.492188"/>
       <use xlink:href="#DejaVuSans-30" x="290.576172"/>
       <use xlink:href="#DejaVuSans-39" x="354.199219"/>
      </g>
     </g>
    </g>
    <g id="xtick_9">
     <g id="line2d_17">
      <path d="M 709.118182 320.4 
L 709.118182 43.2 
" clip-path="url(#pfbb137262b)" style="fill: none; stroke-dasharray: 5.12,1.28,0.8,1.28; stroke-dashoffset: 0; stroke: #b0b0b0; stroke-width: 0.8"/>
     </g>
     <g id="line2d_18">
      <g>
       <use xlink:href="#m3da2960a93" x="709.118182" y="320.4" style="fill: #a9a9a9; stroke: #a9a9a9; stroke-width: 0.8"/>
      </g>
     </g>
     <g id="text_9">
      <!-- 2022-11 -->
      <g style="fill: #a9a9a9" transform="translate(688.226776 334.998438) scale(0.1 -0.1)">
       <use xlink:href="#DejaVuSans-32"/>
       <use xlink:href="#DejaVuSans-30" x="63.623047"/>
       <use xlink:href="#DejaVuSans-32" x="127.246094"/>
       <use xlink:href="#DejaVuSans-32" x="190.869141"/>
       <use xlink:href="#DejaVuSans-2d" x="254.492188"/>
       <use xlink:href="#DejaVuSans-31" x="290.576172"/>
       <use xlink:href="#DejaVuSans-31" x="354.199219"/>
      </g>
     </g>
    </g>
   </g>
   <g id="matplotlib.axis_2">
    <g id="ytick_1">
     <g id="line2d_19">
      <path d="M 108 307.87761 
L 777.6 307.87761 
" clip-path="url(#pfbb137262b)" style="fill: none; stroke-dasharray: 5.12,1.28,0.8,1.28; stroke-dashoffset: 0; stroke: #b0b0b0; stroke-width: 0.8"/>
     </g>
     <g id="line2d_20">
      <defs>
       <path id="m10b7b073b5" d="M 0 0 
L -3.5 0 
" style="stroke: #a9a9a9; stroke-width: 0.8"/>
      </defs>
      <g>
       <use xlink:href="#m10b7b073b5" x="108" y="307.87761" style="fill: #a9a9a9; stroke: #a9a9a9; stroke-width: 0.8"/>
      </g>
     </g>
     <g id="text_10">
      <!-- 0 -->
      <g style="fill: #a9a9a9" transform="translate(94.6375 311.676829) scale(0.1 -0.1)">
       <use xlink:href="#DejaVuSans-30"/>
      </g>
     </g>
    </g>
    <g id="ytick_2">
     <g id="line2d_21">
      <path d="M 108 276.833569 
L 777.6 276.833569 
" clip-path="url(#pfbb137262b)" style="fill: none; stroke-dasharray: 5.12,1.28,0.8,1.28; stroke-dashoffset: 0; stroke: #b0b0b0; stroke-width: 0.8"/>
     </g>
     <g id="line2d_22">
      <g>
       <use xlink:href="#m10b7b073b5" x="108" y="276.833569" style="fill: #a9a9a9; stroke: #a9a9a9; stroke-width: 0.8"/>
      </g>
     </g>
     <g id="text_11">
      <!-- 400 -->
      <g style="fill: #a9a9a9" transform="translate(81.9125 280.632788) scale(0.1 -0.1)">
       <defs>
        <path id="DejaVuSans-34" d="M 2419 4116 
L 825 1625 
L 2419 1625 
L 2419 4116 
z
M 2253 4666 
L 3047 4666 
L 3047 1625 
L 3713 1625 
L 3713 1100 
L 3047 1100 
L 3047 0 
L 2419 0 
L 2419 1100 
L 313 1100 
L 313 1709 
L 2253 4666 
z
" transform="scale(0.015625)"/>
       </defs>
       <use xlink:href="#DejaVuSans-34"/>
       <use xlink:href="#DejaVuSans-30" x="63.623047"/>
       <use xlink:href="#DejaVuSans-30" x="127.246094"/>
      </g>
     </g>
    </g>
    <g id="ytick_3">
     <g id="line2d_23">
      <path d="M 108 245.789529 
L 777.6 245.789529 
" clip-path="url(#pfbb137262b)" style="fill: none; stroke-dasharray: 5.12,1.28,0.8,1.28; stroke-dashoffset: 0; stroke: #b0b0b0; stroke-width: 0.8"/>
     </g>
     <g id="line2d_24">
      <g>
       <use xlink:href="#m10b7b073b5" x="108" y="245.789529" style="fill: #a9a9a9; stroke: #a9a9a9; stroke-width: 0.8"/>
      </g>
     </g>
     <g id="text_12">
      <!-- 800 -->
      <g style="fill: #a9a9a9" transform="translate(81.9125 249.588748) scale(0.1 -0.1)">
       <defs>
        <path id="DejaVuSans-38" d="M 2034 2216 
Q 1584 2216 1326 1975 
Q 1069 1734 1069 1313 
Q 1069 891 1326 650 
Q 1584 409 2034 409 
Q 2484 409 2743 651 
Q 3003 894 3003 1313 
Q 3003 1734 2745 1975 
Q 2488 2216 2034 2216 
z
M 1403 2484 
Q 997 2584 770 2862 
Q 544 3141 544 3541 
Q 544 4100 942 4425 
Q 1341 4750 2034 4750 
Q 2731 4750 3128 4425 
Q 3525 4100 3525 3541 
Q 3525 3141 3298 2862 
Q 3072 2584 2669 2484 
Q 3125 2378 3379 2068 
Q 3634 1759 3634 1313 
Q 3634 634 3220 271 
Q 2806 -91 2034 -91 
Q 1263 -91 848 271 
Q 434 634 434 1313 
Q 434 1759 690 2068 
Q 947 2378 1403 2484 
z
M 1172 3481 
Q 1172 3119 1398 2916 
Q 1625 2713 2034 2713 
Q 2441 2713 2670 2916 
Q 2900 3119 2900 3481 
Q 2900 3844 2670 4047 
Q 2441 4250 2034 4250 
Q 1625 4250 1398 4047 
Q 1172 3844 1172 3481 
z
" transform="scale(0.015625)"/>
       </defs>
       <use xlink:href="#DejaVuSans-38"/>
       <use xlink:href="#DejaVuSans-30" x="63.623047"/>
       <use xlink:href="#DejaVuSans-30" x="127.246094"/>
      </g>
     </g>
    </g>
    <g id="ytick_4">
     <g id="line2d_25">
      <path d="M 108 214.745488 
L 777.6 214.745488 
" clip-path="url(#pfbb137262b)" style="fill: none; stroke-dasharray: 5.12,1.28,0.8,1.28; stroke-dashoffset: 0; stroke: #b0b0b0; stroke-width: 0.8"/>
     </g>
     <g id="line2d_26">
      <g>
       <use xlink:href="#m10b7b073b5" x="108" y="214.745488" style="fill: #a9a9a9; stroke: #a9a9a9; stroke-width: 0.8"/>
      </g>
     </g>
     <g id="text_13">
      <!-- 1200 -->
      <g style="fill: #a9a9a9" transform="translate(75.55 218.544707) scale(0.1 -0.1)">
       <use xlink:href="#DejaVuSans-31"/>
       <use xlink:href="#DejaVuSans-32" x="63.623047"/>
       <use xlink:href="#DejaVuSans-30" x="127.246094"/>
       <use xlink:href="#DejaVuSans-30" x="190.869141"/>
      </g>
     </g>
    </g>
    <g id="ytick_5">
     <g id="line2d_27">
      <path d="M 108 183.701447 
L 777.6 183.701447 
" clip-path="url(#pfbb137262b)" style="fill: none; stroke-dasharray: 5.12,1.28,0.8,1.28; stroke-dashoffset: 0; stroke: #b0b0b0; stroke-width: 0.8"/>
     </g>
     <g id="line2d_28">
      <g>
       <use xlink:href="#m10b7b073b5" x="108" y="183.701447" style="fill: #a9a9a9; stroke: #a9a9a9; stroke-width: 0.8"/>
      </g>
     </g>
     <g id="text_14">
      <!-- 1600 -->
      <g style="fill: #a9a9a9" transform="translate(75.55 187.500666) scale(0.1 -0.1)">
       <defs>
        <path id="DejaVuSans-36" d="M 2113 2584 
Q 1688 2584 1439 2293 
Q 1191 2003 1191 1497 
Q 1191 994 1439 701 
Q 1688 409 2113 409 
Q 2538 409 2786 701 
Q 3034 994 3034 1497 
Q 3034 2003 2786 2293 
Q 2538 2584 2113 2584 
z
M 3366 4563 
L 3366 3988 
Q 3128 4100 2886 4159 
Q 2644 4219 2406 4219 
Q 1781 4219 1451 3797 
Q 1122 3375 1075 2522 
Q 1259 2794 1537 2939 
Q 1816 3084 2150 3084 
Q 2853 3084 3261 2657 
Q 3669 2231 3669 1497 
Q 3669 778 3244 343 
Q 2819 -91 2113 -91 
Q 1303 -91 875 529 
Q 447 1150 447 2328 
Q 447 3434 972 4092 
Q 1497 4750 2381 4750 
Q 2619 4750 2861 4703 
Q 3103 4656 3366 4563 
z
" transform="scale(0.015625)"/>
       </defs>
       <use xlink:href="#DejaVuSans-31"/>
       <use xlink:href="#DejaVuSans-36" x="63.623047"/>
       <use xlink:href="#DejaVuSans-30" x="127.246094"/>
       <use xlink:href="#DejaVuSans-30" x="190.869141"/>
      </g>
     </g>
    </g>
    <g id="ytick_6">
     <g id="line2d_29">
      <path d="M 108 152.657407 
L 777.6 152.657407 
" clip-path="url(#pfbb137262b)" style="fill: none; stroke-dasharray: 5.12,1.28,0.8,1.28; stroke-dashoffset: 0; stroke: #b0b0b0; stroke-width: 0.8"/>
     </g>
     <g id="line2d_30">
      <g>
       <use xlink:href="#m10b7b073b5" x="108" y="152.657407" style="fill: #a9a9a9; stroke: #a9a9a9; stroke-width: 0.8"/>
      </g>
     </g>
     <g id="text_15">
      <!-- 2000 -->
      <g style="fill: #a9a9a9" transform="translate(75.55 156.456626) scale(0.1 -0.1)">
       <use xlink:href="#DejaVuSans-32"/>
       <use xlink:href="#DejaVuSans-30" x="63.623047"/>
       <use xlink:href="#DejaVuSans-30" x="127.246094"/>
       <use xlink:href="#DejaVuSans-30" x="190.869141"/>
      </g>
     </g>
    </g>
    <g id="ytick_7">
     <g id="line2d_31">
      <path d="M 108 121.613366 
L 777.6 121.613366 
" clip-path="url(#pfbb137262b)" style="fill: none; stroke-dasharray: 5.12,1.28,0.8,1.28; stroke-dashoffset: 0; stroke: #b0b0b0; stroke-width: 0.8"/>
     </g>
     <g id="line2d_32">
      <g>
       <use xlink:href="#m10b7b073b5" x="108" y="121.613366" style="fill: #a9a9a9; stroke: #a9a9a9; stroke-width: 0.8"/>
      </g>
     </g>
     <g id="text_16">
      <!-- 2400 -->
      <g style="fill: #a9a9a9" transform="translate(75.55 125.412585) scale(0.1 -0.1)">
       <use xlink:href="#DejaVuSans-32"/>
       <use xlink:href="#DejaVuSans-34" x="63.623047"/>
       <use xlink:href="#DejaVuSans-30" x="127.246094"/>
       <use xlink:href="#DejaVuSans-30" x="190.869141"/>
      </g>
     </g>
    </g>
    <g id="ytick_8">
     <g id="line2d_33">
      <path d="M 108 90.569326 
L 777.6 90.569326 
" clip-path="url(#pfbb137262b)" style="fill: none; stroke-dasharray: 5.12,1.28,0.8,1.28; stroke-dashoffset: 0; stroke: #b0b0b0; stroke-width: 0.8"/>
     </g>
     <g id="line2d_34">
      <g>
       <use xlink:href="#m10b7b073b5" x="108" y="90.569326" style="fill: #a9a9a9; stroke: #a9a9a9; stroke-width: 0.8"/>
      </g>
     </g>
     <g id="text_17">
      <!-- 2800 -->
      <g style="fill: #a9a9a9" transform="translate(75.55 94.368544) scale(0.1 -0.1)">
       <use xlink:href="#DejaVuSans-32"/>
       <use xlink:href="#DejaVuSans-38" x="63.623047"/>
       <use xlink:href="#DejaVuSans-30" x="127.246094"/>
       <use xlink:href="#DejaVuSans-30" x="190.869141"/>
      </g>
     </g>
    </g>
    <g id="ytick_9">
     <g id="line2d_35">
      <path d="M 108 59.525285 
L 777.6 59.525285 
" clip-path="url(#pfbb137262b)" style="fill: none; stroke-dasharray: 5.12,1.28,0.8,1.28; stroke-dashoffset: 0; stroke: #b0b0b0; stroke-width: 0.8"/>
     </g>
     <g id="line2d_36">
      <g>
       <use xlink:href="#m10b7b073b5" x="108" y="59.525285" style="fill: #a9a9a9; stroke: #a9a9a9; stroke-width: 0.8"/>
      </g>
     </g>
     <g id="text_18">
      <!-- 3200 -->
      <g style="fill: #a9a9a9" transform="translate(75.55 63.324504) scale(0.1 -0.1)">
       <use xlink:href="#DejaVuSans-33"/>
       <use xlink:href="#DejaVuSans-32" x="63.623047"/>
       <use xlink:href="#DejaVuSans-30" x="127.246094"/>
       <use xlink:href="#DejaVuSans-30" x="190.869141"/>
      </g>
     </g>
    </g>
   </g>
   <g id="line2d_37">
    <path d="M 138.436364 307.56717 
L 143.345455 307.179119 
L 144.572727 307.023899 
L 145.8 307.023899 
L 147.027273 306.558238 
L 149.481818 306.403018 
L 158.072727 304.773206 
L 160.527273 304.617986 
L 161.754545 304.385156 
L 165.436364 304.152325 
L 166.663636 303.531444 
L 167.890909 303.221004 
L 169.118182 301.824022 
L 170.345455 301.047921 
L 171.572727 298.331568 
L 172.8 298.176347 
L 174.027273 297.322636 
L 175.254545 296.856976 
L 176.481818 296.236095 
L 180.163636 293.364521 
L 181.390909 292.74364 
L 183.845455 291.812319 
L 185.072727 290.958608 
L 186.3 290.492947 
L 188.754545 289.018355 
L 189.981818 288.630305 
L 191.209091 286.767662 
L 192.436364 285.836341 
L 193.663636 285.13785 
L 194.890909 284.59458 
L 199.8 283.896089 
L 203.481818 283.275208 
L 205.936364 283.119988 
L 207.163636 282.887157 
L 208.390909 282.266277 
L 213.3 281.878226 
L 216.981818 281.490176 
L 218.209091 281.102125 
L 224.345455 279.937974 
L 226.8 279.705143 
L 228.027273 279.394703 
L 231.709091 278.929042 
L 232.936364 278.308161 
L 234.163636 278.152941 
L 236.618182 277.29923 
L 239.072727 277.0664 
L 240.3 276.678349 
L 245.209091 275.979858 
L 246.436364 275.591808 
L 248.890909 275.203757 
L 250.118182 275.203757 
L 256.254545 274.427656 
L 258.709091 273.729165 
L 259.936364 273.418725 
L 262.390909 273.185895 
L 263.618182 273.108285 
L 267.3 272.409794 
L 268.527273 271.944133 
L 269.754545 270.391931 
L 270.981818 269.92627 
L 272.209091 269.30539 
L 273.436364 269.150169 
L 274.663636 268.839729 
L 275.890909 268.684509 
L 278.345455 267.675577 
L 279.572727 267.597967 
L 285.709091 265.968155 
L 286.936364 265.968155 
L 289.390909 265.657715 
L 291.845455 264.959224 
L 295.527273 264.027903 
L 296.754545 263.950293 
L 299.209091 262.941361 
L 300.436364 262.786141 
L 301.663636 262.24287 
L 304.118182 262.01004 
L 305.345455 261.93243 
L 309.027273 261.311549 
L 311.481818 260.923499 
L 315.163636 260.225008 
L 316.390909 259.836957 
L 317.618182 259.681737 
L 320.072727 258.828026 
L 321.3 258.129535 
L 322.527273 257.819095 
L 323.754545 257.663874 
L 326.209091 256.887773 
L 328.663636 255.568402 
L 329.890909 254.792301 
L 331.118182 254.63708 
L 332.345455 254.24903 
L 333.572727 254.09381 
L 334.8 253.783369 
L 336.027273 253.628149 
L 337.254545 253.084878 
L 339.709091 252.696828 
L 340.936364 252.075947 
L 342.163636 251.610286 
L 343.390909 251.299846 
L 344.618182 251.144626 
L 345.845455 250.678965 
L 350.754545 249.747644 
L 353.209091 248.738713 
L 354.436364 248.505882 
L 355.663636 248.040222 
L 356.890909 247.885002 
L 358.118182 247.341731 
L 359.345455 247.03129 
L 361.8 246.87607 
L 364.254545 246.099969 
L 365.481818 245.944749 
L 366.709091 245.944749 
L 367.936364 245.401478 
L 370.390909 245.013428 
L 371.618182 244.547767 
L 374.072727 244.470157 
L 375.3 244.314937 
L 376.527273 244.314937 
L 378.981818 243.926886 
L 381.436364 242.762735 
L 383.890909 241.676193 
L 385.118182 241.365753 
L 386.345455 240.589652 
L 387.572727 240.201601 
L 390.027273 239.11506 
L 391.254545 238.88223 
L 392.481818 238.338959 
L 393.709091 237.950909 
L 394.936364 237.174808 
L 396.163636 236.553927 
L 397.390909 235.312165 
L 398.618182 233.371913 
L 399.845455 231.819711 
L 401.072727 231.43166 
L 402.3 231.43166 
L 403.527273 230.655559 
L 404.754545 229.724238 
L 405.981818 229.413797 
L 407.209091 228.792917 
L 408.436364 228.560086 
L 409.663636 227.473545 
L 410.890909 227.163104 
L 414.572727 225.533292 
L 415.8 224.13631 
L 417.027273 222.351278 
L 418.254545 221.652787 
L 419.481818 219.712535 
L 420.709091 218.548383 
L 421.936364 218.005112 
L 423.163636 217.694672 
L 424.390909 216.918571 
L 426.845455 215.754419 
L 428.072727 214.900708 
L 429.3 213.891777 
L 430.527273 213.038066 
L 431.754545 212.339575 
L 432.981818 210.709763 
L 434.209091 207.993409 
L 435.436364 206.285987 
L 436.663636 205.354666 
L 437.890909 204.811395 
L 440.345455 202.715922 
L 442.8 200.77567 
L 445.254545 198.835417 
L 446.481818 197.826486 
L 447.709091 196.119064 
L 448.936364 194.954912 
L 450.163636 194.023591 
L 452.618182 192.393779 
L 455.072727 190.686357 
L 456.3 189.677425 
L 457.527273 189.366985 
L 458.754545 188.823714 
L 462.436364 186.805852 
L 464.890909 185.6417 
L 467.345455 183.546227 
L 468.572727 182.071635 
L 469.8 181.217924 
L 471.027273 180.519433 
L 472.254545 180.208993 
L 473.481818 179.588112 
L 474.709091 178.734401 
L 477.163636 177.492639 
L 478.390909 177.259809 
L 479.618182 176.483708 
L 482.072727 175.164336 
L 483.3 174.000185 
L 484.527273 173.146474 
L 485.754545 172.758423 
L 486.981818 171.982322 
L 488.209091 171.439051 
L 489.436364 170.66295 
L 490.663636 170.19729 
L 491.890909 169.421189 
L 493.118182 168.412257 
L 495.572727 167.558546 
L 496.8 167.015276 
L 498.027273 166.782445 
L 499.254545 166.006344 
L 500.481818 165.773514 
L 502.936364 164.919803 
L 504.163636 164.531752 
L 506.618182 163.522821 
L 507.845455 163.05716 
L 509.072727 162.74672 
L 510.3 162.281059 
L 512.754545 161.815399 
L 513.981818 160.728857 
L 515.209091 159.797536 
L 516.436364 159.331876 
L 518.890909 158.012504 
L 521.345455 156.693132 
L 523.8 155.994641 
L 525.027273 155.06332 
L 526.254545 154.75288 
L 528.709091 153.200678 
L 529.936364 152.579797 
L 533.618182 151.803696 
L 536.072727 151.105205 
L 539.754545 149.087342 
L 540.981818 148.932122 
L 542.209091 148.466461 
L 543.436364 148.311241 
L 544.663636 147.845581 
L 545.890909 147.06948 
L 547.118182 146.138158 
L 548.345455 145.362057 
L 549.572727 145.129227 
L 550.8 144.508346 
L 552.027273 144.353126 
L 553.254545 143.887465 
L 554.481818 143.033754 
L 555.709091 142.645704 
L 556.936364 142.102433 
L 561.845455 140.783061 
L 563.072727 140.705451 
L 564.3 140.317401 
L 566.754545 139.230859 
L 567.981818 138.842809 
L 569.209091 138.609978 
L 572.890909 136.980166 
L 575.345455 136.281675 
L 576.572727 136.204065 
L 579.027273 135.660795 
L 580.254545 135.117524 
L 581.481818 134.884694 
L 583.936364 133.875762 
L 587.618182 132.16834 
L 590.072727 130.616138 
L 591.3 130.305698 
L 592.527273 129.607207 
L 593.754545 129.141546 
L 594.981818 128.443055 
L 597.436364 127.822174 
L 598.663636 127.123683 
L 601.118182 126.114752 
L 603.572727 125.726702 
L 604.8 124.87299 
L 606.027273 124.25211 
L 607.254545 124.019279 
L 608.481818 123.553619 
L 609.709091 122.932738 
L 610.936364 122.699908 
L 612.163636 122.079027 
L 617.072727 121.380536 
L 619.527273 120.293994 
L 620.754545 119.362673 
L 621.981818 117.2672 
L 623.209091 116.95676 
L 624.436364 116.80154 
L 625.663636 116.491099 
L 628.118182 115.171728 
L 629.345455 114.706067 
L 630.572727 114.085186 
L 631.8 113.774746 
L 634.254545 112.610594 
L 636.709091 111.446443 
L 639.163636 110.437512 
L 640.390909 109.661411 
L 641.618182 109.19575 
L 645.3 108.342039 
L 647.754545 107.177887 
L 648.981818 106.634617 
L 650.209091 106.401786 
L 653.890909 104.927194 
L 656.345455 103.452602 
L 657.572727 102.521281 
L 658.8 101.9004 
L 660.027273 101.66757 
L 661.254545 101.201909 
L 662.481818 101.124299 
L 667.390909 99.494487 
L 668.618182 99.416877 
L 669.845455 98.563166 
L 671.072727 98.175115 
L 672.3 97.631845 
L 675.981818 96.467693 
L 677.209091 95.769202 
L 678.436364 95.381152 
L 679.663636 94.605051 
L 680.890909 94.06178 
L 682.118182 93.285679 
L 688.254545 90.879766 
L 689.481818 90.181275 
L 690.709091 89.327564 
L 691.936364 87.930582 
L 693.163636 87.154481 
L 694.390909 86.921651 
L 696.845455 85.059008 
L 698.072727 84.593348 
L 699.3 82.808315 
L 700.527273 82.342655 
L 701.754545 81.488944 
L 702.981818 81.256113 
L 704.209091 80.480012 
L 705.436364 79.936742 
L 706.663636 79.703911 
L 707.890909 79.160641 
L 709.118182 78.151709 
L 710.345455 77.763659 
L 712.8 76.133847 
L 714.027273 75.357746 
L 715.254545 74.814475 
L 717.709091 73.495103 
L 718.936364 72.951832 
L 720.163636 72.719002 
L 721.390909 72.253342 
L 723.845455 70.77875 
L 725.072727 68.916107 
L 726.3 67.751956 
L 727.527273 66.975855 
L 728.754545 66.665414 
L 731.209091 65.268432 
L 732.436364 65.035602 
L 733.663636 64.337111 
L 737.345455 62.862519 
L 738.572727 62.241638 
L 741.027273 60.534216 
L 743.481818 57.973083 
L 744.709091 57.041762 
L 745.936364 56.343271 
L 747.163636 55.8 
L 747.163636 55.8 
" clip-path="url(#pfbb137262b)" style="fill: none; stroke: #1f77b4; stroke-width: 1.5; stroke-linecap: square"/>
   </g>
   <g id="line2d_38">
    <path d="M 139.663636 307.8 
L 142.118182 307.8 
L 144.572727 307.48956 
L 151.936364 307.411949 
L 155.618182 307.256729 
L 159.3 307.179119 
L 161.754545 307.101509 
L 165.436364 307.101509 
L 166.663636 306.791069 
L 170.345455 306.713459 
L 176.481818 306.014968 
L 186.3 305.471697 
L 187.527273 305.471697 
L 188.754545 305.238867 
L 192.436364 305.161257 
L 194.890909 304.850816 
L 199.8 304.850816 
L 201.027273 304.695596 
L 207.163636 304.617986 
L 210.845455 304.462766 
L 221.890909 304.385156 
L 224.345455 304.307545 
L 229.254545 304.229935 
L 232.936364 304.074715 
L 237.845455 304.074715 
L 239.072727 303.919495 
L 242.754545 303.841885 
L 247.663636 303.609055 
L 256.254545 303.531444 
L 258.709091 303.453834 
L 263.618182 303.376224 
L 267.3 302.910564 
L 273.436364 302.832953 
L 279.572727 302.522513 
L 285.709091 302.444903 
L 289.390909 302.289683 
L 291.845455 302.212073 
L 294.3 301.979242 
L 299.209091 301.746412 
L 302.890909 301.668802 
L 305.345455 301.591192 
L 307.8 301.591192 
L 309.027273 301.435972 
L 312.709091 301.435972 
L 316.390909 301.047921 
L 320.072727 300.970311 
L 322.527273 300.892701 
L 324.981818 300.892701 
L 329.890909 300.34943 
L 331.118182 300.27182 
L 332.345455 300.03899 
L 337.254545 299.96138 
L 340.936364 299.650939 
L 343.390909 299.418109 
L 349.527273 299.107669 
L 353.209091 299.030059 
L 356.890909 298.874838 
L 358.118182 298.874838 
L 360.572727 298.642008 
L 363.027273 298.564398 
L 364.254545 298.564398 
L 365.481818 298.409178 
L 367.936364 298.331568 
L 374.072727 298.021127 
L 376.527273 297.943517 
L 380.209091 297.788297 
L 383.890909 297.710687 
L 386.345455 297.633077 
L 392.481818 297.555467 
L 397.390909 297.012196 
L 398.618182 297.012196 
L 401.072727 296.779366 
L 403.527273 296.701755 
L 408.436364 296.313705 
L 409.663636 296.158485 
L 410.890909 295.848044 
L 413.345455 295.692824 
L 414.572727 295.382384 
L 418.254545 295.071943 
L 420.709091 294.528673 
L 423.163636 294.451063 
L 425.618182 294.451063 
L 426.845455 294.295842 
L 428.072727 294.295842 
L 430.527273 293.907792 
L 435.436364 293.054081 
L 436.663636 293.054081 
L 437.890909 292.89886 
L 441.572727 292.82125 
L 457.527273 291.812319 
L 458.754545 291.579489 
L 462.436364 291.346658 
L 464.890909 290.958608 
L 467.345455 290.725778 
L 469.8 290.648168 
L 472.254545 290.648168 
L 473.481818 290.337727 
L 474.709091 290.182507 
L 479.618182 290.104897 
L 482.072727 289.872067 
L 483.3 289.872067 
L 486.981818 289.328796 
L 488.209091 289.018355 
L 489.436364 288.863135 
L 491.890909 288.785525 
L 498.027273 288.475085 
L 501.709091 288.397475 
L 517.663636 287.466153 
L 520.118182 287.466153 
L 522.572727 287.233323 
L 525.027273 287.233323 
L 528.709091 286.845273 
L 533.618182 286.612442 
L 536.072727 286.534832 
L 537.3 286.379612 
L 542.209091 286.302002 
L 550.8 285.836341 
L 556.936364 285.758731 
L 559.390909 285.681121 
L 560.618182 285.681121 
L 561.845455 285.448291 
L 564.3 285.370681 
L 571.663636 285.293071 
L 575.345455 285.13785 
L 580.254545 285.06024 
L 581.481818 284.82741 
L 588.845455 284.7498 
L 591.3 284.67219 
L 593.754545 284.59458 
L 596.209091 284.51697 
L 598.663636 284.439359 
L 608.481818 283.896089 
L 614.618182 283.818479 
L 618.3 283.508038 
L 620.754545 283.275208 
L 623.209091 283.197598 
L 625.663636 283.119988 
L 626.890909 282.964767 
L 630.572727 282.887157 
L 631.8 282.576717 
L 636.709091 282.343887 
L 647.754545 282.266277 
L 651.436364 281.955836 
L 656.345455 281.412565 
L 658.8 281.334955 
L 663.709091 281.257345 
L 668.618182 280.714075 
L 674.754545 280.403634 
L 677.209091 280.326024 
L 682.118182 280.093194 
L 687.027273 280.015584 
L 690.709091 279.860363 
L 695.618182 279.782753 
L 699.3 279.394703 
L 701.754545 279.317093 
L 706.663636 279.239483 
L 710.345455 278.929042 
L 711.572727 278.773822 
L 712.8 278.773822 
L 714.027273 278.540992 
L 716.481818 278.463382 
L 721.390909 278.385771 
L 723.845455 277.997721 
L 726.3 277.997721 
L 727.527273 277.764891 
L 729.981818 277.687281 
L 736.118182 277.60967 
L 738.572727 277.29923 
L 739.8 277.29923 
L 742.254545 277.0664 
L 743.481818 277.0664 
L 744.709091 276.755959 
L 747.163636 276.678349 
L 747.163636 276.678349 
" clip-path="url(#pfbb137262b)" style="fill: none; stroke: #ff7f0e; stroke-width: 1.5; stroke-linecap: square"/>
   </g>
   <g id="patch_3">
    <path d="M 108 320.4 
L 108 43.2 
" style="fill: none; stroke: #a9a9a9; stroke-width: 0.8; stroke-linejoin: miter; stroke-linecap: square"/>
   </g>
   <g id="patch_4">
    <path d="M 777.6 320.4 
L 777.6 43.2 
" style="fill: none"/>
   </g>
   <g id="patch_5">
    <path d="M 108 320.4 
L 777.6 320.4 
" style="fill: none; stroke: #a9a9a9; stroke-width: 0.8; stroke-linejoin: miter; stroke-linecap: square"/>
   </g>
   <g id="patch_6">
    <path d="M 108 43.2 
L 777.6 43.2 
" style="fill: none"/>
   </g>
   <g id="text_19">
    <!-- get_subscribe history -->
    <g style="fill: #a9a9a9" transform="translate(378.6075 37.2) scale(0.12 -0.12)">
     <defs>
      <path id="DejaVuSans-67" d="M 2906 1791 
Q 2906 2416 2648 2759 
Q 2391 3103 1925 3103 
Q 1463 3103 1205 2759 
Q 947 2416 947 1791 
Q 947 1169 1205 825 
Q 1463 481 1925 481 
Q 2391 481 2648 825 
Q 2906 1169 2906 1791 
z
M 3481 434 
Q 3481 -459 3084 -895 
Q 2688 -1331 1869 -1331 
Q 1566 -1331 1297 -1286 
Q 1028 -1241 775 -1147 
L 775 -588 
Q 1028 -725 1275 -790 
Q 1522 -856 1778 -856 
Q 2344 -856 2625 -561 
Q 2906 -266 2906 331 
L 2906 616 
Q 2728 306 2450 153 
Q 2172 0 1784 0 
Q 1141 0 747 490 
Q 353 981 353 1791 
Q 353 2603 747 3093 
Q 1141 3584 1784 3584 
Q 2172 3584 2450 3431 
Q 2728 3278 2906 2969 
L 2906 3500 
L 3481 3500 
L 3481 434 
z
" transform="scale(0.015625)"/>
      <path id="DejaVuSans-65" d="M 3597 1894 
L 3597 1613 
L 953 1613 
Q 991 1019 1311 708 
Q 1631 397 2203 397 
Q 2534 397 2845 478 
Q 3156 559 3463 722 
L 3463 178 
Q 3153 47 2828 -22 
Q 2503 -91 2169 -91 
Q 1331 -91 842 396 
Q 353 884 353 1716 
Q 353 2575 817 3079 
Q 1281 3584 2069 3584 
Q 2775 3584 3186 3129 
Q 3597 2675 3597 1894 
z
M 3022 2063 
Q 3016 2534 2758 2815 
Q 2500 3097 2075 3097 
Q 1594 3097 1305 2825 
Q 1016 2553 972 2059 
L 3022 2063 
z
" transform="scale(0.015625)"/>
      <path id="DejaVuSans-74" d="M 1172 4494 
L 1172 3500 
L 2356 3500 
L 2356 3053 
L 1172 3053 
L 1172 1153 
Q 1172 725 1289 603 
Q 1406 481 1766 481 
L 2356 481 
L 2356 0 
L 1766 0 
Q 1100 0 847 248 
Q 594 497 594 1153 
L 594 3053 
L 172 3053 
L 172 3500 
L 594 3500 
L 594 4494 
L 1172 4494 
z
" transform="scale(0.015625)"/>
      <path id="DejaVuSans-5f" d="M 3263 -1063 
L 3263 -1509 
L -63 -1509 
L -63 -1063 
L 3263 -1063 
z
" transform="scale(0.015625)"/>
      <path id="DejaVuSans-73" d="M 2834 3397 
L 2834 2853 
Q 2591 2978 2328 3040 
Q 2066 3103 1784 3103 
Q 1356 3103 1142 2972 
Q 928 2841 928 2578 
Q 928 2378 1081 2264 
Q 1234 2150 1697 2047 
L 1894 2003 
Q 2506 1872 2764 1633 
Q 3022 1394 3022 966 
Q 3022 478 2636 193 
Q 2250 -91 1575 -91 
Q 1294 -91 989 -36 
Q 684 19 347 128 
L 347 722 
Q 666 556 975 473 
Q 1284 391 1588 391 
Q 1994 391 2212 530 
Q 2431 669 2431 922 
Q 2431 1156 2273 1281 
Q 2116 1406 1581 1522 
L 1381 1569 
Q 847 1681 609 1914 
Q 372 2147 372 2553 
Q 372 3047 722 3315 
Q 1072 3584 1716 3584 
Q 2034 3584 2315 3537 
Q 2597 3491 2834 3397 
z
" transform="scale(0.015625)"/>
      <path id="DejaVuSans-75" d="M 544 1381 
L 544 3500 
L 1119 3500 
L 1119 1403 
Q 1119 906 1312 657 
Q 1506 409 1894 409 
Q 2359 409 2629 706 
Q 2900 1003 2900 1516 
L 2900 3500 
L 3475 3500 
L 3475 0 
L 2900 0 
L 2900 538 
Q 2691 219 2414 64 
Q 2138 -91 1772 -91 
Q 1169 -91 856 284 
Q 544 659 544 1381 
z
M 1991 3584 
L 1991 3584 
z
" transform="scale(0.015625)"/>
      <path id="DejaVuSans-62" d="M 3116 1747 
Q 3116 2381 2855 2742 
Q 2594 3103 2138 3103 
Q 1681 3103 1420 2742 
Q 1159 2381 1159 1747 
Q 1159 1113 1420 752 
Q 1681 391 2138 391 
Q 2594 391 2855 752 
Q 3116 1113 3116 1747 
z
M 1159 2969 
Q 1341 3281 1617 3432 
Q 1894 3584 2278 3584 
Q 2916 3584 3314 3078 
Q 3713 2572 3713 1747 
Q 3713 922 3314 415 
Q 2916 -91 2278 -91 
Q 1894 -91 1617 61 
Q 1341 213 1159 525 
L 1159 0 
L 581 0 
L 581 4863 
L 1159 4863 
L 1159 2969 
z
" transform="scale(0.015625)"/>
      <path id="DejaVuSans-63" d="M 3122 3366 
L 3122 2828 
Q 2878 2963 2633 3030 
Q 2388 3097 2138 3097 
Q 1578 3097 1268 2742 
Q 959 2388 959 1747 
Q 959 1106 1268 751 
Q 1578 397 2138 397 
Q 2388 397 2633 464 
Q 2878 531 3122 666 
L 3122 134 
Q 2881 22 2623 -34 
Q 2366 -91 2075 -91 
Q 1284 -91 818 406 
Q 353 903 353 1747 
Q 353 2603 823 3093 
Q 1294 3584 2113 3584 
Q 2378 3584 2631 3529 
Q 2884 3475 3122 3366 
z
" transform="scale(0.015625)"/>
      <path id="DejaVuSans-72" d="M 2631 2963 
Q 2534 3019 2420 3045 
Q 2306 3072 2169 3072 
Q 1681 3072 1420 2755 
Q 1159 2438 1159 1844 
L 1159 0 
L 581 0 
L 581 3500 
L 1159 3500 
L 1159 2956 
Q 1341 3275 1631 3429 
Q 1922 3584 2338 3584 
Q 2397 3584 2469 3576 
Q 2541 3569 2628 3553 
L 2631 2963 
z
" transform="scale(0.015625)"/>
      <path id="DejaVuSans-69" d="M 603 3500 
L 1178 3500 
L 1178 0 
L 603 0 
L 603 3500 
z
M 603 4863 
L 1178 4863 
L 1178 4134 
L 603 4134 
L 603 4863 
z
" transform="scale(0.015625)"/>
      <path id="DejaVuSans-20" transform="scale(0.015625)"/>
      <path id="DejaVuSans-68" d="M 3513 2113 
L 3513 0 
L 2938 0 
L 2938 2094 
Q 2938 2591 2744 2837 
Q 2550 3084 2163 3084 
Q 1697 3084 1428 2787 
Q 1159 2491 1159 1978 
L 1159 0 
L 581 0 
L 581 4863 
L 1159 4863 
L 1159 2956 
Q 1366 3272 1645 3428 
Q 1925 3584 2291 3584 
Q 2894 3584 3203 3211 
Q 3513 2838 3513 2113 
z
" transform="scale(0.015625)"/>
      <path id="DejaVuSans-6f" d="M 1959 3097 
Q 1497 3097 1228 2736 
Q 959 2375 959 1747 
Q 959 1119 1226 758 
Q 1494 397 1959 397 
Q 2419 397 2687 759 
Q 2956 1122 2956 1747 
Q 2956 2369 2687 2733 
Q 2419 3097 1959 3097 
z
M 1959 3584 
Q 2709 3584 3137 3096 
Q 3566 2609 3566 1747 
Q 3566 888 3137 398 
Q 2709 -91 1959 -91 
Q 1206 -91 779 398 
Q 353 888 353 1747 
Q 353 2609 779 3096 
Q 1206 3584 1959 3584 
z
" transform="scale(0.015625)"/>
      <path id="DejaVuSans-79" d="M 2059 -325 
Q 1816 -950 1584 -1140 
Q 1353 -1331 966 -1331 
L 506 -1331 
L 506 -850 
L 844 -850 
Q 1081 -850 1212 -737 
Q 1344 -625 1503 -206 
L 1606 56 
L 191 3500 
L 800 3500 
L 1894 763 
L 2988 3500 
L 3597 3500 
L 2059 -325 
z
" transform="scale(0.015625)"/>
     </defs>
     <use xlink:href="#DejaVuSans-67"/>
     <use xlink:href="#DejaVuSans-65" x="63.476562"/>
     <use xlink:href="#DejaVuSans-74" x="125"/>
     <use xlink:href="#DejaVuSans-5f" x="164.208984"/>
     <use xlink:href="#DejaVuSans-73" x="214.208984"/>
     <use xlink:href="#DejaVuSans-75" x="266.308594"/>
     <use xlink:href="#DejaVuSans-62" x="329.6875"/>
     <use xlink:href="#DejaVuSans-73" x="393.164062"/>
     <use xlink:href="#DejaVuSans-63" x="445.263672"/>
     <use xlink:href="#DejaVuSans-72" x="500.244141"/>
     <use xlink:href="#DejaVuSans-69" x="541.357422"/>
     <use xlink:href="#DejaVuSans-62" x="569.140625"/>
     <use xlink:href="#DejaVuSans-65" x="632.617188"/>
     <use xlink:href="#DejaVuSans-20" x="694.140625"/>
     <use xlink:href="#DejaVuSans-68" x="725.927734"/>
     <use xlink:href="#DejaVuSans-69" x="789.306641"/>
     <use xlink:href="#DejaVuSans-73" x="817.089844"/>
     <use xlink:href="#DejaVuSans-74" x="869.189453"/>
     <use xlink:href="#DejaVuSans-6f" x="908.398438"/>
     <use xlink:href="#DejaVuSans-72" x="969.580078"/>
     <use xlink:href="#DejaVuSans-79" x="1010.693359"/>
    </g>
   </g>
   <g id="legend_1">
    <g id="line2d_39">
     <path d="M 815.08 328.498438 
L 825.08 328.498438 
L 835.08 328.498438 
" style="fill: none; stroke: #1f77b4; stroke-width: 1.5; stroke-linecap: square"/>
    </g>
    <g id="text_20">
     <!-- star -->
     <g style="fill: #a9a9a9" transform="translate(843.08 331.998438) scale(0.1 -0.1)">
      <defs>
       <path id="DejaVuSans-61" d="M 2194 1759 
Q 1497 1759 1228 1600 
Q 959 1441 959 1056 
Q 959 750 1161 570 
Q 1363 391 1709 391 
Q 2188 391 2477 730 
Q 2766 1069 2766 1631 
L 2766 1759 
L 2194 1759 
z
M 3341 1997 
L 3341 0 
L 2766 0 
L 2766 531 
Q 2569 213 2275 61 
Q 1981 -91 1556 -91 
Q 1019 -91 701 211 
Q 384 513 384 1019 
Q 384 1609 779 1909 
Q 1175 2209 1959 2209 
L 2766 2209 
L 2766 2266 
Q 2766 2663 2505 2880 
Q 2244 3097 1772 3097 
Q 1472 3097 1187 3025 
Q 903 2953 641 2809 
L 641 3341 
Q 956 3463 1253 3523 
Q 1550 3584 1831 3584 
Q 2591 3584 2966 3190 
Q 3341 2797 3341 1997 
z
" transform="scale(0.015625)"/>
      </defs>
      <use xlink:href="#DejaVuSans-73"/>
      <use xlink:href="#DejaVuSans-74" x="52.099609"/>
      <use xlink:href="#DejaVuSans-61" x="91.308594"/>
      <use xlink:href="#DejaVuSans-72" x="152.587891"/>
     </g>
    </g>
    <g id="line2d_40">
     <path d="M 815.08 343.176562 
L 825.08 343.176562 
L 835.08 343.176562 
" style="fill: none; stroke: #ff7f0e; stroke-width: 1.5; stroke-linecap: square"/>
    </g>
    <g id="text_21">
     <!-- fork -->
     <g style="fill: #a9a9a9" transform="translate(843.08 346.676562) scale(0.1 -0.1)">
      <defs>
       <path id="DejaVuSans-66" d="M 2375 4863 
L 2375 4384 
L 1825 4384 
Q 1516 4384 1395 4259 
Q 1275 4134 1275 3809 
L 1275 3500 
L 2222 3500 
L 2222 3053 
L 1275 3053 
L 1275 0 
L 697 0 
L 697 3053 
L 147 3053 
L 147 3500 
L 697 3500 
L 697 3744 
Q 697 4328 969 4595 
Q 1241 4863 1831 4863 
L 2375 4863 
z
" transform="scale(0.015625)"/>
       <path id="DejaVuSans-6b" d="M 581 4863 
L 1159 4863 
L 1159 1991 
L 2875 3500 
L 3609 3500 
L 1753 1863 
L 3688 0 
L 2938 0 
L 1159 1709 
L 1159 0 
L 581 0 
L 581 4863 
z
" transform="scale(0.015625)"/>
      </defs>
      <use xlink:href="#DejaVuSans-66"/>
      <use xlink:href="#DejaVuSans-6f" x="35.205078"/>
      <use xlink:href="#DejaVuSans-72" x="96.386719"/>
      <use xlink:href="#DejaVuSans-6b" x="137.5"/>
     </g>
    </g>
   </g>
  </g>
 </g>
 <defs>
  <clipPath id="pfbb137262b">
   <rect x="108" y="43.2" width="669.6" height="277.2"/>
  </clipPath>
 </defs>
</svg>
