<?xml version="1.0" encoding="utf-8" standalone="no"?>
<!DOCTYPE svg PUBLIC "-//W3C//DTD SVG 1.1//EN"
  "http://www.w3.org/Graphics/SVG/1.1/DTD/svg11.dtd">
<svg xmlns:xlink="http://www.w3.org/1999/xlink" width="864pt" height="360pt" viewBox="0 0 864 360" xmlns="http://www.w3.org/2000/svg" version="1.1">
 <metadata>
  <rdf:RDF xmlns:dc="http://purl.org/dc/elements/1.1/" xmlns:cc="http://creativecommons.org/ns#" xmlns:rdf="http://www.w3.org/1999/02/22-rdf-syntax-ns#">
   <cc:Work>
    <dc:type rdf:resource="http://purl.org/dc/dcmitype/StillImage"/>
    <dc:date>2023-01-05T08:59:01.312654</dc:date>
    <dc:format>image/svg+xml</dc:format>
    <dc:creator>
     <cc:Agent>
      <dc:title>Matplotlib v3.6.2, https://matplotlib.org/</dc:title>
     </cc:Agent>
    </dc:creator>
   </cc:Work>
  </rdf:RDF>
 </metadata>
 <defs>
  <style type="text/css">*{stroke-linejoin: round; stroke-linecap: butt}</style>
 </defs>
 <g id="figure_1">
  <g id="patch_1">
   <path d="M 0 360 
L 864 360 
L 864 0 
L 0 0 
L 0 360 
z
" style="fill: none; opacity: 0"/>
  </g>
  <g id="axes_1">
   <g id="patch_2">
    <path d="M 108 320.4 
L 777.6 320.4 
L 777.6 43.2 
L 108 43.2 
L 108 320.4 
z
" style="fill: none; opacity: 0"/>
   </g>
   <g id="matplotlib.axis_1">
    <g id="xtick_1">
     <g id="line2d_1">
      <path d="M 112.019897 320.4 
L 112.019897 43.2 
" clip-path="url(#pe868a4862d)" style="fill: none; stroke-dasharray: 5.12,1.28,0.8,1.28; stroke-dashoffset: 0; stroke: #b0b0b0; stroke-width: 0.8"/>
     </g>
     <g id="line2d_2">
      <defs>
       <path id="mad21e4c816" d="M 0 0 
L 0 3.5 
" style="stroke: #a9a9a9; stroke-width: 0.8"/>
      </defs>
      <g>
       <use xlink:href="#mad21e4c816" x="112.019897" y="320.4" style="fill: #a9a9a9; stroke: #a9a9a9; stroke-width: 0.8"/>
      </g>
     </g>
     <g id="text_1">
      <!-- 2021-07 -->
      <g style="fill: #a9a9a9" transform="translate(91.128491 334.998438) scale(0.1 -0.1)">
       <defs>
        <path id="DejaVuSans-32" d="M 1228 531 
L 3431 531 
L 3431 0 
L 469 0 
L 469 531 
Q 828 903 1448 1529 
Q 2069 2156 2228 2338 
Q 2531 2678 2651 2914 
Q 2772 3150 2772 3378 
Q 2772 3750 2511 3984 
Q 2250 4219 1831 4219 
Q 1534 4219 1204 4116 
Q 875 4013 500 3803 
L 500 4441 
Q 881 4594 1212 4672 
Q 1544 4750 1819 4750 
Q 2544 4750 2975 4387 
Q 3406 4025 3406 3419 
Q 3406 3131 3298 2873 
Q 3191 2616 2906 2266 
Q 2828 2175 2409 1742 
Q 1991 1309 1228 531 
z
" transform="scale(0.015625)"/>
        <path id="DejaVuSans-30" d="M 2034 4250 
Q 1547 4250 1301 3770 
Q 1056 3291 1056 2328 
Q 1056 1369 1301 889 
Q 1547 409 2034 409 
Q 2525 409 2770 889 
Q 3016 1369 3016 2328 
Q 3016 3291 2770 3770 
Q 2525 4250 2034 4250 
z
M 2034 4750 
Q 2819 4750 3233 4129 
Q 3647 3509 3647 2328 
Q 3647 1150 3233 529 
Q 2819 -91 2034 -91 
Q 1250 -91 836 529 
Q 422 1150 422 2328 
Q 422 3509 836 4129 
Q 1250 4750 2034 4750 
z
" transform="scale(0.015625)"/>
        <path id="DejaVuSans-31" d="M 794 531 
L 1825 531 
L 1825 4091 
L 703 3866 
L 703 4441 
L 1819 4666 
L 2450 4666 
L 2450 531 
L 3481 531 
L 3481 0 
L 794 0 
L 794 531 
z
" transform="scale(0.015625)"/>
        <path id="DejaVuSans-2d" d="M 313 2009 
L 1997 2009 
L 1997 1497 
L 313 1497 
L 313 2009 
z
" transform="scale(0.015625)"/>
        <path id="DejaVuSans-37" d="M 525 4666 
L 3525 4666 
L 3525 4397 
L 1831 0 
L 1172 0 
L 2766 4134 
L 525 4134 
L 525 4666 
z
" transform="scale(0.015625)"/>
       </defs>
       <use xlink:href="#DejaVuSans-32"/>
       <use xlink:href="#DejaVuSans-30" x="63.623047"/>
       <use xlink:href="#DejaVuSans-32" x="127.246094"/>
       <use xlink:href="#DejaVuSans-31" x="190.869141"/>
       <use xlink:href="#DejaVuSans-2d" x="254.492188"/>
       <use xlink:href="#DejaVuSans-30" x="290.576172"/>
       <use xlink:href="#DejaVuSans-37" x="354.199219"/>
      </g>
     </g>
    </g>
    <g id="xtick_2">
     <g id="line2d_3">
      <path d="M 183.229503 320.4 
L 183.229503 43.2 
" clip-path="url(#pe868a4862d)" style="fill: none; stroke-dasharray: 5.12,1.28,0.8,1.28; stroke-dashoffset: 0; stroke: #b0b0b0; stroke-width: 0.8"/>
     </g>
     <g id="line2d_4">
      <g>
       <use xlink:href="#mad21e4c816" x="183.229503" y="320.4" style="fill: #a9a9a9; stroke: #a9a9a9; stroke-width: 0.8"/>
      </g>
     </g>
     <g id="text_2">
      <!-- 2021-09 -->
      <g style="fill: #a9a9a9" transform="translate(162.338096 334.998438) scale(0.1 -0.1)">
       <defs>
        <path id="DejaVuSans-39" d="M 703 97 
L 703 672 
Q 941 559 1184 500 
Q 1428 441 1663 441 
Q 2288 441 2617 861 
Q 2947 1281 2994 2138 
Q 2813 1869 2534 1725 
Q 2256 1581 1919 1581 
Q 1219 1581 811 2004 
Q 403 2428 403 3163 
Q 403 3881 828 4315 
Q 1253 4750 1959 4750 
Q 2769 4750 3195 4129 
Q 3622 3509 3622 2328 
Q 3622 1225 3098 567 
Q 2575 -91 1691 -91 
Q 1453 -91 1209 -44 
Q 966 3 703 97 
z
M 1959 2075 
Q 2384 2075 2632 2365 
Q 2881 2656 2881 3163 
Q 2881 3666 2632 3958 
Q 2384 4250 1959 4250 
Q 1534 4250 1286 3958 
Q 1038 3666 1038 3163 
Q 1038 2656 1286 2365 
Q 1534 2075 1959 2075 
z
" transform="scale(0.015625)"/>
       </defs>
       <use xlink:href="#DejaVuSans-32"/>
       <use xlink:href="#DejaVuSans-30" x="63.623047"/>
       <use xlink:href="#DejaVuSans-32" x="127.246094"/>
       <use xlink:href="#DejaVuSans-31" x="190.869141"/>
       <use xlink:href="#DejaVuSans-2d" x="254.492188"/>
       <use xlink:href="#DejaVuSans-30" x="290.576172"/>
       <use xlink:href="#DejaVuSans-39" x="354.199219"/>
      </g>
     </g>
    </g>
    <g id="xtick_3">
     <g id="line2d_5">
      <path d="M 253.290566 320.4 
L 253.290566 43.2 
" clip-path="url(#pe868a4862d)" style="fill: none; stroke-dasharray: 5.12,1.28,0.8,1.28; stroke-dashoffset: 0; stroke: #b0b0b0; stroke-width: 0.8"/>
     </g>
     <g id="line2d_6">
      <g>
       <use xlink:href="#mad21e4c816" x="253.290566" y="320.4" style="fill: #a9a9a9; stroke: #a9a9a9; stroke-width: 0.8"/>
      </g>
     </g>
     <g id="text_3">
      <!-- 2021-11 -->
      <g style="fill: #a9a9a9" transform="translate(232.39916 334.998438) scale(0.1 -0.1)">
       <use xlink:href="#DejaVuSans-32"/>
       <use xlink:href="#DejaVuSans-30" x="63.623047"/>
       <use xlink:href="#DejaVuSans-32" x="127.246094"/>
       <use xlink:href="#DejaVuSans-31" x="190.869141"/>
       <use xlink:href="#DejaVuSans-2d" x="254.492188"/>
       <use xlink:href="#DejaVuSans-31" x="290.576172"/>
       <use xlink:href="#DejaVuSans-31" x="354.199219"/>
      </g>
     </g>
    </g>
    <g id="xtick_4">
     <g id="line2d_7">
      <path d="M 323.35163 320.4 
L 323.35163 43.2 
" clip-path="url(#pe868a4862d)" style="fill: none; stroke-dasharray: 5.12,1.28,0.8,1.28; stroke-dashoffset: 0; stroke: #b0b0b0; stroke-width: 0.8"/>
     </g>
     <g id="line2d_8">
      <g>
       <use xlink:href="#mad21e4c816" x="323.35163" y="320.4" style="fill: #a9a9a9; stroke: #a9a9a9; stroke-width: 0.8"/>
      </g>
     </g>
     <g id="text_4">
      <!-- 2022-01 -->
      <g style="fill: #a9a9a9" transform="translate(302.460223 334.998438) scale(0.1 -0.1)">
       <use xlink:href="#DejaVuSans-32"/>
       <use xlink:href="#DejaVuSans-30" x="63.623047"/>
       <use xlink:href="#DejaVuSans-32" x="127.246094"/>
       <use xlink:href="#DejaVuSans-32" x="190.869141"/>
       <use xlink:href="#DejaVuSans-2d" x="254.492188"/>
       <use xlink:href="#DejaVuSans-30" x="290.576172"/>
       <use xlink:href="#DejaVuSans-31" x="354.199219"/>
      </g>
     </g>
    </g>
    <g id="xtick_5">
     <g id="line2d_9">
      <path d="M 391.115609 320.4 
L 391.115609 43.2 
" clip-path="url(#pe868a4862d)" style="fill: none; stroke-dasharray: 5.12,1.28,0.8,1.28; stroke-dashoffset: 0; stroke: #b0b0b0; stroke-width: 0.8"/>
     </g>
     <g id="line2d_10">
      <g>
       <use xlink:href="#mad21e4c816" x="391.115609" y="320.4" style="fill: #a9a9a9; stroke: #a9a9a9; stroke-width: 0.8"/>
      </g>
     </g>
     <g id="text_5">
      <!-- 2022-03 -->
      <g style="fill: #a9a9a9" transform="translate(370.224203 334.998438) scale(0.1 -0.1)">
       <defs>
        <path id="DejaVuSans-33" d="M 2597 2516 
Q 3050 2419 3304 2112 
Q 3559 1806 3559 1356 
Q 3559 666 3084 287 
Q 2609 -91 1734 -91 
Q 1441 -91 1130 -33 
Q 819 25 488 141 
L 488 750 
Q 750 597 1062 519 
Q 1375 441 1716 441 
Q 2309 441 2620 675 
Q 2931 909 2931 1356 
Q 2931 1769 2642 2001 
Q 2353 2234 1838 2234 
L 1294 2234 
L 1294 2753 
L 1863 2753 
Q 2328 2753 2575 2939 
Q 2822 3125 2822 3475 
Q 2822 3834 2567 4026 
Q 2313 4219 1838 4219 
Q 1578 4219 1281 4162 
Q 984 4106 628 3988 
L 628 4550 
Q 988 4650 1302 4700 
Q 1616 4750 1894 4750 
Q 2613 4750 3031 4423 
Q 3450 4097 3450 3541 
Q 3450 3153 3228 2886 
Q 3006 2619 2597 2516 
z
" transform="scale(0.015625)"/>
       </defs>
       <use xlink:href="#DejaVuSans-32"/>
       <use xlink:href="#DejaVuSans-30" x="63.623047"/>
       <use xlink:href="#DejaVuSans-32" x="127.246094"/>
       <use xlink:href="#DejaVuSans-32" x="190.869141"/>
       <use xlink:href="#DejaVuSans-2d" x="254.492188"/>
       <use xlink:href="#DejaVuSans-30" x="290.576172"/>
       <use xlink:href="#DejaVuSans-33" x="354.199219"/>
      </g>
     </g>
    </g>
    <g id="xtick_6">
     <g id="line2d_11">
      <path d="M 461.176672 320.4 
L 461.176672 43.2 
" clip-path="url(#pe868a4862d)" style="fill: none; stroke-dasharray: 5.12,1.28,0.8,1.28; stroke-dashoffset: 0; stroke: #b0b0b0; stroke-width: 0.8"/>
     </g>
     <g id="line2d_12">
      <g>
       <use xlink:href="#mad21e4c816" x="461.176672" y="320.4" style="fill: #a9a9a9; stroke: #a9a9a9; stroke-width: 0.8"/>
      </g>
     </g>
     <g id="text_6">
      <!-- 2022-05 -->
      <g style="fill: #a9a9a9" transform="translate(440.285266 334.998438) scale(0.1 -0.1)">
       <defs>
        <path id="DejaVuSans-35" d="M 691 4666 
L 3169 4666 
L 3169 4134 
L 1269 4134 
L 1269 2991 
Q 1406 3038 1543 3061 
Q 1681 3084 1819 3084 
Q 2600 3084 3056 2656 
Q 3513 2228 3513 1497 
Q 3513 744 3044 326 
Q 2575 -91 1722 -91 
Q 1428 -91 1123 -41 
Q 819 9 494 109 
L 494 744 
Q 775 591 1075 516 
Q 1375 441 1709 441 
Q 2250 441 2565 725 
Q 2881 1009 2881 1497 
Q 2881 1984 2565 2268 
Q 2250 2553 1709 2553 
Q 1456 2553 1204 2497 
Q 953 2441 691 2322 
L 691 4666 
z
" transform="scale(0.015625)"/>
       </defs>
       <use xlink:href="#DejaVuSans-32"/>
       <use xlink:href="#DejaVuSans-30" x="63.623047"/>
       <use xlink:href="#DejaVuSans-32" x="127.246094"/>
       <use xlink:href="#DejaVuSans-32" x="190.869141"/>
       <use xlink:href="#DejaVuSans-2d" x="254.492188"/>
       <use xlink:href="#DejaVuSans-30" x="290.576172"/>
       <use xlink:href="#DejaVuSans-35" x="354.199219"/>
      </g>
     </g>
    </g>
    <g id="xtick_7">
     <g id="line2d_13">
      <path d="M 531.237736 320.4 
L 531.237736 43.2 
" clip-path="url(#pe868a4862d)" style="fill: none; stroke-dasharray: 5.12,1.28,0.8,1.28; stroke-dashoffset: 0; stroke: #b0b0b0; stroke-width: 0.8"/>
     </g>
     <g id="line2d_14">
      <g>
       <use xlink:href="#mad21e4c816" x="531.237736" y="320.4" style="fill: #a9a9a9; stroke: #a9a9a9; stroke-width: 0.8"/>
      </g>
     </g>
     <g id="text_7">
      <!-- 2022-07 -->
      <g style="fill: #a9a9a9" transform="translate(510.34633 334.998438) scale(0.1 -0.1)">
       <use xlink:href="#DejaVuSans-32"/>
       <use xlink:href="#DejaVuSans-30" x="63.623047"/>
       <use xlink:href="#DejaVuSans-32" x="127.246094"/>
       <use xlink:href="#DejaVuSans-32" x="190.869141"/>
       <use xlink:href="#DejaVuSans-2d" x="254.492188"/>
       <use xlink:href="#DejaVuSans-30" x="290.576172"/>
       <use xlink:href="#DejaVuSans-37" x="354.199219"/>
      </g>
     </g>
    </g>
    <g id="xtick_8">
     <g id="line2d_15">
      <path d="M 602.447341 320.4 
L 602.447341 43.2 
" clip-path="url(#pe868a4862d)" style="fill: none; stroke-dasharray: 5.12,1.28,0.8,1.28; stroke-dashoffset: 0; stroke: #b0b0b0; stroke-width: 0.8"/>
     </g>
     <g id="line2d_16">
      <g>
       <use xlink:href="#mad21e4c816" x="602.447341" y="320.4" style="fill: #a9a9a9; stroke: #a9a9a9; stroke-width: 0.8"/>
      </g>
     </g>
     <g id="text_8">
      <!-- 2022-09 -->
      <g style="fill: #a9a9a9" transform="translate(581.555935 334.998438) scale(0.1 -0.1)">
       <use xlink:href="#DejaVuSans-32"/>
       <use xlink:href="#DejaVuSans-30" x="63.623047"/>
       <use xlink:href="#DejaVuSans-32" x="127.246094"/>
       <use xlink:href="#DejaVuSans-32" x="190.869141"/>
       <use xlink:href="#DejaVuSans-2d" x="254.492188"/>
       <use xlink:href="#DejaVuSans-30" x="290.576172"/>
       <use xlink:href="#DejaVuSans-39" x="354.199219"/>
      </g>
     </g>
    </g>
    <g id="xtick_9">
     <g id="line2d_17">
      <path d="M 672.508405 320.4 
L 672.508405 43.2 
" clip-path="url(#pe868a4862d)" style="fill: none; stroke-dasharray: 5.12,1.28,0.8,1.28; stroke-dashoffset: 0; stroke: #b0b0b0; stroke-width: 0.8"/>
     </g>
     <g id="line2d_18">
      <g>
       <use xlink:href="#mad21e4c816" x="672.508405" y="320.4" style="fill: #a9a9a9; stroke: #a9a9a9; stroke-width: 0.8"/>
      </g>
     </g>
     <g id="text_9">
      <!-- 2022-11 -->
      <g style="fill: #a9a9a9" transform="translate(651.616999 334.998438) scale(0.1 -0.1)">
       <use xlink:href="#DejaVuSans-32"/>
       <use xlink:href="#DejaVuSans-30" x="63.623047"/>
       <use xlink:href="#DejaVuSans-32" x="127.246094"/>
       <use xlink:href="#DejaVuSans-32" x="190.869141"/>
       <use xlink:href="#DejaVuSans-2d" x="254.492188"/>
       <use xlink:href="#DejaVuSans-31" x="290.576172"/>
       <use xlink:href="#DejaVuSans-31" x="354.199219"/>
      </g>
     </g>
    </g>
    <g id="xtick_10">
     <g id="line2d_19">
      <path d="M 742.569468 320.4 
L 742.569468 43.2 
" clip-path="url(#pe868a4862d)" style="fill: none; stroke-dasharray: 5.12,1.28,0.8,1.28; stroke-dashoffset: 0; stroke: #b0b0b0; stroke-width: 0.8"/>
     </g>
     <g id="line2d_20">
      <g>
       <use xlink:href="#mad21e4c816" x="742.569468" y="320.4" style="fill: #a9a9a9; stroke: #a9a9a9; stroke-width: 0.8"/>
      </g>
     </g>
     <g id="text_10">
      <!-- 2023-01 -->
      <g style="fill: #a9a9a9" transform="translate(721.678062 334.998438) scale(0.1 -0.1)">
       <use xlink:href="#DejaVuSans-32"/>
       <use xlink:href="#DejaVuSans-30" x="63.623047"/>
       <use xlink:href="#DejaVuSans-32" x="127.246094"/>
       <use xlink:href="#DejaVuSans-33" x="190.869141"/>
       <use xlink:href="#DejaVuSans-2d" x="254.492188"/>
       <use xlink:href="#DejaVuSans-30" x="290.576172"/>
       <use xlink:href="#DejaVuSans-31" x="354.199219"/>
      </g>
     </g>
    </g>
   </g>
   <g id="matplotlib.axis_2">
    <g id="ytick_1">
     <g id="line2d_21">
      <path d="M 108 307.871856 
L 777.6 307.871856 
" clip-path="url(#pe868a4862d)" style="fill: none; stroke-dasharray: 5.12,1.28,0.8,1.28; stroke-dashoffset: 0; stroke: #b0b0b0; stroke-width: 0.8"/>
     </g>
     <g id="line2d_22">
      <defs>
       <path id="mf9a47fdc98" d="M 0 0 
L -3.5 0 
" style="stroke: #a9a9a9; stroke-width: 0.8"/>
      </defs>
      <g>
       <use xlink:href="#mf9a47fdc98" x="108" y="307.871856" style="fill: #a9a9a9; stroke: #a9a9a9; stroke-width: 0.8"/>
      </g>
     </g>
     <g id="text_11">
      <!-- 0 -->
      <g style="fill: #a9a9a9" transform="translate(94.6375 311.671075) scale(0.1 -0.1)">
       <use xlink:href="#DejaVuSans-30"/>
      </g>
     </g>
    </g>
    <g id="ytick_2">
     <g id="line2d_23">
      <path d="M 108 279.129341 
L 777.6 279.129341 
" clip-path="url(#pe868a4862d)" style="fill: none; stroke-dasharray: 5.12,1.28,0.8,1.28; stroke-dashoffset: 0; stroke: #b0b0b0; stroke-width: 0.8"/>
     </g>
     <g id="line2d_24">
      <g>
       <use xlink:href="#mf9a47fdc98" x="108" y="279.129341" style="fill: #a9a9a9; stroke: #a9a9a9; stroke-width: 0.8"/>
      </g>
     </g>
     <g id="text_12">
      <!-- 400 -->
      <g style="fill: #a9a9a9" transform="translate(81.9125 282.92856) scale(0.1 -0.1)">
       <defs>
        <path id="DejaVuSans-34" d="M 2419 4116 
L 825 1625 
L 2419 1625 
L 2419 4116 
z
M 2253 4666 
L 3047 4666 
L 3047 1625 
L 3713 1625 
L 3713 1100 
L 3047 1100 
L 3047 0 
L 2419 0 
L 2419 1100 
L 313 1100 
L 313 1709 
L 2253 4666 
z
" transform="scale(0.015625)"/>
       </defs>
       <use xlink:href="#DejaVuSans-34"/>
       <use xlink:href="#DejaVuSans-30" x="63.623047"/>
       <use xlink:href="#DejaVuSans-30" x="127.246094"/>
      </g>
     </g>
    </g>
    <g id="ytick_3">
     <g id="line2d_25">
      <path d="M 108 250.386826 
L 777.6 250.386826 
" clip-path="url(#pe868a4862d)" style="fill: none; stroke-dasharray: 5.12,1.28,0.8,1.28; stroke-dashoffset: 0; stroke: #b0b0b0; stroke-width: 0.8"/>
     </g>
     <g id="line2d_26">
      <g>
       <use xlink:href="#mf9a47fdc98" x="108" y="250.386826" style="fill: #a9a9a9; stroke: #a9a9a9; stroke-width: 0.8"/>
      </g>
     </g>
     <g id="text_13">
      <!-- 800 -->
      <g style="fill: #a9a9a9" transform="translate(81.9125 254.186045) scale(0.1 -0.1)">
       <defs>
        <path id="DejaVuSans-38" d="M 2034 2216 
Q 1584 2216 1326 1975 
Q 1069 1734 1069 1313 
Q 1069 891 1326 650 
Q 1584 409 2034 409 
Q 2484 409 2743 651 
Q 3003 894 3003 1313 
Q 3003 1734 2745 1975 
Q 2488 2216 2034 2216 
z
M 1403 2484 
Q 997 2584 770 2862 
Q 544 3141 544 3541 
Q 544 4100 942 4425 
Q 1341 4750 2034 4750 
Q 2731 4750 3128 4425 
Q 3525 4100 3525 3541 
Q 3525 3141 3298 2862 
Q 3072 2584 2669 2484 
Q 3125 2378 3379 2068 
Q 3634 1759 3634 1313 
Q 3634 634 3220 271 
Q 2806 -91 2034 -91 
Q 1263 -91 848 271 
Q 434 634 434 1313 
Q 434 1759 690 2068 
Q 947 2378 1403 2484 
z
M 1172 3481 
Q 1172 3119 1398 2916 
Q 1625 2713 2034 2713 
Q 2441 2713 2670 2916 
Q 2900 3119 2900 3481 
Q 2900 3844 2670 4047 
Q 2441 4250 2034 4250 
Q 1625 4250 1398 4047 
Q 1172 3844 1172 3481 
z
" transform="scale(0.015625)"/>
       </defs>
       <use xlink:href="#DejaVuSans-38"/>
       <use xlink:href="#DejaVuSans-30" x="63.623047"/>
       <use xlink:href="#DejaVuSans-30" x="127.246094"/>
      </g>
     </g>
    </g>
    <g id="ytick_4">
     <g id="line2d_27">
      <path d="M 108 221.644311 
L 777.6 221.644311 
" clip-path="url(#pe868a4862d)" style="fill: none; stroke-dasharray: 5.12,1.28,0.8,1.28; stroke-dashoffset: 0; stroke: #b0b0b0; stroke-width: 0.8"/>
     </g>
     <g id="line2d_28">
      <g>
       <use xlink:href="#mf9a47fdc98" x="108" y="221.644311" style="fill: #a9a9a9; stroke: #a9a9a9; stroke-width: 0.8"/>
      </g>
     </g>
     <g id="text_14">
      <!-- 1200 -->
      <g style="fill: #a9a9a9" transform="translate(75.55 225.44353) scale(0.1 -0.1)">
       <use xlink:href="#DejaVuSans-31"/>
       <use xlink:href="#DejaVuSans-32" x="63.623047"/>
       <use xlink:href="#DejaVuSans-30" x="127.246094"/>
       <use xlink:href="#DejaVuSans-30" x="190.869141"/>
      </g>
     </g>
    </g>
    <g id="ytick_5">
     <g id="line2d_29">
      <path d="M 108 192.901796 
L 777.6 192.901796 
" clip-path="url(#pe868a4862d)" style="fill: none; stroke-dasharray: 5.12,1.28,0.8,1.28; stroke-dashoffset: 0; stroke: #b0b0b0; stroke-width: 0.8"/>
     </g>
     <g id="line2d_30">
      <g>
       <use xlink:href="#mf9a47fdc98" x="108" y="192.901796" style="fill: #a9a9a9; stroke: #a9a9a9; stroke-width: 0.8"/>
      </g>
     </g>
     <g id="text_15">
      <!-- 1600 -->
      <g style="fill: #a9a9a9" transform="translate(75.55 196.701015) scale(0.1 -0.1)">
       <defs>
        <path id="DejaVuSans-36" d="M 2113 2584 
Q 1688 2584 1439 2293 
Q 1191 2003 1191 1497 
Q 1191 994 1439 701 
Q 1688 409 2113 409 
Q 2538 409 2786 701 
Q 3034 994 3034 1497 
Q 3034 2003 2786 2293 
Q 2538 2584 2113 2584 
z
M 3366 4563 
L 3366 3988 
Q 3128 4100 2886 4159 
Q 2644 4219 2406 4219 
Q 1781 4219 1451 3797 
Q 1122 3375 1075 2522 
Q 1259 2794 1537 2939 
Q 1816 3084 2150 3084 
Q 2853 3084 3261 2657 
Q 3669 2231 3669 1497 
Q 3669 778 3244 343 
Q 2819 -91 2113 -91 
Q 1303 -91 875 529 
Q 447 1150 447 2328 
Q 447 3434 972 4092 
Q 1497 4750 2381 4750 
Q 2619 4750 2861 4703 
Q 3103 4656 3366 4563 
z
" transform="scale(0.015625)"/>
       </defs>
       <use xlink:href="#DejaVuSans-31"/>
       <use xlink:href="#DejaVuSans-36" x="63.623047"/>
       <use xlink:href="#DejaVuSans-30" x="127.246094"/>
       <use xlink:href="#DejaVuSans-30" x="190.869141"/>
      </g>
     </g>
    </g>
    <g id="ytick_6">
     <g id="line2d_31">
      <path d="M 108 164.159281 
L 777.6 164.159281 
" clip-path="url(#pe868a4862d)" style="fill: none; stroke-dasharray: 5.12,1.28,0.8,1.28; stroke-dashoffset: 0; stroke: #b0b0b0; stroke-width: 0.8"/>
     </g>
     <g id="line2d_32">
      <g>
       <use xlink:href="#mf9a47fdc98" x="108" y="164.159281" style="fill: #a9a9a9; stroke: #a9a9a9; stroke-width: 0.8"/>
      </g>
     </g>
     <g id="text_16">
      <!-- 2000 -->
      <g style="fill: #a9a9a9" transform="translate(75.55 167.9585) scale(0.1 -0.1)">
       <use xlink:href="#DejaVuSans-32"/>
       <use xlink:href="#DejaVuSans-30" x="63.623047"/>
       <use xlink:href="#DejaVuSans-30" x="127.246094"/>
       <use xlink:href="#DejaVuSans-30" x="190.869141"/>
      </g>
     </g>
    </g>
    <g id="ytick_7">
     <g id="line2d_33">
      <path d="M 108 135.416766 
L 777.6 135.416766 
" clip-path="url(#pe868a4862d)" style="fill: none; stroke-dasharray: 5.12,1.28,0.8,1.28; stroke-dashoffset: 0; stroke: #b0b0b0; stroke-width: 0.8"/>
     </g>
     <g id="line2d_34">
      <g>
       <use xlink:href="#mf9a47fdc98" x="108" y="135.416766" style="fill: #a9a9a9; stroke: #a9a9a9; stroke-width: 0.8"/>
      </g>
     </g>
     <g id="text_17">
      <!-- 2400 -->
      <g style="fill: #a9a9a9" transform="translate(75.55 139.215985) scale(0.1 -0.1)">
       <use xlink:href="#DejaVuSans-32"/>
       <use xlink:href="#DejaVuSans-34" x="63.623047"/>
       <use xlink:href="#DejaVuSans-30" x="127.246094"/>
       <use xlink:href="#DejaVuSans-30" x="190.869141"/>
      </g>
     </g>
    </g>
    <g id="ytick_8">
     <g id="line2d_35">
      <path d="M 108 106.674251 
L 777.6 106.674251 
" clip-path="url(#pe868a4862d)" style="fill: none; stroke-dasharray: 5.12,1.28,0.8,1.28; stroke-dashoffset: 0; stroke: #b0b0b0; stroke-width: 0.8"/>
     </g>
     <g id="line2d_36">
      <g>
       <use xlink:href="#mf9a47fdc98" x="108" y="106.674251" style="fill: #a9a9a9; stroke: #a9a9a9; stroke-width: 0.8"/>
      </g>
     </g>
     <g id="text_18">
      <!-- 2800 -->
      <g style="fill: #a9a9a9" transform="translate(75.55 110.47347) scale(0.1 -0.1)">
       <use xlink:href="#DejaVuSans-32"/>
       <use xlink:href="#DejaVuSans-38" x="63.623047"/>
       <use xlink:href="#DejaVuSans-30" x="127.246094"/>
       <use xlink:href="#DejaVuSans-30" x="190.869141"/>
      </g>
     </g>
    </g>
    <g id="ytick_9">
     <g id="line2d_37">
      <path d="M 108 77.931737 
L 777.6 77.931737 
" clip-path="url(#pe868a4862d)" style="fill: none; stroke-dasharray: 5.12,1.28,0.8,1.28; stroke-dashoffset: 0; stroke: #b0b0b0; stroke-width: 0.8"/>
     </g>
     <g id="line2d_38">
      <g>
       <use xlink:href="#mf9a47fdc98" x="108" y="77.931737" style="fill: #a9a9a9; stroke: #a9a9a9; stroke-width: 0.8"/>
      </g>
     </g>
     <g id="text_19">
      <!-- 3200 -->
      <g style="fill: #a9a9a9" transform="translate(75.55 81.730955) scale(0.1 -0.1)">
       <use xlink:href="#DejaVuSans-33"/>
       <use xlink:href="#DejaVuSans-32" x="63.623047"/>
       <use xlink:href="#DejaVuSans-30" x="127.246094"/>
       <use xlink:href="#DejaVuSans-30" x="190.869141"/>
      </g>
     </g>
    </g>
    <g id="ytick_10">
     <g id="line2d_39">
      <path d="M 108 49.189222 
L 777.6 49.189222 
" clip-path="url(#pe868a4862d)" style="fill: none; stroke-dasharray: 5.12,1.28,0.8,1.28; stroke-dashoffset: 0; stroke: #b0b0b0; stroke-width: 0.8"/>
     </g>
     <g id="line2d_40">
      <g>
       <use xlink:href="#mf9a47fdc98" x="108" y="49.189222" style="fill: #a9a9a9; stroke: #a9a9a9; stroke-width: 0.8"/>
      </g>
     </g>
     <g id="text_20">
      <!-- 3600 -->
      <g style="fill: #a9a9a9" transform="translate(75.55 52.98844) scale(0.1 -0.1)">
       <use xlink:href="#DejaVuSans-33"/>
       <use xlink:href="#DejaVuSans-36" x="63.623047"/>
       <use xlink:href="#DejaVuSans-30" x="127.246094"/>
       <use xlink:href="#DejaVuSans-30" x="190.869141"/>
      </g>
     </g>
    </g>
   </g>
   <g id="line2d_41">
    <path d="M 138.436364 307.584431 
L 143.030532 307.22515 
L 144.179074 307.081437 
L 145.327616 307.081437 
L 146.476158 306.650299 
L 148.773242 306.506587 
L 156.813036 304.997605 
L 159.11012 304.853892 
L 160.258662 304.638323 
L 163.704288 304.422754 
L 164.85283 303.847904 
L 166.001372 303.560479 
L 167.149914 302.267066 
L 168.298456 301.548503 
L 169.446998 299.033533 
L 170.59554 298.88982 
L 171.744082 298.099401 
L 172.892624 297.668263 
L 174.041166 297.093413 
L 177.486792 294.434731 
L 178.635334 293.85988 
L 180.932419 292.997605 
L 182.080961 292.207186 
L 183.229503 291.776048 
L 185.526587 290.410778 
L 186.675129 290.051497 
L 187.823671 288.326946 
L 188.972213 287.464671 
L 190.120755 286.817964 
L 191.269297 286.31497 
L 195.863465 285.668263 
L 199.309091 285.093413 
L 201.606175 284.949701 
L 202.754717 284.734132 
L 203.903259 284.159281 
L 208.497427 283.8 
L 211.943053 283.440719 
L 213.091595 283.081437 
L 218.834305 282.003593 
L 221.131389 281.788024 
L 222.279931 281.500599 
L 225.725557 281.069461 
L 226.874099 280.494611 
L 228.022642 280.350898 
L 230.319726 279.560479 
L 232.61681 279.34491 
L 233.765352 278.985629 
L 238.35952 278.338922 
L 239.508062 277.979641 
L 241.805146 277.620359 
L 242.953688 277.620359 
L 248.696398 276.901796 
L 250.993482 276.25509 
L 252.142024 275.967665 
L 254.439108 275.752096 
L 255.58765 275.68024 
L 259.033276 275.033533 
L 260.181818 274.602395 
L 261.33036 273.165269 
L 262.478902 272.734132 
L 263.627444 272.159281 
L 264.775986 272.015569 
L 265.924528 271.728144 
L 267.07307 271.584431 
L 269.370154 270.650299 
L 270.518696 270.578443 
L 276.261407 269.141317 
L 277.409949 269.141317 
L 279.707033 268.853892 
L 282.004117 268.207186 
L 285.449743 267.34491 
L 286.598285 267.273054 
L 288.895369 266.338922 
L 290.043911 266.19521 
L 291.192453 265.692216 
L 293.489537 265.476647 
L 294.638079 265.40479 
L 298.083705 264.82994 
L 300.380789 264.470659 
L 303.826415 263.823952 
L 304.974957 263.464671 
L 306.123499 263.320958 
L 308.420583 262.530539 
L 309.569125 261.883832 
L 310.717667 261.596407 
L 311.866209 261.452695 
L 314.163293 260.734132 
L 316.460377 259.512575 
L 317.608919 258.794012 
L 318.757461 258.650299 
L 319.906003 258.291018 
L 321.054545 258.147305 
L 322.203087 257.85988 
L 323.35163 257.716168 
L 324.500172 257.213174 
L 326.797256 256.853892 
L 327.945798 256.279042 
L 329.09434 255.847904 
L 330.242882 255.560479 
L 331.391424 255.416766 
L 332.539966 254.985629 
L 337.134134 254.123353 
L 339.431218 253.189222 
L 340.57976 252.973653 
L 341.728302 252.542515 
L 342.876844 252.398802 
L 344.025386 251.895808 
L 345.173928 251.608383 
L 347.471012 251.464671 
L 349.768096 250.746108 
L 350.916638 250.602395 
L 352.06518 250.602395 
L 353.213722 250.099401 
L 355.510806 249.74012 
L 356.659348 249.308982 
L 358.956432 249.237126 
L 360.104974 249.093413 
L 361.253516 249.093413 
L 363.5506 248.734132 
L 365.847684 247.656287 
L 368.144768 246.650299 
L 369.29331 246.362874 
L 370.441852 245.644311 
L 371.590395 245.28503 
L 373.887479 244.279042 
L 375.036021 244.063473 
L 376.184563 243.560479 
L 377.333105 243.201198 
L 378.481647 242.482635 
L 379.630189 241.907784 
L 380.778731 240.758084 
L 381.927273 238.961677 
L 383.075815 237.524551 
L 384.224357 237.165269 
L 385.372899 237.165269 
L 386.521441 236.446707 
L 387.669983 235.584431 
L 388.818525 235.297006 
L 389.967067 234.722156 
L 391.115609 234.506587 
L 392.264151 233.500599 
L 393.412693 233.213174 
L 396.858319 231.704192 
L 398.006861 230.410778 
L 399.155403 228.758084 
L 400.303945 228.111377 
L 401.452487 226.31497 
L 402.601029 225.237126 
L 403.749571 224.734132 
L 404.898113 224.446707 
L 406.046655 223.728144 
L 408.343739 222.650299 
L 409.492281 221.85988 
L 410.640823 220.925749 
L 411.789365 220.135329 
L 412.937907 219.488623 
L 414.086449 217.979641 
L 415.234991 215.464671 
L 416.383533 213.883832 
L 417.532075 213.021557 
L 418.680617 212.518563 
L 423.274786 208.853892 
L 425.57187 207.057485 
L 426.720412 206.123353 
L 427.868954 204.542515 
L 429.017496 203.536527 
L 431.31458 202.027545 
L 433.611664 200.518563 
L 434.760206 199.728144 
L 435.908748 198.794012 
L 437.05729 198.506587 
L 438.205832 198.003593 
L 441.651458 196.135329 
L 443.948542 195.057485 
L 446.245626 193.117365 
L 447.394168 191.752096 
L 448.54271 190.961677 
L 449.691252 190.31497 
L 450.839794 190.027545 
L 451.988336 189.452695 
L 453.136878 188.662275 
L 455.433962 187.512575 
L 456.582504 187.297006 
L 457.731046 186.578443 
L 460.02813 185.428743 
L 461.176672 184.350898 
L 462.325214 183.560479 
L 463.473756 183.201198 
L 464.622298 182.482635 
L 465.77084 181.979641 
L 466.919383 181.261078 
L 468.067925 180.82994 
L 469.216467 180.111377 
L 470.365009 179.177246 
L 472.662093 178.386826 
L 473.810635 177.883832 
L 474.959177 177.668263 
L 476.107719 176.949701 
L 477.256261 176.734132 
L 479.553345 175.943713 
L 480.701887 175.584431 
L 482.998971 174.650299 
L 484.147513 174.219162 
L 485.296055 173.931737 
L 486.444597 173.500599 
L 488.741681 173.141317 
L 491.038765 171.273054 
L 492.187307 170.841916 
L 494.484391 169.620359 
L 496.781475 168.398802 
L 499.078559 167.752096 
L 500.227101 166.88982 
L 501.375643 166.602395 
L 503.672727 165.165269 
L 504.821269 164.590419 
L 508.266895 163.871856 
L 510.563979 163.22515 
L 514.009605 161.356886 
L 515.158148 161.213174 
L 516.30669 160.782036 
L 517.455232 160.638323 
L 518.603774 160.207186 
L 519.752316 159.488623 
L 520.900858 158.626347 
L 522.0494 157.907784 
L 523.197942 157.692216 
L 524.346484 157.189222 
L 525.495026 157.045509 
L 526.643568 156.614371 
L 527.79211 155.823952 
L 528.940652 155.464671 
L 530.089194 154.961677 
L 534.683362 153.74012 
L 535.831904 153.668263 
L 536.980446 153.308982 
L 539.27753 152.302994 
L 540.426072 151.943713 
L 541.574614 151.728144 
L 542.723156 151.22515 
L 543.871698 150.865868 
L 545.02024 150.362874 
L 547.317324 149.716168 
L 548.465866 149.644311 
L 550.76295 149.141317 
L 551.911492 148.638323 
L 553.060034 148.422754 
L 555.357118 147.488623 
L 558.802744 145.907784 
L 561.099828 144.470659 
L 562.24837 144.183234 
L 563.396913 143.536527 
L 564.545455 143.105389 
L 565.693997 142.458683 
L 567.991081 141.883832 
L 569.139623 141.237126 
L 571.436707 140.302994 
L 573.733791 139.943713 
L 574.882333 139.153293 
L 576.030875 138.578443 
L 577.179417 138.362874 
L 578.327959 137.931737 
L 579.476501 137.356886 
L 580.625043 137.141317 
L 581.773585 136.566467 
L 586.367753 135.91976 
L 588.664837 134.913772 
L 589.813379 134.051497 
L 590.961921 132.111377 
L 592.110463 131.823952 
L 593.259005 131.68024 
L 594.407547 131.392814 
L 596.704631 130.171257 
L 597.853173 129.74012 
L 599.001715 129.165269 
L 600.150257 128.877844 
L 602.447341 127.8 
L 604.744425 126.722156 
L 607.041509 125.788024 
L 608.190051 125.069461 
L 609.338593 124.638323 
L 612.78422 123.847904 
L 615.081304 122.77006 
L 616.229846 122.267066 
L 617.378388 122.051497 
L 620.824014 120.758084 
L 623.121098 119.392814 
L 624.26964 118.674251 
L 625.418182 118.099401 
L 626.566724 117.883832 
L 627.715266 117.452695 
L 628.863808 117.380838 
L 633.457976 115.943713 
L 634.606518 115.871856 
L 635.75506 115.081437 
L 636.903602 114.794012 
L 638.052144 114.291018 
L 641.49777 113.28503 
L 642.646312 112.638323 
L 643.794854 112.279042 
L 644.943396 111.560479 
L 646.091938 111.057485 
L 647.24048 110.410778 
L 652.98319 108.183234 
L 654.131732 107.536527 
L 655.280274 106.746108 
L 656.428816 105.524551 
L 657.577358 104.805988 
L 658.725901 104.590419 
L 661.022985 102.865868 
L 662.171527 102.506587 
L 663.320069 100.853892 
L 664.468611 100.422754 
L 665.617153 99.632335 
L 666.765695 99.416766 
L 667.914237 98.698204 
L 669.062779 98.19521 
L 670.211321 97.979641 
L 671.359863 97.548503 
L 672.508405 96.614371 
L 673.656947 96.25509 
L 675.954031 94.746108 
L 677.102573 94.027545 
L 678.251115 93.524551 
L 680.548199 92.302994 
L 681.696741 91.8 
L 682.845283 91.656287 
L 683.993825 91.22515 
L 685.142367 90.650299 
L 686.290909 89.931737 
L 687.439451 88.207186 
L 688.587993 87.129341 
L 689.736535 86.482635 
L 690.885077 86.19521 
L 693.182161 84.901796 
L 694.330703 84.686228 
L 695.479245 84.111377 
L 698.924871 82.746108 
L 700.073413 82.171257 
L 702.370497 80.590419 
L 704.667581 78.291018 
L 705.816123 77.428743 
L 708.113208 76.063473 
L 709.26175 74.985629 
L 712.707376 72.398802 
L 713.855918 71.823952 
L 715.00446 70.602395 
L 716.153002 69.811976 
L 717.301544 69.452695 
L 718.450086 68.949701 
L 719.598628 67.871856 
L 721.895712 66.722156 
L 723.044254 66.434731 
L 724.192796 65.644311 
L 725.341338 65.28503 
L 727.638422 64.279042 
L 729.935506 62.626347 
L 731.084048 62.051497 
L 733.381132 61.332934 
L 734.529674 60.686228 
L 739.123842 59.177246 
L 741.420926 58.243114 
L 742.569468 57.668263 
L 743.71801 56.734132 
L 746.015094 55.8 
L 747.163636 55.8 
L 747.163636 55.8 
" clip-path="url(#pe868a4862d)" style="fill: none; stroke: #1f77b4; stroke-width: 1.5; stroke-linecap: square"/>
   </g>
   <g id="line2d_42">
    <path d="M 139.584906 307.8 
L 141.88199 307.8 
L 144.179074 307.512575 
L 151.070326 307.440719 
L 154.515952 307.297006 
L 157.961578 307.22515 
L 160.258662 307.153293 
L 163.704288 307.153293 
L 164.85283 306.865868 
L 168.298456 306.794012 
L 174.041166 306.147305 
L 183.229503 305.644311 
L 184.378045 305.644311 
L 185.526587 305.428743 
L 188.972213 305.356886 
L 191.269297 305.069461 
L 195.863465 305.069461 
L 197.012007 304.925749 
L 202.754717 304.853892 
L 206.200343 304.71018 
L 216.537221 304.638323 
L 218.834305 304.566467 
L 223.428473 304.494611 
L 226.874099 304.350898 
L 231.468268 304.350898 
L 232.61681 304.207186 
L 236.062436 304.135329 
L 240.656604 303.91976 
L 248.696398 303.847904 
L 250.993482 303.776048 
L 255.58765 303.704192 
L 259.033276 303.273054 
L 264.775986 303.201198 
L 270.518696 302.913772 
L 276.261407 302.841916 
L 279.707033 302.698204 
L 282.004117 302.626347 
L 284.301201 302.410778 
L 288.895369 302.19521 
L 292.340995 302.123353 
L 294.638079 302.051497 
L 296.935163 302.051497 
L 298.083705 301.907784 
L 301.529331 301.907784 
L 303.826415 301.692216 
L 307.272041 301.548503 
L 313.014751 301.476647 
L 317.608919 300.973653 
L 318.757461 300.901796 
L 319.906003 300.686228 
L 324.500172 300.614371 
L 327.945798 300.326946 
L 330.242882 300.111377 
L 335.985592 299.823952 
L 339.431218 299.752096 
L 342.876844 299.608383 
L 344.025386 299.608383 
L 346.32247 299.392814 
L 348.619554 299.320958 
L 349.768096 299.320958 
L 350.916638 299.177246 
L 353.213722 299.105389 
L 358.956432 298.817964 
L 361.253516 298.746108 
L 364.699142 298.602395 
L 368.144768 298.530539 
L 370.441852 298.458683 
L 376.184563 298.386826 
L 380.778731 297.883832 
L 381.927273 297.883832 
L 384.224357 297.668263 
L 386.521441 297.596407 
L 392.264151 297.165269 
L 393.412693 296.877844 
L 395.709777 296.734132 
L 396.858319 296.446707 
L 400.303945 296.159281 
L 402.601029 295.656287 
L 404.898113 295.584431 
L 407.195197 295.584431 
L 408.343739 295.440719 
L 409.492281 295.440719 
L 411.789365 295.081437 
L 416.383533 294.291018 
L 417.532075 294.291018 
L 418.680617 294.147305 
L 422.126244 294.075449 
L 437.05729 293.141317 
L 438.205832 292.925749 
L 441.651458 292.71018 
L 443.948542 292.350898 
L 446.245626 292.135329 
L 448.54271 292.063473 
L 450.839794 292.063473 
L 451.988336 291.776048 
L 453.136878 291.632335 
L 457.731046 291.560479 
L 460.02813 291.34491 
L 461.176672 291.34491 
L 464.622298 290.841916 
L 465.77084 290.554491 
L 466.919383 290.410778 
L 469.216467 290.338922 
L 474.959177 290.051497 
L 478.404803 289.979641 
L 493.335849 289.117365 
L 495.632933 289.117365 
L 497.930017 288.901796 
L 500.227101 288.901796 
L 503.672727 288.542515 
L 508.266895 288.326946 
L 510.563979 288.25509 
L 511.712521 288.111377 
L 516.30669 288.039521 
L 524.346484 287.608383 
L 530.089194 287.536527 
L 532.386278 287.464671 
L 533.53482 287.464671 
L 534.683362 287.249102 
L 536.980446 287.177246 
L 543.871698 287.105389 
L 547.317324 286.961677 
L 551.911492 286.88982 
L 553.060034 286.674251 
L 559.951286 286.602395 
L 562.24837 286.530539 
L 564.545455 286.458683 
L 566.842539 286.386826 
L 569.139623 286.31497 
L 578.327959 285.811976 
L 584.070669 285.74012 
L 587.516295 285.452695 
L 589.813379 285.237126 
L 592.110463 285.165269 
L 594.407547 285.093413 
L 595.556089 284.949701 
L 599.001715 284.877844 
L 600.150257 284.590419 
L 604.744425 284.37485 
L 615.081304 284.302994 
L 620.824014 283.871856 
L 624.26964 283.512575 
L 630.01235 283.440719 
L 633.457976 283.081437 
L 640.349228 282.722156 
L 642.646312 282.650299 
L 647.24048 282.434731 
L 651.834648 282.362874 
L 655.280274 282.219162 
L 659.874443 282.147305 
L 663.320069 281.788024 
L 665.617153 281.716168 
L 670.211321 281.644311 
L 673.656947 281.356886 
L 674.805489 281.213174 
L 675.954031 281.213174 
L 677.102573 280.997605 
L 679.399657 280.925749 
L 683.993825 280.853892 
L 686.290909 280.494611 
L 696.627787 280.422754 
L 698.924871 280.207186 
L 700.073413 280.063473 
L 702.370497 279.991617 
L 704.667581 279.91976 
L 705.816123 279.632335 
L 708.113208 279.560479 
L 709.26175 279.34491 
L 711.558834 279.34491 
L 715.00446 278.985629 
L 740.272384 277.476647 
L 747.163636 277.40479 
L 747.163636 277.40479 
" clip-path="url(#pe868a4862d)" style="fill: none; stroke: #ff7f0e; stroke-width: 1.5; stroke-linecap: square"/>
   </g>
   <g id="patch_3">
    <path d="M 108 320.4 
L 108 43.2 
" style="fill: none; stroke: #a9a9a9; stroke-width: 0.8; stroke-linejoin: miter; stroke-linecap: square"/>
   </g>
   <g id="patch_4">
    <path d="M 777.6 320.4 
L 777.6 43.2 
" style="fill: none"/>
   </g>
   <g id="patch_5">
    <path d="M 108 320.4 
L 777.6 320.4 
" style="fill: none; stroke: #a9a9a9; stroke-width: 0.8; stroke-linejoin: miter; stroke-linecap: square"/>
   </g>
   <g id="patch_6">
    <path d="M 108 43.2 
L 777.6 43.2 
" style="fill: none"/>
   </g>
   <g id="text_21">
    <!-- get_subscribe history -->
    <g style="fill: #a9a9a9" transform="translate(378.6075 37.2) scale(0.12 -0.12)">
     <defs>
      <path id="DejaVuSans-67" d="M 2906 1791 
Q 2906 2416 2648 2759 
Q 2391 3103 1925 3103 
Q 1463 3103 1205 2759 
Q 947 2416 947 1791 
Q 947 1169 1205 825 
Q 1463 481 1925 481 
Q 2391 481 2648 825 
Q 2906 1169 2906 1791 
z
M 3481 434 
Q 3481 -459 3084 -895 
Q 2688 -1331 1869 -1331 
Q 1566 -1331 1297 -1286 
Q 1028 -1241 775 -1147 
L 775 -588 
Q 1028 -725 1275 -790 
Q 1522 -856 1778 -856 
Q 2344 -856 2625 -561 
Q 2906 -266 2906 331 
L 2906 616 
Q 2728 306 2450 153 
Q 2172 0 1784 0 
Q 1141 0 747 490 
Q 353 981 353 1791 
Q 353 2603 747 3093 
Q 1141 3584 1784 3584 
Q 2172 3584 2450 3431 
Q 2728 3278 2906 2969 
L 2906 3500 
L 3481 3500 
L 3481 434 
z
" transform="scale(0.015625)"/>
      <path id="DejaVuSans-65" d="M 3597 1894 
L 3597 1613 
L 953 1613 
Q 991 1019 1311 708 
Q 1631 397 2203 397 
Q 2534 397 2845 478 
Q 3156 559 3463 722 
L 3463 178 
Q 3153 47 2828 -22 
Q 2503 -91 2169 -91 
Q 1331 -91 842 396 
Q 353 884 353 1716 
Q 353 2575 817 3079 
Q 1281 3584 2069 3584 
Q 2775 3584 3186 3129 
Q 3597 2675 3597 1894 
z
M 3022 2063 
Q 3016 2534 2758 2815 
Q 2500 3097 2075 3097 
Q 1594 3097 1305 2825 
Q 1016 2553 972 2059 
L 3022 2063 
z
" transform="scale(0.015625)"/>
      <path id="DejaVuSans-74" d="M 1172 4494 
L 1172 3500 
L 2356 3500 
L 2356 3053 
L 1172 3053 
L 1172 1153 
Q 1172 725 1289 603 
Q 1406 481 1766 481 
L 2356 481 
L 2356 0 
L 1766 0 
Q 1100 0 847 248 
Q 594 497 594 1153 
L 594 3053 
L 172 3053 
L 172 3500 
L 594 3500 
L 594 4494 
L 1172 4494 
z
" transform="scale(0.015625)"/>
      <path id="DejaVuSans-5f" d="M 3263 -1063 
L 3263 -1509 
L -63 -1509 
L -63 -1063 
L 3263 -1063 
z
" transform="scale(0.015625)"/>
      <path id="DejaVuSans-73" d="M 2834 3397 
L 2834 2853 
Q 2591 2978 2328 3040 
Q 2066 3103 1784 3103 
Q 1356 3103 1142 2972 
Q 928 2841 928 2578 
Q 928 2378 1081 2264 
Q 1234 2150 1697 2047 
L 1894 2003 
Q 2506 1872 2764 1633 
Q 3022 1394 3022 966 
Q 3022 478 2636 193 
Q 2250 -91 1575 -91 
Q 1294 -91 989 -36 
Q 684 19 347 128 
L 347 722 
Q 666 556 975 473 
Q 1284 391 1588 391 
Q 1994 391 2212 530 
Q 2431 669 2431 922 
Q 2431 1156 2273 1281 
Q 2116 1406 1581 1522 
L 1381 1569 
Q 847 1681 609 1914 
Q 372 2147 372 2553 
Q 372 3047 722 3315 
Q 1072 3584 1716 3584 
Q 2034 3584 2315 3537 
Q 2597 3491 2834 3397 
z
" transform="scale(0.015625)"/>
      <path id="DejaVuSans-75" d="M 544 1381 
L 544 3500 
L 1119 3500 
L 1119 1403 
Q 1119 906 1312 657 
Q 1506 409 1894 409 
Q 2359 409 2629 706 
Q 2900 1003 2900 1516 
L 2900 3500 
L 3475 3500 
L 3475 0 
L 2900 0 
L 2900 538 
Q 2691 219 2414 64 
Q 2138 -91 1772 -91 
Q 1169 -91 856 284 
Q 544 659 544 1381 
z
M 1991 3584 
L 1991 3584 
z
" transform="scale(0.015625)"/>
      <path id="DejaVuSans-62" d="M 3116 1747 
Q 3116 2381 2855 2742 
Q 2594 3103 2138 3103 
Q 1681 3103 1420 2742 
Q 1159 2381 1159 1747 
Q 1159 1113 1420 752 
Q 1681 391 2138 391 
Q 2594 391 2855 752 
Q 3116 1113 3116 1747 
z
M 1159 2969 
Q 1341 3281 1617 3432 
Q 1894 3584 2278 3584 
Q 2916 3584 3314 3078 
Q 3713 2572 3713 1747 
Q 3713 922 3314 415 
Q 2916 -91 2278 -91 
Q 1894 -91 1617 61 
Q 1341 213 1159 525 
L 1159 0 
L 581 0 
L 581 4863 
L 1159 4863 
L 1159 2969 
z
" transform="scale(0.015625)"/>
      <path id="DejaVuSans-63" d="M 3122 3366 
L 3122 2828 
Q 2878 2963 2633 3030 
Q 2388 3097 2138 3097 
Q 1578 3097 1268 2742 
Q 959 2388 959 1747 
Q 959 1106 1268 751 
Q 1578 397 2138 397 
Q 2388 397 2633 464 
Q 2878 531 3122 666 
L 3122 134 
Q 2881 22 2623 -34 
Q 2366 -91 2075 -91 
Q 1284 -91 818 406 
Q 353 903 353 1747 
Q 353 2603 823 3093 
Q 1294 3584 2113 3584 
Q 2378 3584 2631 3529 
Q 2884 3475 3122 3366 
z
" transform="scale(0.015625)"/>
      <path id="DejaVuSans-72" d="M 2631 2963 
Q 2534 3019 2420 3045 
Q 2306 3072 2169 3072 
Q 1681 3072 1420 2755 
Q 1159 2438 1159 1844 
L 1159 0 
L 581 0 
L 581 3500 
L 1159 3500 
L 1159 2956 
Q 1341 3275 1631 3429 
Q 1922 3584 2338 3584 
Q 2397 3584 2469 3576 
Q 2541 3569 2628 3553 
L 2631 2963 
z
" transform="scale(0.015625)"/>
      <path id="DejaVuSans-69" d="M 603 3500 
L 1178 3500 
L 1178 0 
L 603 0 
L 603 3500 
z
M 603 4863 
L 1178 4863 
L 1178 4134 
L 603 4134 
L 603 4863 
z
" transform="scale(0.015625)"/>
      <path id="DejaVuSans-20" transform="scale(0.015625)"/>
      <path id="DejaVuSans-68" d="M 3513 2113 
L 3513 0 
L 2938 0 
L 2938 2094 
Q 2938 2591 2744 2837 
Q 2550 3084 2163 3084 
Q 1697 3084 1428 2787 
Q 1159 2491 1159 1978 
L 1159 0 
L 581 0 
L 581 4863 
L 1159 4863 
L 1159 2956 
Q 1366 3272 1645 3428 
Q 1925 3584 2291 3584 
Q 2894 3584 3203 3211 
Q 3513 2838 3513 2113 
z
" transform="scale(0.015625)"/>
      <path id="DejaVuSans-6f" d="M 1959 3097 
Q 1497 3097 1228 2736 
Q 959 2375 959 1747 
Q 959 1119 1226 758 
Q 1494 397 1959 397 
Q 2419 397 2687 759 
Q 2956 1122 2956 1747 
Q 2956 2369 2687 2733 
Q 2419 3097 1959 3097 
z
M 1959 3584 
Q 2709 3584 3137 3096 
Q 3566 2609 3566 1747 
Q 3566 888 3137 398 
Q 2709 -91 1959 -91 
Q 1206 -91 779 398 
Q 353 888 353 1747 
Q 353 2609 779 3096 
Q 1206 3584 1959 3584 
z
" transform="scale(0.015625)"/>
      <path id="DejaVuSans-79" d="M 2059 -325 
Q 1816 -950 1584 -1140 
Q 1353 -1331 966 -1331 
L 506 -1331 
L 506 -850 
L 844 -850 
Q 1081 -850 1212 -737 
Q 1344 -625 1503 -206 
L 1606 56 
L 191 3500 
L 800 3500 
L 1894 763 
L 2988 3500 
L 3597 3500 
L 2059 -325 
z
" transform="scale(0.015625)"/>
     </defs>
     <use xlink:href="#DejaVuSans-67"/>
     <use xlink:href="#DejaVuSans-65" x="63.476562"/>
     <use xlink:href="#DejaVuSans-74" x="125"/>
     <use xlink:href="#DejaVuSans-5f" x="164.208984"/>
     <use xlink:href="#DejaVuSans-73" x="214.208984"/>
     <use xlink:href="#DejaVuSans-75" x="266.308594"/>
     <use xlink:href="#DejaVuSans-62" x="329.6875"/>
     <use xlink:href="#DejaVuSans-73" x="393.164062"/>
     <use xlink:href="#DejaVuSans-63" x="445.263672"/>
     <use xlink:href="#DejaVuSans-72" x="500.244141"/>
     <use xlink:href="#DejaVuSans-69" x="541.357422"/>
     <use xlink:href="#DejaVuSans-62" x="569.140625"/>
     <use xlink:href="#DejaVuSans-65" x="632.617188"/>
     <use xlink:href="#DejaVuSans-20" x="694.140625"/>
     <use xlink:href="#DejaVuSans-68" x="725.927734"/>
     <use xlink:href="#DejaVuSans-69" x="789.306641"/>
     <use xlink:href="#DejaVuSans-73" x="817.089844"/>
     <use xlink:href="#DejaVuSans-74" x="869.189453"/>
     <use xlink:href="#DejaVuSans-6f" x="908.398438"/>
     <use xlink:href="#DejaVuSans-72" x="969.580078"/>
     <use xlink:href="#DejaVuSans-79" x="1010.693359"/>
    </g>
   </g>
   <g id="legend_1">
    <g id="line2d_43">
     <path d="M 815.08 328.498438 
L 825.08 328.498438 
L 835.08 328.498438 
" style="fill: none; stroke: #1f77b4; stroke-width: 1.5; stroke-linecap: square"/>
    </g>
    <g id="text_22">
     <!-- star -->
     <g style="fill: #a9a9a9" transform="translate(843.08 331.998438) scale(0.1 -0.1)">
      <defs>
       <path id="DejaVuSans-61" d="M 2194 1759 
Q 1497 1759 1228 1600 
Q 959 1441 959 1056 
Q 959 750 1161 570 
Q 1363 391 1709 391 
Q 2188 391 2477 730 
Q 2766 1069 2766 1631 
L 2766 1759 
L 2194 1759 
z
M 3341 1997 
L 3341 0 
L 2766 0 
L 2766 531 
Q 2569 213 2275 61 
Q 1981 -91 1556 -91 
Q 1019 -91 701 211 
Q 384 513 384 1019 
Q 384 1609 779 1909 
Q 1175 2209 1959 2209 
L 2766 2209 
L 2766 2266 
Q 2766 2663 2505 2880 
Q 2244 3097 1772 3097 
Q 1472 3097 1187 3025 
Q 903 2953 641 2809 
L 641 3341 
Q 956 3463 1253 3523 
Q 1550 3584 1831 3584 
Q 2591 3584 2966 3190 
Q 3341 2797 3341 1997 
z
" transform="scale(0.015625)"/>
      </defs>
      <use xlink:href="#DejaVuSans-73"/>
      <use xlink:href="#DejaVuSans-74" x="52.099609"/>
      <use xlink:href="#DejaVuSans-61" x="91.308594"/>
      <use xlink:href="#DejaVuSans-72" x="152.587891"/>
     </g>
    </g>
    <g id="line2d_44">
     <path d="M 815.08 343.176562 
L 825.08 343.176562 
L 835.08 343.176562 
" style="fill: none; stroke: #ff7f0e; stroke-width: 1.5; stroke-linecap: square"/>
    </g>
    <g id="text_23">
     <!-- fork -->
     <g style="fill: #a9a9a9" transform="translate(843.08 346.676562) scale(0.1 -0.1)">
      <defs>
       <path id="DejaVuSans-66" d="M 2375 4863 
L 2375 4384 
L 1825 4384 
Q 1516 4384 1395 4259 
Q 1275 4134 1275 3809 
L 1275 3500 
L 2222 3500 
L 2222 3053 
L 1275 3053 
L 1275 0 
L 697 0 
L 697 3053 
L 147 3053 
L 147 3500 
L 697 3500 
L 697 3744 
Q 697 4328 969 4595 
Q 1241 4863 1831 4863 
L 2375 4863 
z
" transform="scale(0.015625)"/>
       <path id="DejaVuSans-6b" d="M 581 4863 
L 1159 4863 
L 1159 1991 
L 2875 3500 
L 3609 3500 
L 1753 1863 
L 3688 0 
L 2938 0 
L 1159 1709 
L 1159 0 
L 581 0 
L 581 4863 
z
" transform="scale(0.015625)"/>
      </defs>
      <use xlink:href="#DejaVuSans-66"/>
      <use xlink:href="#DejaVuSans-6f" x="35.205078"/>
      <use xlink:href="#DejaVuSans-72" x="96.386719"/>
      <use xlink:href="#DejaVuSans-6b" x="137.5"/>
     </g>
    </g>
   </g>
  </g>
 </g>
 <defs>
  <clipPath id="pe868a4862d">
   <rect x="108" y="43.2" width="669.6" height="277.2"/>
  </clipPath>
 </defs>
</svg>
